%
M48
M72
T01C0.02362
T02C0.02400
T03C0.02756
T04C0.03200
T05C0.03937
T06C0.04000
%
T01
X11537Y55937
X23537Y55937
T02
X50813Y57702
X72466Y100517
X46876Y128569
X129061Y143332
X175813Y126600
X222072Y157112
X292939Y139395
X193037Y82309
X168431Y92643
X137919Y70006
X292939Y53273
X318037Y67053
X103962Y190576
T03
X34236Y180676
X31087Y185401
X24787Y185401
X21638Y180676
X27937Y180676
T04
X76403Y32033
X76403Y42033
X92151Y42033
X92151Y32033
X107899Y32033
X107899Y42033
X123647Y42033
X123647Y32033
X146364Y53608
X146364Y63608
X166364Y63608
X166364Y53608
X186364Y53608
X186364Y63608
X211170Y56343
X211170Y72839
X211170Y89335
X211170Y105831
X211170Y122328
X211170Y138824
X211170Y155320
X211170Y171816
X211170Y188312
X211170Y204808
X251170Y204808
X274002Y201954
X274002Y191954
X274002Y181954
X274002Y171954
X274002Y161954
X274002Y151954
X274002Y141954
X274002Y131954
X251170Y138824
X251170Y122328
X251170Y105831
X274002Y91718
X274002Y81718
X274002Y71718
X274002Y61718
X274002Y51718
X274002Y41718
X274002Y31718
X274002Y21718
X251170Y23351
X251170Y39847
X251170Y56343
X251170Y72839
X251170Y89335
X304002Y91718
X304002Y81718
X304002Y71718
X304002Y61718
X304002Y51718
X304002Y41718
X304002Y31718
X304002Y21718
X327309Y29159
X337309Y29159
X350931Y29159
X360931Y29159
X353620Y48844
X334620Y48844
X329120Y70458
X329120Y80458
X329120Y90458
X329120Y100458
X329120Y110458
X329120Y120458
X329120Y130458
X329120Y140458
X329120Y150458
X329120Y160458
X329120Y170458
X329120Y180458
X329120Y190458
X329120Y200458
X304002Y201954
X304002Y191954
X304002Y181954
X304002Y171954
X304002Y161954
X304002Y151954
X304002Y141954
X304002Y131954
X359120Y130458
X359120Y120458
X359120Y110458
X359120Y100458
X359120Y90458
X359120Y80458
X359120Y70458
X359120Y140458
X359120Y150458
X359120Y160458
X359120Y170458
X359120Y180458
X359120Y190458
X359120Y200458
X251170Y188312
X251170Y171816
X251170Y155320
X123647Y69592
X111836Y69592
X100025Y69592
X88214Y69592
X76403Y69592
X76403Y59592
X88214Y59592
X100025Y59592
X111836Y59592
X123647Y59592
X211170Y39847
X211170Y23351
T05
X42307Y200558
X13567Y200558
T06
X55692Y203376
X73492Y203376
X91125Y203376
X108925Y203376
X126558Y203376
X144358Y203376
X161991Y203376
X179791Y203376
X179791Y177776
X161991Y177776
X144358Y177776
X126558Y177776
X108925Y177776
X91125Y177776
X73492Y177776
X55692Y177776
X55692Y160069
X73492Y160069
X91125Y160069
X108925Y160069
X126558Y160069
X144358Y160069
X161991Y160069
X179791Y160069
X179791Y134469
X161991Y134469
X144358Y134469
X126558Y134469
X108925Y134469
X91125Y134469
X73492Y134469
X55692Y134469
X55692Y116762
X38059Y116762
X20259Y116762
X20259Y91162
X38059Y91162
X55692Y91162
X73492Y91162
X91125Y91162
X108925Y91162
X126558Y91162
X144358Y91162
X161991Y91162
X179791Y91162
X179791Y116762
X161991Y116762
X144358Y116762
X126558Y116762
X108925Y116762
X91125Y116762
X73492Y116762
X387427Y112584
X387427Y102584
X387427Y92584
X387427Y82584
X387427Y72584
X387427Y62584
X387427Y52584
X387427Y122584
X387427Y132584
X387427Y142584
X387427Y152584
X387427Y162584
X387427Y172584
X387427Y182584
X387427Y192584
X387427Y202584
M30
