G75*
%MOIN*%
%OFA0B0*%
%FSLAX25Y25*%
%IPPOS*%
%LPD*%
%AMOC8*
5,1,8,0,0,1.08239X$1,22.5*
%
%ADD10OC8,0.06000*%
%ADD11C,0.06000*%
%ADD12C,0.06800*%
%ADD13C,0.06000*%
%ADD14C,0.06737*%
%ADD15C,0.05556*%
%ADD16C,0.04800*%
%ADD17C,0.04762*%
D10*
X0076403Y0032033D03*
X0076403Y0042033D03*
X0092151Y0042033D03*
X0092151Y0032033D03*
X0107899Y0032033D03*
X0107899Y0042033D03*
X0123647Y0042033D03*
X0123647Y0032033D03*
X0146364Y0053608D03*
X0146364Y0063608D03*
X0166364Y0063608D03*
X0166364Y0053608D03*
X0186364Y0053608D03*
X0186364Y0063608D03*
X0123647Y0059592D03*
X0111836Y0059592D03*
X0100025Y0059592D03*
X0088214Y0059592D03*
X0076403Y0059592D03*
X0076403Y0069592D03*
X0088214Y0069592D03*
X0100025Y0069592D03*
X0111836Y0069592D03*
X0123647Y0069592D03*
X0327309Y0029159D03*
X0337309Y0029159D03*
X0350931Y0029159D03*
X0360931Y0029159D03*
D11*
X0306602Y0031718D02*
X0301402Y0031718D01*
X0301402Y0041718D02*
X0306602Y0041718D01*
X0306602Y0051718D02*
X0301402Y0051718D01*
X0301402Y0061718D02*
X0306602Y0061718D01*
X0306602Y0071718D02*
X0301402Y0071718D01*
X0301402Y0081718D02*
X0306602Y0081718D01*
X0306602Y0091718D02*
X0301402Y0091718D01*
X0276602Y0091718D02*
X0271402Y0091718D01*
X0271402Y0081718D02*
X0276602Y0081718D01*
X0276602Y0071718D02*
X0271402Y0071718D01*
X0271402Y0061718D02*
X0276602Y0061718D01*
X0276602Y0051718D02*
X0271402Y0051718D01*
X0271402Y0041718D02*
X0276602Y0041718D01*
X0276602Y0031718D02*
X0271402Y0031718D01*
X0271402Y0021718D02*
X0276602Y0021718D01*
X0253770Y0023351D02*
X0248570Y0023351D01*
X0248570Y0039847D02*
X0253770Y0039847D01*
X0253770Y0056343D02*
X0248570Y0056343D01*
X0248570Y0072839D02*
X0253770Y0072839D01*
X0253770Y0089335D02*
X0248570Y0089335D01*
X0248570Y0105831D02*
X0253770Y0105831D01*
X0253770Y0122328D02*
X0248570Y0122328D01*
X0271402Y0131954D02*
X0276602Y0131954D01*
X0276602Y0141954D02*
X0271402Y0141954D01*
X0271402Y0151954D02*
X0276602Y0151954D01*
X0276602Y0161954D02*
X0271402Y0161954D01*
X0271402Y0171954D02*
X0276602Y0171954D01*
X0276602Y0181954D02*
X0271402Y0181954D01*
X0271402Y0191954D02*
X0276602Y0191954D01*
X0276602Y0201954D02*
X0271402Y0201954D01*
X0253770Y0204808D02*
X0248570Y0204808D01*
X0248570Y0188312D02*
X0253770Y0188312D01*
X0253770Y0171816D02*
X0248570Y0171816D01*
X0248570Y0155320D02*
X0253770Y0155320D01*
X0253770Y0138824D02*
X0248570Y0138824D01*
X0213770Y0138824D02*
X0208570Y0138824D01*
X0208570Y0122328D02*
X0213770Y0122328D01*
X0213770Y0105831D02*
X0208570Y0105831D01*
X0208570Y0089335D02*
X0213770Y0089335D01*
X0213770Y0072839D02*
X0208570Y0072839D01*
X0208570Y0056343D02*
X0213770Y0056343D01*
X0213770Y0039847D02*
X0208570Y0039847D01*
X0208570Y0023351D02*
X0213770Y0023351D01*
X0301402Y0021718D02*
X0306602Y0021718D01*
X0326520Y0070458D02*
X0331720Y0070458D01*
X0331720Y0080458D02*
X0326520Y0080458D01*
X0326520Y0090458D02*
X0331720Y0090458D01*
X0331720Y0100458D02*
X0326520Y0100458D01*
X0326520Y0110458D02*
X0331720Y0110458D01*
X0331720Y0120458D02*
X0326520Y0120458D01*
X0326520Y0130458D02*
X0331720Y0130458D01*
X0331720Y0140458D02*
X0326520Y0140458D01*
X0326520Y0150458D02*
X0331720Y0150458D01*
X0331720Y0160458D02*
X0326520Y0160458D01*
X0326520Y0170458D02*
X0331720Y0170458D01*
X0331720Y0180458D02*
X0326520Y0180458D01*
X0326520Y0190458D02*
X0331720Y0190458D01*
X0331720Y0200458D02*
X0326520Y0200458D01*
X0306602Y0201954D02*
X0301402Y0201954D01*
X0301402Y0191954D02*
X0306602Y0191954D01*
X0306602Y0181954D02*
X0301402Y0181954D01*
X0301402Y0171954D02*
X0306602Y0171954D01*
X0306602Y0161954D02*
X0301402Y0161954D01*
X0301402Y0151954D02*
X0306602Y0151954D01*
X0306602Y0141954D02*
X0301402Y0141954D01*
X0301402Y0131954D02*
X0306602Y0131954D01*
X0356520Y0130458D02*
X0361720Y0130458D01*
X0361720Y0120458D02*
X0356520Y0120458D01*
X0356520Y0110458D02*
X0361720Y0110458D01*
X0361720Y0100458D02*
X0356520Y0100458D01*
X0356520Y0090458D02*
X0361720Y0090458D01*
X0361720Y0080458D02*
X0356520Y0080458D01*
X0356520Y0070458D02*
X0361720Y0070458D01*
X0361720Y0140458D02*
X0356520Y0140458D01*
X0356520Y0150458D02*
X0361720Y0150458D01*
X0361720Y0160458D02*
X0356520Y0160458D01*
X0356520Y0170458D02*
X0361720Y0170458D01*
X0361720Y0180458D02*
X0356520Y0180458D01*
X0356520Y0190458D02*
X0361720Y0190458D01*
X0361720Y0200458D02*
X0356520Y0200458D01*
X0213770Y0204808D02*
X0208570Y0204808D01*
X0208570Y0188312D02*
X0213770Y0188312D01*
X0213770Y0171816D02*
X0208570Y0171816D01*
X0208570Y0155320D02*
X0213770Y0155320D01*
D12*
X0179791Y0157069D02*
X0179791Y0163069D01*
X0161991Y0163069D02*
X0161991Y0157069D01*
X0144358Y0157069D02*
X0144358Y0163069D01*
X0126558Y0163069D02*
X0126558Y0157069D01*
X0108925Y0157069D02*
X0108925Y0163069D01*
X0091125Y0163069D02*
X0091125Y0157069D01*
X0073492Y0157069D02*
X0073492Y0163069D01*
X0073492Y0174776D02*
X0073492Y0180776D01*
X0091125Y0180776D02*
X0091125Y0174776D01*
X0108925Y0174776D02*
X0108925Y0180776D01*
X0126558Y0180776D02*
X0126558Y0174776D01*
X0144358Y0174776D02*
X0144358Y0180776D01*
X0161991Y0180776D02*
X0161991Y0174776D01*
X0179791Y0174776D02*
X0179791Y0180776D01*
X0179791Y0200376D02*
X0179791Y0206376D01*
X0161991Y0206376D02*
X0161991Y0200376D01*
X0144358Y0200376D02*
X0144358Y0206376D01*
X0126558Y0206376D02*
X0126558Y0200376D01*
X0108925Y0200376D02*
X0108925Y0206376D01*
X0091125Y0206376D02*
X0091125Y0200376D01*
X0073492Y0200376D02*
X0073492Y0206376D01*
X0055692Y0206376D02*
X0055692Y0200376D01*
X0055692Y0180776D02*
X0055692Y0174776D01*
X0055692Y0163069D02*
X0055692Y0157069D01*
X0055692Y0137469D02*
X0055692Y0131469D01*
X0055692Y0119762D02*
X0055692Y0113762D01*
X0038059Y0113762D02*
X0038059Y0119762D01*
X0020259Y0119762D02*
X0020259Y0113762D01*
X0020259Y0094162D02*
X0020259Y0088162D01*
X0038059Y0088162D02*
X0038059Y0094162D01*
X0055692Y0094162D02*
X0055692Y0088162D01*
X0073492Y0088162D02*
X0073492Y0094162D01*
X0091125Y0094162D02*
X0091125Y0088162D01*
X0108925Y0088162D02*
X0108925Y0094162D01*
X0126558Y0094162D02*
X0126558Y0088162D01*
X0144358Y0088162D02*
X0144358Y0094162D01*
X0161991Y0094162D02*
X0161991Y0088162D01*
X0179791Y0088162D02*
X0179791Y0094162D01*
X0179791Y0113762D02*
X0179791Y0119762D01*
X0161991Y0119762D02*
X0161991Y0113762D01*
X0144358Y0113762D02*
X0144358Y0119762D01*
X0126558Y0119762D02*
X0126558Y0113762D01*
X0108925Y0113762D02*
X0108925Y0119762D01*
X0091125Y0119762D02*
X0091125Y0113762D01*
X0073492Y0113762D02*
X0073492Y0119762D01*
X0073492Y0131469D02*
X0073492Y0137469D01*
X0091125Y0137469D02*
X0091125Y0131469D01*
X0108925Y0131469D02*
X0108925Y0137469D01*
X0126558Y0137469D02*
X0126558Y0131469D01*
X0144358Y0131469D02*
X0144358Y0137469D01*
X0161991Y0137469D02*
X0161991Y0131469D01*
X0179791Y0131469D02*
X0179791Y0137469D01*
X0384427Y0132584D02*
X0390427Y0132584D01*
X0390427Y0122584D02*
X0384427Y0122584D01*
X0384427Y0112584D02*
X0390427Y0112584D01*
X0390427Y0102584D02*
X0384427Y0102584D01*
X0384427Y0092584D02*
X0390427Y0092584D01*
X0390427Y0082584D02*
X0384427Y0082584D01*
X0384427Y0072584D02*
X0390427Y0072584D01*
X0390427Y0062584D02*
X0384427Y0062584D01*
X0384427Y0052584D02*
X0390427Y0052584D01*
X0390427Y0142584D02*
X0384427Y0142584D01*
X0384427Y0152584D02*
X0390427Y0152584D01*
X0390427Y0162584D02*
X0384427Y0162584D01*
X0384427Y0172584D02*
X0390427Y0172584D01*
X0390427Y0182584D02*
X0384427Y0182584D01*
X0384427Y0192584D02*
X0390427Y0192584D01*
X0390427Y0202584D02*
X0384427Y0202584D01*
D13*
X0353620Y0048844D03*
X0334620Y0048844D03*
D14*
X0042307Y0197590D02*
X0042307Y0203527D01*
X0013567Y0203527D02*
X0013567Y0197590D01*
D15*
X0024787Y0185401D03*
X0031087Y0185401D03*
X0034236Y0180676D03*
X0027937Y0180676D03*
X0021638Y0180676D03*
D16*
X0103962Y0190576D03*
X0129061Y0143332D03*
X0175813Y0126600D03*
X0222072Y0157112D03*
X0292939Y0139395D03*
X0193037Y0082309D03*
X0168431Y0092643D03*
X0137919Y0070006D03*
X0072466Y0100517D03*
X0046876Y0128569D03*
X0050813Y0057702D03*
X0292939Y0053273D03*
X0318037Y0067053D03*
D17*
X0023537Y0055937D03*
X0011537Y0055937D03*
M02*
