G75*
%MOIN*%
%OFA0B0*%
%FSLAX25Y25*%
%IPPOS*%
%LPD*%
%AMOC8*
5,1,8,0,0,1.08239X$1,22.5*
%
%ADD10C,0.00000*%
%ADD11OC8,0.05200*%
%ADD12C,0.05200*%
%ADD13R,0.01575X0.05906*%
%ADD14C,0.06000*%
%ADD15C,0.05200*%
%ADD16C,0.05937*%
%ADD17C,0.04756*%
%ADD18C,0.01200*%
%ADD19C,0.04000*%
%ADD20C,0.03962*%
D10*
X0005537Y0005537D02*
X0005537Y0214198D01*
X0399238Y0214198D01*
X0399238Y0005537D01*
X0005537Y0005537D01*
D11*
X0076403Y0032033D03*
X0076403Y0042033D03*
X0092151Y0042033D03*
X0092151Y0032033D03*
X0107899Y0032033D03*
X0107899Y0042033D03*
X0123647Y0042033D03*
X0123647Y0032033D03*
X0146364Y0053608D03*
X0146364Y0063608D03*
X0166364Y0063608D03*
X0166364Y0053608D03*
X0186364Y0053608D03*
X0186364Y0063608D03*
X0123647Y0059592D03*
X0111836Y0059592D03*
X0100025Y0059592D03*
X0088214Y0059592D03*
X0076403Y0059592D03*
X0076403Y0069592D03*
X0088214Y0069592D03*
X0100025Y0069592D03*
X0111836Y0069592D03*
X0123647Y0069592D03*
X0327309Y0029159D03*
X0337309Y0029159D03*
X0350931Y0029159D03*
X0360931Y0029159D03*
D12*
X0306602Y0031718D02*
X0301402Y0031718D01*
X0301402Y0041718D02*
X0306602Y0041718D01*
X0306602Y0051718D02*
X0301402Y0051718D01*
X0301402Y0061718D02*
X0306602Y0061718D01*
X0306602Y0071718D02*
X0301402Y0071718D01*
X0301402Y0081718D02*
X0306602Y0081718D01*
X0306602Y0091718D02*
X0301402Y0091718D01*
X0276602Y0091718D02*
X0271402Y0091718D01*
X0271402Y0081718D02*
X0276602Y0081718D01*
X0276602Y0071718D02*
X0271402Y0071718D01*
X0271402Y0061718D02*
X0276602Y0061718D01*
X0276602Y0051718D02*
X0271402Y0051718D01*
X0271402Y0041718D02*
X0276602Y0041718D01*
X0276602Y0031718D02*
X0271402Y0031718D01*
X0271402Y0021718D02*
X0276602Y0021718D01*
X0253770Y0023351D02*
X0248570Y0023351D01*
X0248570Y0039847D02*
X0253770Y0039847D01*
X0253770Y0056343D02*
X0248570Y0056343D01*
X0248570Y0072839D02*
X0253770Y0072839D01*
X0253770Y0089335D02*
X0248570Y0089335D01*
X0248570Y0105831D02*
X0253770Y0105831D01*
X0253770Y0122328D02*
X0248570Y0122328D01*
X0271402Y0131954D02*
X0276602Y0131954D01*
X0276602Y0141954D02*
X0271402Y0141954D01*
X0271402Y0151954D02*
X0276602Y0151954D01*
X0276602Y0161954D02*
X0271402Y0161954D01*
X0271402Y0171954D02*
X0276602Y0171954D01*
X0276602Y0181954D02*
X0271402Y0181954D01*
X0271402Y0191954D02*
X0276602Y0191954D01*
X0276602Y0201954D02*
X0271402Y0201954D01*
X0253770Y0204808D02*
X0248570Y0204808D01*
X0248570Y0188312D02*
X0253770Y0188312D01*
X0253770Y0171816D02*
X0248570Y0171816D01*
X0248570Y0155320D02*
X0253770Y0155320D01*
X0253770Y0138824D02*
X0248570Y0138824D01*
X0213770Y0138824D02*
X0208570Y0138824D01*
X0208570Y0122328D02*
X0213770Y0122328D01*
X0213770Y0105831D02*
X0208570Y0105831D01*
X0208570Y0089335D02*
X0213770Y0089335D01*
X0213770Y0072839D02*
X0208570Y0072839D01*
X0208570Y0056343D02*
X0213770Y0056343D01*
X0213770Y0039847D02*
X0208570Y0039847D01*
X0208570Y0023351D02*
X0213770Y0023351D01*
X0301402Y0021718D02*
X0306602Y0021718D01*
X0326520Y0070458D02*
X0331720Y0070458D01*
X0331720Y0080458D02*
X0326520Y0080458D01*
X0326520Y0090458D02*
X0331720Y0090458D01*
X0331720Y0100458D02*
X0326520Y0100458D01*
X0326520Y0110458D02*
X0331720Y0110458D01*
X0331720Y0120458D02*
X0326520Y0120458D01*
X0326520Y0130458D02*
X0331720Y0130458D01*
X0331720Y0140458D02*
X0326520Y0140458D01*
X0326520Y0150458D02*
X0331720Y0150458D01*
X0331720Y0160458D02*
X0326520Y0160458D01*
X0326520Y0170458D02*
X0331720Y0170458D01*
X0331720Y0180458D02*
X0326520Y0180458D01*
X0326520Y0190458D02*
X0331720Y0190458D01*
X0331720Y0200458D02*
X0326520Y0200458D01*
X0306602Y0201954D02*
X0301402Y0201954D01*
X0301402Y0191954D02*
X0306602Y0191954D01*
X0306602Y0181954D02*
X0301402Y0181954D01*
X0301402Y0171954D02*
X0306602Y0171954D01*
X0306602Y0161954D02*
X0301402Y0161954D01*
X0301402Y0151954D02*
X0306602Y0151954D01*
X0306602Y0141954D02*
X0301402Y0141954D01*
X0301402Y0131954D02*
X0306602Y0131954D01*
X0356520Y0130458D02*
X0361720Y0130458D01*
X0361720Y0120458D02*
X0356520Y0120458D01*
X0356520Y0110458D02*
X0361720Y0110458D01*
X0361720Y0100458D02*
X0356520Y0100458D01*
X0356520Y0090458D02*
X0361720Y0090458D01*
X0361720Y0080458D02*
X0356520Y0080458D01*
X0356520Y0070458D02*
X0361720Y0070458D01*
X0361720Y0140458D02*
X0356520Y0140458D01*
X0356520Y0150458D02*
X0361720Y0150458D01*
X0361720Y0160458D02*
X0356520Y0160458D01*
X0356520Y0170458D02*
X0361720Y0170458D01*
X0361720Y0180458D02*
X0356520Y0180458D01*
X0356520Y0190458D02*
X0361720Y0190458D01*
X0361720Y0200458D02*
X0356520Y0200458D01*
X0213770Y0204808D02*
X0208570Y0204808D01*
X0208570Y0188312D02*
X0213770Y0188312D01*
X0213770Y0171816D02*
X0208570Y0171816D01*
X0208570Y0155320D02*
X0213770Y0155320D01*
D13*
X0053234Y0064257D03*
X0050675Y0064257D03*
X0048116Y0064257D03*
X0045557Y0064257D03*
X0042998Y0064257D03*
X0040439Y0064257D03*
X0037880Y0064257D03*
X0035320Y0064257D03*
X0032761Y0064257D03*
X0030202Y0064257D03*
X0027643Y0064257D03*
X0025084Y0064257D03*
X0022525Y0064257D03*
X0019966Y0064257D03*
X0019966Y0035714D03*
X0022525Y0035714D03*
X0025084Y0035714D03*
X0027643Y0035714D03*
X0030202Y0035714D03*
X0032761Y0035714D03*
X0035320Y0035714D03*
X0037880Y0035714D03*
X0040439Y0035714D03*
X0042998Y0035714D03*
X0045557Y0035714D03*
X0048116Y0035714D03*
X0050675Y0035714D03*
X0053234Y0035714D03*
D14*
X0055692Y0088162D02*
X0055692Y0094162D01*
X0038059Y0094162D02*
X0038059Y0088162D01*
X0020259Y0088162D02*
X0020259Y0094162D01*
X0020259Y0113762D02*
X0020259Y0119762D01*
X0038059Y0119762D02*
X0038059Y0113762D01*
X0055692Y0113762D02*
X0055692Y0119762D01*
X0055692Y0131469D02*
X0055692Y0137469D01*
X0073492Y0137469D02*
X0073492Y0131469D01*
X0091125Y0131469D02*
X0091125Y0137469D01*
X0108925Y0137469D02*
X0108925Y0131469D01*
X0108925Y0119762D02*
X0108925Y0113762D01*
X0091125Y0113762D02*
X0091125Y0119762D01*
X0073492Y0119762D02*
X0073492Y0113762D01*
X0073492Y0094162D02*
X0073492Y0088162D01*
X0091125Y0088162D02*
X0091125Y0094162D01*
X0108925Y0094162D02*
X0108925Y0088162D01*
X0126558Y0088162D02*
X0126558Y0094162D01*
X0144358Y0094162D02*
X0144358Y0088162D01*
X0161991Y0088162D02*
X0161991Y0094162D01*
X0179791Y0094162D02*
X0179791Y0088162D01*
X0179791Y0113762D02*
X0179791Y0119762D01*
X0161991Y0119762D02*
X0161991Y0113762D01*
X0144358Y0113762D02*
X0144358Y0119762D01*
X0126558Y0119762D02*
X0126558Y0113762D01*
X0126558Y0131469D02*
X0126558Y0137469D01*
X0144358Y0137469D02*
X0144358Y0131469D01*
X0161991Y0131469D02*
X0161991Y0137469D01*
X0179791Y0137469D02*
X0179791Y0131469D01*
X0179791Y0157069D02*
X0179791Y0163069D01*
X0161991Y0163069D02*
X0161991Y0157069D01*
X0144358Y0157069D02*
X0144358Y0163069D01*
X0126558Y0163069D02*
X0126558Y0157069D01*
X0108925Y0157069D02*
X0108925Y0163069D01*
X0091125Y0163069D02*
X0091125Y0157069D01*
X0073492Y0157069D02*
X0073492Y0163069D01*
X0073492Y0174776D02*
X0073492Y0180776D01*
X0091125Y0180776D02*
X0091125Y0174776D01*
X0108925Y0174776D02*
X0108925Y0180776D01*
X0126558Y0180776D02*
X0126558Y0174776D01*
X0144358Y0174776D02*
X0144358Y0180776D01*
X0161991Y0180776D02*
X0161991Y0174776D01*
X0179791Y0174776D02*
X0179791Y0180776D01*
X0179791Y0200376D02*
X0179791Y0206376D01*
X0161991Y0206376D02*
X0161991Y0200376D01*
X0144358Y0200376D02*
X0144358Y0206376D01*
X0126558Y0206376D02*
X0126558Y0200376D01*
X0108925Y0200376D02*
X0108925Y0206376D01*
X0091125Y0206376D02*
X0091125Y0200376D01*
X0073492Y0200376D02*
X0073492Y0206376D01*
X0055692Y0206376D02*
X0055692Y0200376D01*
X0055692Y0180776D02*
X0055692Y0174776D01*
X0055692Y0163069D02*
X0055692Y0157069D01*
X0384427Y0152584D02*
X0390427Y0152584D01*
X0390427Y0142584D02*
X0384427Y0142584D01*
X0384427Y0132584D02*
X0390427Y0132584D01*
X0390427Y0122584D02*
X0384427Y0122584D01*
X0384427Y0112584D02*
X0390427Y0112584D01*
X0390427Y0102584D02*
X0384427Y0102584D01*
X0384427Y0092584D02*
X0390427Y0092584D01*
X0390427Y0082584D02*
X0384427Y0082584D01*
X0384427Y0072584D02*
X0390427Y0072584D01*
X0390427Y0062584D02*
X0384427Y0062584D01*
X0384427Y0052584D02*
X0390427Y0052584D01*
X0390427Y0162584D02*
X0384427Y0162584D01*
X0384427Y0172584D02*
X0390427Y0172584D01*
X0390427Y0182584D02*
X0384427Y0182584D01*
X0384427Y0192584D02*
X0390427Y0192584D01*
X0390427Y0202584D02*
X0384427Y0202584D01*
D15*
X0353620Y0048844D03*
X0334620Y0048844D03*
D16*
X0042307Y0197590D02*
X0042307Y0203527D01*
X0013567Y0203527D02*
X0013567Y0197590D01*
D17*
X0024787Y0185401D03*
X0031087Y0185401D03*
X0034236Y0180676D03*
X0027937Y0180676D03*
X0021638Y0180676D03*
D18*
X0021285Y0180242D01*
X0021285Y0117250D01*
X0020301Y0117250D01*
X0020259Y0116762D01*
X0020301Y0116265D01*
X0020301Y0099041D01*
X0018332Y0099041D01*
X0014887Y0095596D01*
X0014887Y0031128D01*
X0026698Y0031128D01*
X0027683Y0032112D01*
X0027683Y0035557D01*
X0027643Y0035714D01*
X0027643Y0035714D01*
X0027643Y0031161D01*
X0026645Y0031161D01*
X0026558Y0031185D01*
X0026534Y0031161D01*
X0018516Y0031161D01*
X0017579Y0032099D01*
X0017579Y0035621D01*
X0017430Y0035937D01*
X0017579Y0036350D01*
X0017579Y0039330D01*
X0017609Y0039360D01*
X0017609Y0057424D01*
X0017551Y0057471D01*
X0017421Y0057471D01*
X0016857Y0058035D01*
X0016238Y0058538D01*
X0016224Y0058668D01*
X0015148Y0059744D01*
X0015148Y0084204D01*
X0016430Y0085486D01*
X0016359Y0085557D01*
X0015659Y0087247D01*
X0015659Y0095077D01*
X0016359Y0096768D01*
X0017653Y0098062D01*
X0019344Y0098762D01*
X0021174Y0098762D01*
X0022865Y0098062D01*
X0024159Y0096768D01*
X0024859Y0095077D01*
X0024859Y0088994D01*
X0025483Y0089618D01*
X0025483Y0177505D01*
X0024776Y0178212D01*
X0024728Y0178141D01*
X0024174Y0177587D01*
X0023522Y0177151D01*
X0022798Y0176851D01*
X0022030Y0176698D01*
X0021727Y0176698D01*
X0021727Y0180587D01*
X0021549Y0180587D01*
X0021549Y0176698D01*
X0021246Y0176698D01*
X0020477Y0176851D01*
X0019754Y0177151D01*
X0019737Y0177162D01*
X0019737Y0124337D01*
X0019859Y0124356D01*
X0019859Y0117162D01*
X0019859Y0116362D01*
X0020659Y0116362D01*
X0020659Y0109168D01*
X0021336Y0109275D01*
X0022025Y0109499D01*
X0022670Y0109828D01*
X0023256Y0110254D01*
X0023768Y0110766D01*
X0024193Y0111351D01*
X0024522Y0111996D01*
X0024746Y0112685D01*
X0024859Y0113400D01*
X0024859Y0116362D01*
X0020659Y0116362D01*
X0020659Y0117162D01*
X0024859Y0117162D01*
X0024859Y0120124D01*
X0024746Y0120839D01*
X0024522Y0121528D01*
X0024193Y0122173D01*
X0023768Y0122759D01*
X0023256Y0123271D01*
X0022670Y0123696D01*
X0022025Y0124025D01*
X0021336Y0124249D01*
X0020659Y0124356D01*
X0020659Y0117162D01*
X0019859Y0117162D01*
X0015659Y0117162D01*
X0015659Y0119348D01*
X0013737Y0117426D01*
X0013737Y0058801D01*
X0014573Y0057966D01*
X0015118Y0056649D01*
X0015118Y0055225D01*
X0014573Y0053908D01*
X0013566Y0052901D01*
X0012249Y0052356D01*
X0010825Y0052356D01*
X0010137Y0052641D01*
X0010137Y0010137D01*
X0394638Y0010137D01*
X0394638Y0050717D01*
X0394361Y0050173D01*
X0393935Y0049588D01*
X0393423Y0049076D01*
X0392838Y0048650D01*
X0392193Y0048321D01*
X0391504Y0048098D01*
X0390789Y0047984D01*
X0387827Y0047984D01*
X0387827Y0052184D01*
X0387027Y0052184D01*
X0387027Y0047984D01*
X0384065Y0047984D01*
X0383350Y0048098D01*
X0382661Y0048321D01*
X0382016Y0048650D01*
X0381430Y0049076D01*
X0380918Y0049588D01*
X0380492Y0050173D01*
X0380164Y0050818D01*
X0379940Y0051507D01*
X0379936Y0051530D01*
X0363240Y0034833D01*
X0309426Y0034833D01*
X0310162Y0034097D01*
X0310802Y0032554D01*
X0310802Y0030883D01*
X0310162Y0029339D01*
X0308981Y0028158D01*
X0307437Y0027518D01*
X0300566Y0027518D01*
X0299022Y0028158D01*
X0297841Y0029339D01*
X0297202Y0030883D01*
X0297202Y0032554D01*
X0297841Y0034097D01*
X0298577Y0034833D01*
X0279426Y0034833D01*
X0280162Y0034097D01*
X0280802Y0032554D01*
X0280802Y0030883D01*
X0280162Y0029339D01*
X0278981Y0028158D01*
X0277437Y0027518D01*
X0270566Y0027518D01*
X0269022Y0028158D01*
X0267841Y0029339D01*
X0267202Y0030883D01*
X0267202Y0032554D01*
X0267841Y0034097D01*
X0268737Y0034993D01*
X0267609Y0036122D01*
X0267609Y0036122D01*
X0261515Y0042215D01*
X0257335Y0042215D01*
X0257970Y0040683D01*
X0257970Y0039012D01*
X0257331Y0037468D01*
X0256149Y0036287D01*
X0254606Y0035647D01*
X0247735Y0035647D01*
X0246191Y0036287D01*
X0245009Y0037468D01*
X0244370Y0039012D01*
X0244370Y0040683D01*
X0245005Y0042215D01*
X0217335Y0042215D01*
X0217970Y0040683D01*
X0217970Y0039012D01*
X0217331Y0037468D01*
X0216149Y0036287D01*
X0214606Y0035647D01*
X0207735Y0035647D01*
X0206191Y0036287D01*
X0205009Y0037468D01*
X0204370Y0039012D01*
X0204370Y0040683D01*
X0205005Y0042215D01*
X0140945Y0042215D01*
X0137008Y0046152D01*
X0125468Y0046152D01*
X0127466Y0044154D01*
X0128988Y0044154D01*
X0130276Y0042866D01*
X0130276Y0029232D01*
X0128988Y0027943D01*
X0126527Y0025483D01*
X0031693Y0025483D01*
X0030404Y0026771D01*
X0030404Y0031161D01*
X0028752Y0031161D01*
X0028729Y0031185D01*
X0028641Y0031161D01*
X0027643Y0031161D01*
X0027643Y0035714D01*
X0027683Y0036049D01*
X0027683Y0040478D01*
X0044415Y0040478D01*
X0045399Y0039494D01*
X0045891Y0039494D01*
X0046876Y0040478D01*
X0071974Y0040478D01*
X0074927Y0037525D01*
X0096580Y0037525D01*
X0096580Y0043923D01*
X0091659Y0048844D01*
X0038017Y0048844D01*
X0038017Y0064100D01*
X0037880Y0064257D01*
X0037880Y0059705D01*
X0038878Y0059705D01*
X0038965Y0059728D01*
X0038988Y0059705D01*
X0043199Y0059705D01*
X0043199Y0052854D01*
X0044488Y0051565D01*
X0071901Y0051565D01*
X0075728Y0055392D01*
X0078143Y0055392D01*
X0080222Y0057471D01*
X0084396Y0057471D01*
X0086474Y0055392D01*
X0089954Y0055392D01*
X0092414Y0057852D01*
X0092414Y0061332D01*
X0089954Y0063792D01*
X0086474Y0063792D01*
X0084553Y0061871D01*
X0080064Y0061871D01*
X0078143Y0063792D01*
X0074663Y0063792D01*
X0072203Y0061332D01*
X0072203Y0058090D01*
X0070078Y0055965D01*
X0053990Y0055965D01*
X0054413Y0056986D01*
X0054413Y0058418D01*
X0053880Y0059705D01*
X0054684Y0059705D01*
X0055621Y0060642D01*
X0055621Y0063829D01*
X0069440Y0077648D01*
X0070729Y0078937D01*
X0070729Y0084420D01*
X0070886Y0084263D01*
X0072577Y0083562D01*
X0074407Y0083562D01*
X0076098Y0084263D01*
X0077392Y0085557D01*
X0078092Y0087247D01*
X0078092Y0091288D01*
X0093208Y0076172D01*
X0204429Y0076172D01*
X0205196Y0075405D01*
X0205009Y0075218D01*
X0204491Y0073966D01*
X0202314Y0076143D01*
X0114862Y0076143D01*
X0113573Y0074854D01*
X0112512Y0073792D01*
X0110097Y0073792D01*
X0107636Y0071332D01*
X0107636Y0067852D01*
X0109189Y0066300D01*
X0106350Y0066300D01*
X0104225Y0068425D01*
X0104225Y0071332D01*
X0101765Y0073792D01*
X0098285Y0073792D01*
X0095825Y0071332D01*
X0095825Y0067852D01*
X0098285Y0065392D01*
X0101035Y0065392D01*
X0103239Y0063189D01*
X0104527Y0061900D01*
X0108204Y0061900D01*
X0107636Y0061332D01*
X0107636Y0057852D01*
X0110097Y0055392D01*
X0113576Y0055392D01*
X0116036Y0057852D01*
X0116036Y0061332D01*
X0115468Y0061900D01*
X0120015Y0061900D01*
X0119447Y0061332D01*
X0119447Y0057852D01*
X0121908Y0055392D01*
X0125387Y0055392D01*
X0127847Y0057852D01*
X0127847Y0058757D01*
X0136053Y0050552D01*
X0097796Y0050552D01*
X0097796Y0055882D01*
X0098285Y0055392D01*
X0101765Y0055392D01*
X0104225Y0057852D01*
X0104225Y0061332D01*
X0101765Y0063792D01*
X0098285Y0063792D01*
X0097666Y0063173D01*
X0096507Y0064331D01*
X0092414Y0068425D01*
X0092414Y0071332D01*
X0089954Y0073792D01*
X0086474Y0073792D01*
X0084014Y0071332D01*
X0084014Y0067852D01*
X0086474Y0065392D01*
X0089224Y0065392D01*
X0093396Y0061220D01*
X0093396Y0047441D01*
X0094685Y0046152D01*
X0106078Y0046152D01*
X0103699Y0043773D01*
X0103699Y0040293D01*
X0106160Y0037833D01*
X0109639Y0037833D01*
X0111560Y0039754D01*
X0119986Y0039754D01*
X0121908Y0037833D01*
X0125387Y0037833D01*
X0125876Y0038323D01*
X0125876Y0035744D01*
X0125387Y0036233D01*
X0123847Y0036233D01*
X0123847Y0032233D01*
X0123447Y0032233D01*
X0123447Y0031833D01*
X0119447Y0031833D01*
X0119447Y0030293D01*
X0119858Y0029883D01*
X0111688Y0029883D01*
X0112099Y0030293D01*
X0112099Y0031833D01*
X0108099Y0031833D01*
X0108099Y0032233D01*
X0107699Y0032233D01*
X0107699Y0031833D01*
X0103699Y0031833D01*
X0103699Y0030293D01*
X0104110Y0029883D01*
X0095940Y0029883D01*
X0096351Y0030293D01*
X0096351Y0031833D01*
X0092351Y0031833D01*
X0092351Y0032233D01*
X0091951Y0032233D01*
X0091951Y0031833D01*
X0087951Y0031833D01*
X0087951Y0030293D01*
X0088362Y0029883D01*
X0080192Y0029883D01*
X0080603Y0030293D01*
X0080603Y0033773D01*
X0078143Y0036233D01*
X0074663Y0036233D01*
X0072203Y0033773D01*
X0072203Y0030293D01*
X0072614Y0029883D01*
X0034804Y0029883D01*
X0034804Y0031161D01*
X0035320Y0031161D01*
X0035320Y0035714D01*
X0035321Y0035714D01*
X0035321Y0031161D01*
X0036319Y0031161D01*
X0036406Y0031185D01*
X0036429Y0031161D01*
X0044448Y0031161D01*
X0044471Y0031185D01*
X0044559Y0031161D01*
X0045557Y0031161D01*
X0046555Y0031161D01*
X0046836Y0031237D01*
X0047118Y0031161D01*
X0048116Y0031161D01*
X0049114Y0031161D01*
X0049201Y0031185D01*
X0049225Y0031161D01*
X0054684Y0031161D01*
X0055621Y0032099D01*
X0055621Y0039330D01*
X0054684Y0040267D01*
X0049225Y0040267D01*
X0049201Y0040243D01*
X0049114Y0040267D01*
X0048116Y0040267D01*
X0048116Y0035714D01*
X0048116Y0031161D01*
X0048116Y0035714D01*
X0048116Y0035714D01*
X0047860Y0036049D01*
X0045891Y0036049D01*
X0045557Y0035714D01*
X0045557Y0035714D01*
X0045728Y0035714D01*
X0048116Y0035714D01*
X0048116Y0035714D01*
X0048116Y0035714D01*
X0048116Y0040267D01*
X0047118Y0040267D01*
X0046836Y0040191D01*
X0046555Y0040267D01*
X0045557Y0040267D01*
X0045557Y0035714D01*
X0045557Y0031161D01*
X0045557Y0035714D01*
X0045557Y0035714D01*
X0048116Y0035714D01*
X0048116Y0035500D02*
X0048116Y0035500D01*
X0048116Y0036698D02*
X0048116Y0036698D01*
X0048116Y0037897D02*
X0048116Y0037897D01*
X0048116Y0039095D02*
X0048116Y0039095D01*
X0045557Y0039095D02*
X0045557Y0039095D01*
X0045399Y0039494D02*
X0045399Y0036049D01*
X0045557Y0035714D01*
X0045557Y0035714D01*
X0045557Y0040267D01*
X0044559Y0040267D01*
X0044471Y0040243D01*
X0044448Y0040267D01*
X0036429Y0040267D01*
X0036406Y0040243D01*
X0036319Y0040267D01*
X0035321Y0040267D01*
X0035321Y0035714D01*
X0035320Y0035714D01*
X0035320Y0040267D01*
X0034322Y0040267D01*
X0034235Y0040243D01*
X0034212Y0040267D01*
X0028752Y0040267D01*
X0028729Y0040243D01*
X0028641Y0040267D01*
X0027643Y0040267D01*
X0027422Y0040267D01*
X0027422Y0044183D01*
X0072614Y0044183D01*
X0072203Y0043773D01*
X0072203Y0040293D01*
X0074663Y0037833D01*
X0078143Y0037833D01*
X0080603Y0040293D01*
X0080603Y0043773D01*
X0080192Y0044183D01*
X0087303Y0044183D01*
X0087951Y0043535D01*
X0087951Y0040293D01*
X0090411Y0037833D01*
X0093891Y0037833D01*
X0096351Y0040293D01*
X0096351Y0043773D01*
X0093891Y0046233D01*
X0091476Y0046233D01*
X0089125Y0048583D01*
X0024725Y0048583D01*
X0024725Y0052553D01*
X0025566Y0052901D01*
X0026573Y0053908D01*
X0027118Y0055225D01*
X0027118Y0056649D01*
X0026573Y0057966D01*
X0025566Y0058973D01*
X0024249Y0059518D01*
X0022825Y0059518D01*
X0022009Y0059180D01*
X0022009Y0059382D01*
X0021917Y0059474D01*
X0021903Y0059603D01*
X0021779Y0059705D01*
X0036771Y0059705D01*
X0036794Y0059728D01*
X0036881Y0059705D01*
X0037879Y0059705D01*
X0037879Y0064257D01*
X0037880Y0064257D01*
X0037880Y0064258D02*
X0037879Y0064258D01*
X0037879Y0068810D01*
X0036881Y0068810D01*
X0036794Y0068787D01*
X0036771Y0068810D01*
X0019548Y0068810D01*
X0019548Y0081093D01*
X0023181Y0081093D01*
X0028594Y0086506D01*
X0029883Y0087795D01*
X0029883Y0177177D01*
X0030190Y0177304D01*
X0031087Y0178200D01*
X0031983Y0177304D01*
X0033445Y0176698D01*
X0035027Y0176698D01*
X0036490Y0177304D01*
X0037609Y0178423D01*
X0038214Y0179885D01*
X0038214Y0181468D01*
X0037609Y0182930D01*
X0036490Y0184049D01*
X0035065Y0184639D01*
X0035065Y0186192D01*
X0034459Y0187654D01*
X0033340Y0188773D01*
X0031878Y0189379D01*
X0030295Y0189379D01*
X0030242Y0189357D01*
X0029550Y0190048D01*
X0028262Y0191337D01*
X0021426Y0191337D01*
X0016626Y0186537D01*
X0015337Y0185248D01*
X0015337Y0125248D01*
X0010626Y0120537D01*
X0010137Y0120048D01*
X0010137Y0194559D01*
X0010979Y0193717D01*
X0012658Y0193021D01*
X0014476Y0193021D01*
X0016155Y0193717D01*
X0017440Y0195002D01*
X0018135Y0196681D01*
X0018135Y0204436D01*
X0017440Y0206115D01*
X0016155Y0207400D01*
X0014476Y0208095D01*
X0012658Y0208095D01*
X0010979Y0207400D01*
X0010137Y0206558D01*
X0010137Y0209598D01*
X0052409Y0209598D01*
X0051792Y0208982D01*
X0051092Y0207291D01*
X0051092Y0199461D01*
X0051792Y0197771D01*
X0053086Y0196477D01*
X0054777Y0195776D01*
X0056607Y0195776D01*
X0058298Y0196477D01*
X0058908Y0197087D01*
X0071192Y0184803D01*
X0070886Y0184676D01*
X0069592Y0183382D01*
X0068892Y0181691D01*
X0068892Y0173861D01*
X0069592Y0172171D01*
X0070886Y0170877D01*
X0072577Y0170176D01*
X0074407Y0170176D01*
X0076098Y0170877D01*
X0077392Y0172171D01*
X0078092Y0173861D01*
X0078092Y0181691D01*
X0077392Y0183382D01*
X0076334Y0184439D01*
X0088283Y0184439D01*
X0087226Y0183382D01*
X0086525Y0181691D01*
X0086525Y0173861D01*
X0087226Y0172171D01*
X0088520Y0170877D01*
X0090210Y0170176D01*
X0092040Y0170176D01*
X0093731Y0170877D01*
X0095025Y0172171D01*
X0095725Y0173861D01*
X0095725Y0181691D01*
X0095025Y0183382D01*
X0093968Y0184439D01*
X0106083Y0184439D01*
X0105026Y0183382D01*
X0104325Y0181691D01*
X0104325Y0173861D01*
X0105026Y0172171D01*
X0106320Y0170877D01*
X0108010Y0170176D01*
X0109840Y0170176D01*
X0111531Y0170877D01*
X0112825Y0172171D01*
X0113525Y0173861D01*
X0113525Y0181691D01*
X0112825Y0183382D01*
X0111768Y0184439D01*
X0123716Y0184439D01*
X0122659Y0183382D01*
X0121958Y0181691D01*
X0121958Y0173861D01*
X0122659Y0172171D01*
X0123953Y0170877D01*
X0125643Y0170176D01*
X0127473Y0170176D01*
X0129164Y0170877D01*
X0130458Y0172171D01*
X0131158Y0173861D01*
X0131158Y0181691D01*
X0130458Y0183382D01*
X0129401Y0184439D01*
X0141516Y0184439D01*
X0140459Y0183382D01*
X0139758Y0181691D01*
X0139758Y0173861D01*
X0140459Y0172171D01*
X0141753Y0170877D01*
X0143443Y0170176D01*
X0145273Y0170176D01*
X0146964Y0170877D01*
X0148258Y0172171D01*
X0148958Y0173861D01*
X0148958Y0181691D01*
X0148258Y0183382D01*
X0147201Y0184439D01*
X0159149Y0184439D01*
X0158092Y0183382D01*
X0157391Y0181691D01*
X0157391Y0173861D01*
X0158092Y0172171D01*
X0159386Y0170877D01*
X0161076Y0170176D01*
X0162906Y0170176D01*
X0164597Y0170877D01*
X0165891Y0172171D01*
X0166591Y0173861D01*
X0166591Y0181691D01*
X0165891Y0183382D01*
X0164834Y0184439D01*
X0176949Y0184439D01*
X0175892Y0183382D01*
X0175191Y0181691D01*
X0175191Y0173861D01*
X0175892Y0172171D01*
X0177186Y0170877D01*
X0178876Y0170176D01*
X0180706Y0170176D01*
X0182397Y0170877D01*
X0183691Y0172171D01*
X0184391Y0173861D01*
X0184391Y0181487D01*
X0217745Y0181487D01*
X0212275Y0176016D01*
X0207735Y0176016D01*
X0206191Y0175376D01*
X0205009Y0174195D01*
X0204370Y0172651D01*
X0204370Y0170980D01*
X0205009Y0169437D01*
X0206191Y0168255D01*
X0207735Y0167616D01*
X0214606Y0167616D01*
X0216149Y0168255D01*
X0217331Y0169437D01*
X0217970Y0170980D01*
X0217970Y0172651D01*
X0217331Y0174195D01*
X0217003Y0174522D01*
X0221507Y0179026D01*
X0222796Y0180315D01*
X0222796Y0209598D01*
X0394638Y0209598D01*
X0394638Y0204452D01*
X0394361Y0204995D01*
X0393935Y0205581D01*
X0393423Y0206093D01*
X0392838Y0206519D01*
X0392193Y0206847D01*
X0391504Y0207071D01*
X0390789Y0207184D01*
X0387827Y0207184D01*
X0387827Y0202984D01*
X0387027Y0202984D01*
X0387027Y0202184D01*
X0387827Y0202184D01*
X0387827Y0197984D01*
X0390789Y0197984D01*
X0391504Y0198098D01*
X0392193Y0198321D01*
X0392838Y0198650D01*
X0393423Y0199076D01*
X0393935Y0199588D01*
X0394361Y0200173D01*
X0394638Y0200717D01*
X0394638Y0194438D01*
X0394326Y0195190D01*
X0393032Y0196484D01*
X0391342Y0197184D01*
X0383512Y0197184D01*
X0381821Y0196484D01*
X0380527Y0195190D01*
X0379827Y0193499D01*
X0379827Y0191669D01*
X0380527Y0189979D01*
X0381138Y0189368D01*
X0365354Y0173583D01*
X0364944Y0173173D01*
X0364099Y0174019D01*
X0362555Y0174658D01*
X0355684Y0174658D01*
X0354141Y0174019D01*
X0352959Y0172837D01*
X0352320Y0171294D01*
X0352320Y0169623D01*
X0352959Y0168079D01*
X0354141Y0166898D01*
X0355684Y0166258D01*
X0362555Y0166258D01*
X0364065Y0166884D01*
X0364065Y0164033D01*
X0362555Y0164658D01*
X0355684Y0164658D01*
X0354141Y0164019D01*
X0352959Y0162837D01*
X0352320Y0161294D01*
X0352320Y0159623D01*
X0352959Y0158079D01*
X0354141Y0156898D01*
X0355684Y0156258D01*
X0362555Y0156258D01*
X0364065Y0156884D01*
X0364065Y0154033D01*
X0362555Y0154658D01*
X0355684Y0154658D01*
X0354141Y0154019D01*
X0352959Y0152837D01*
X0352320Y0151294D01*
X0352320Y0149623D01*
X0352959Y0148079D01*
X0354141Y0146898D01*
X0355684Y0146258D01*
X0362555Y0146258D01*
X0364065Y0146884D01*
X0364065Y0143945D01*
X0363921Y0144050D01*
X0363332Y0144351D01*
X0362703Y0144555D01*
X0362050Y0144658D01*
X0359320Y0144658D01*
X0359320Y0140658D01*
X0358920Y0140658D01*
X0358920Y0140258D01*
X0359320Y0140258D01*
X0359320Y0136258D01*
X0362050Y0136258D01*
X0362703Y0136362D01*
X0363332Y0136566D01*
X0363921Y0136866D01*
X0364065Y0136971D01*
X0364065Y0134705D01*
X0360433Y0134705D01*
X0360386Y0134658D01*
X0355684Y0134658D01*
X0354141Y0134019D01*
X0352959Y0132837D01*
X0352320Y0131294D01*
X0352320Y0129623D01*
X0352864Y0128308D01*
X0351082Y0128308D01*
X0349794Y0127019D01*
X0349794Y0092078D01*
X0338446Y0080730D01*
X0338446Y0100936D01*
X0337157Y0102225D01*
X0335534Y0102225D01*
X0335280Y0102837D01*
X0334099Y0104019D01*
X0332555Y0104658D01*
X0325684Y0104658D01*
X0324141Y0104019D01*
X0322959Y0102837D01*
X0322320Y0101294D01*
X0322320Y0099623D01*
X0322959Y0098079D01*
X0324141Y0096898D01*
X0325684Y0096258D01*
X0332555Y0096258D01*
X0334046Y0096876D01*
X0334046Y0094041D01*
X0332555Y0094658D01*
X0325684Y0094658D01*
X0324141Y0094019D01*
X0322959Y0092837D01*
X0322771Y0092383D01*
X0321063Y0092383D01*
X0319774Y0091094D01*
X0319774Y0081744D01*
X0310738Y0072707D01*
X0310162Y0074097D01*
X0308981Y0075279D01*
X0307437Y0075918D01*
X0301470Y0075918D01*
X0303070Y0077518D01*
X0307437Y0077518D01*
X0308981Y0078158D01*
X0310162Y0079339D01*
X0310802Y0080883D01*
X0310802Y0082554D01*
X0310162Y0084097D01*
X0308981Y0085279D01*
X0307437Y0085918D01*
X0300566Y0085918D01*
X0299022Y0085279D01*
X0297841Y0084097D01*
X0297202Y0082554D01*
X0297202Y0080883D01*
X0297738Y0079587D01*
X0280265Y0079587D01*
X0280802Y0080883D01*
X0280802Y0082554D01*
X0280162Y0084097D01*
X0278981Y0085279D01*
X0277437Y0085918D01*
X0270566Y0085918D01*
X0269022Y0085279D01*
X0267841Y0084097D01*
X0267202Y0082554D01*
X0267202Y0080883D01*
X0267738Y0079587D01*
X0255118Y0079587D01*
X0253829Y0078299D01*
X0252570Y0077039D01*
X0247735Y0077039D01*
X0246191Y0076400D01*
X0245009Y0075218D01*
X0244370Y0073675D01*
X0244370Y0072004D01*
X0245009Y0070460D01*
X0246191Y0069279D01*
X0246254Y0069253D01*
X0216086Y0069253D01*
X0216149Y0069279D01*
X0217331Y0070460D01*
X0217970Y0072004D01*
X0217970Y0073675D01*
X0217331Y0075218D01*
X0216149Y0076400D01*
X0214606Y0077039D01*
X0209784Y0077039D01*
X0207540Y0079283D01*
X0206251Y0080572D01*
X0196214Y0080572D01*
X0196637Y0081593D01*
X0196637Y0083025D01*
X0196089Y0084348D01*
X0195076Y0085361D01*
X0193753Y0085909D01*
X0192321Y0085909D01*
X0191317Y0085493D01*
X0183627Y0085493D01*
X0183691Y0085557D01*
X0184391Y0087247D01*
X0184391Y0095077D01*
X0183691Y0096768D01*
X0182397Y0098062D01*
X0180706Y0098762D01*
X0178876Y0098762D01*
X0177186Y0098062D01*
X0175892Y0096768D01*
X0175191Y0095077D01*
X0175191Y0087247D01*
X0175892Y0085557D01*
X0175955Y0085493D01*
X0165827Y0085493D01*
X0165891Y0085557D01*
X0166591Y0087247D01*
X0166591Y0089509D01*
X0167715Y0089043D01*
X0169147Y0089043D01*
X0170470Y0089591D01*
X0171483Y0090604D01*
X0172031Y0091927D01*
X0172031Y0093359D01*
X0171483Y0094683D01*
X0170631Y0095534D01*
X0170631Y0117669D01*
X0169342Y0118957D01*
X0166591Y0118957D01*
X0166591Y0120677D01*
X0165891Y0122368D01*
X0165827Y0122431D01*
X0171456Y0122431D01*
X0175191Y0118697D01*
X0175191Y0112847D01*
X0175892Y0111157D01*
X0177186Y0109863D01*
X0178876Y0109162D01*
X0180706Y0109162D01*
X0182397Y0109863D01*
X0183691Y0111157D01*
X0184391Y0112847D01*
X0184391Y0120677D01*
X0183691Y0122368D01*
X0182397Y0123662D01*
X0180706Y0124362D01*
X0178876Y0124362D01*
X0178517Y0124213D01*
X0178704Y0124400D01*
X0189173Y0124400D01*
X0205186Y0108387D01*
X0205009Y0108211D01*
X0204370Y0106667D01*
X0204370Y0104996D01*
X0205009Y0103452D01*
X0206191Y0102271D01*
X0207735Y0101631D01*
X0214606Y0101631D01*
X0216149Y0102271D01*
X0217331Y0103452D01*
X0217970Y0104996D01*
X0217970Y0106667D01*
X0217331Y0108211D01*
X0216149Y0109392D01*
X0214606Y0110031D01*
X0209764Y0110031D01*
X0192284Y0127511D01*
X0190996Y0128800D01*
X0183627Y0128800D01*
X0183691Y0128864D01*
X0184391Y0130554D01*
X0184391Y0138384D01*
X0183691Y0140075D01*
X0182634Y0141132D01*
X0189173Y0141132D01*
X0205304Y0125001D01*
X0205009Y0124707D01*
X0204370Y0123163D01*
X0204370Y0121492D01*
X0205009Y0119948D01*
X0206191Y0118767D01*
X0207735Y0118128D01*
X0214606Y0118128D01*
X0216149Y0118767D01*
X0217331Y0119948D01*
X0217970Y0121492D01*
X0217970Y0123163D01*
X0217331Y0124707D01*
X0216149Y0125888D01*
X0214606Y0126528D01*
X0210000Y0126528D01*
X0192284Y0144244D01*
X0191458Y0145069D01*
X0268577Y0145069D01*
X0267841Y0144333D01*
X0267726Y0144056D01*
X0265945Y0144056D01*
X0264656Y0142767D01*
X0264656Y0105858D01*
X0252334Y0093535D01*
X0247735Y0093535D01*
X0246191Y0092896D01*
X0245009Y0091715D01*
X0244370Y0090171D01*
X0244370Y0088500D01*
X0245009Y0086956D01*
X0246191Y0085775D01*
X0247735Y0085135D01*
X0254606Y0085135D01*
X0256149Y0085775D01*
X0257331Y0086956D01*
X0257970Y0088500D01*
X0257970Y0090171D01*
X0257331Y0091715D01*
X0257033Y0092012D01*
X0267767Y0102746D01*
X0269056Y0104035D01*
X0269056Y0128467D01*
X0269200Y0128362D01*
X0269789Y0128062D01*
X0270418Y0127858D01*
X0271071Y0127754D01*
X0273802Y0127754D01*
X0273802Y0131754D01*
X0274202Y0131754D01*
X0274202Y0132154D01*
X0280802Y0132154D01*
X0280802Y0132285D01*
X0280698Y0132938D01*
X0280494Y0133567D01*
X0280194Y0134156D01*
X0279805Y0134690D01*
X0279338Y0135158D01*
X0278803Y0135546D01*
X0278214Y0135847D01*
X0277585Y0136051D01*
X0276932Y0136154D01*
X0274202Y0136154D01*
X0274202Y0132154D01*
X0273802Y0132154D01*
X0273802Y0136154D01*
X0271071Y0136154D01*
X0270418Y0136051D01*
X0269789Y0135847D01*
X0269200Y0135546D01*
X0269056Y0135442D01*
X0269056Y0138380D01*
X0270566Y0137754D01*
X0277437Y0137754D01*
X0278981Y0138394D01*
X0280162Y0139575D01*
X0280802Y0141119D01*
X0280802Y0142790D01*
X0280162Y0144333D01*
X0279426Y0145069D01*
X0281547Y0145069D01*
X0297317Y0160840D01*
X0297841Y0159575D01*
X0299022Y0158394D01*
X0300566Y0157754D01*
X0302057Y0157754D01*
X0302057Y0156154D01*
X0300566Y0156154D01*
X0299022Y0155515D01*
X0297841Y0154333D01*
X0297661Y0153898D01*
X0292027Y0153898D01*
X0290739Y0152610D01*
X0290739Y0142286D01*
X0289887Y0141435D01*
X0289339Y0140111D01*
X0289339Y0138679D01*
X0289887Y0137356D01*
X0290899Y0136343D01*
X0292222Y0135795D01*
X0293655Y0135795D01*
X0294978Y0136343D01*
X0295991Y0137356D01*
X0296539Y0138679D01*
X0296539Y0140111D01*
X0295991Y0141435D01*
X0295139Y0142286D01*
X0295139Y0149498D01*
X0297918Y0149498D01*
X0299022Y0148394D01*
X0300566Y0147754D01*
X0307437Y0147754D01*
X0308981Y0148394D01*
X0310162Y0149575D01*
X0310802Y0151119D01*
X0310802Y0152790D01*
X0310162Y0154333D01*
X0308981Y0155515D01*
X0307437Y0156154D01*
X0306457Y0156154D01*
X0306457Y0157754D01*
X0307437Y0157754D01*
X0308981Y0158394D01*
X0309928Y0159341D01*
X0320917Y0159341D01*
X0322205Y0160630D01*
X0322320Y0160744D01*
X0322320Y0159623D01*
X0322959Y0158079D01*
X0324141Y0156898D01*
X0325684Y0156258D01*
X0332555Y0156258D01*
X0334099Y0156898D01*
X0335280Y0158079D01*
X0335395Y0158357D01*
X0339618Y0158357D01*
X0340906Y0159645D01*
X0340906Y0191980D01*
X0339618Y0193268D01*
X0335681Y0197205D01*
X0334407Y0197205D01*
X0335280Y0198079D01*
X0335920Y0199623D01*
X0335920Y0201294D01*
X0335280Y0202837D01*
X0334099Y0204019D01*
X0332555Y0204658D01*
X0325684Y0204658D01*
X0324141Y0204019D01*
X0322959Y0202837D01*
X0322320Y0201294D01*
X0322320Y0199623D01*
X0322959Y0198079D01*
X0323833Y0197205D01*
X0316141Y0197205D01*
X0314853Y0195917D01*
X0310802Y0191866D01*
X0310802Y0192790D01*
X0310162Y0194333D01*
X0308981Y0195515D01*
X0307437Y0196154D01*
X0302775Y0196154D01*
X0301175Y0197754D01*
X0307437Y0197754D01*
X0308981Y0198394D01*
X0310162Y0199575D01*
X0310802Y0201119D01*
X0310802Y0202790D01*
X0310162Y0204333D01*
X0308981Y0205515D01*
X0307437Y0206154D01*
X0300566Y0206154D01*
X0299022Y0205515D01*
X0297841Y0204333D01*
X0297202Y0202790D01*
X0297202Y0201119D01*
X0297841Y0199575D01*
X0298734Y0198682D01*
X0279269Y0198682D01*
X0280162Y0199575D01*
X0280802Y0201119D01*
X0280802Y0202790D01*
X0280162Y0204333D01*
X0278981Y0205515D01*
X0277437Y0206154D01*
X0270566Y0206154D01*
X0269022Y0205515D01*
X0267841Y0204333D01*
X0267202Y0202790D01*
X0267202Y0201119D01*
X0267841Y0199575D01*
X0268734Y0198682D01*
X0260385Y0198682D01*
X0256985Y0202083D01*
X0257331Y0202429D01*
X0257970Y0203972D01*
X0257970Y0205643D01*
X0257331Y0207187D01*
X0256149Y0208368D01*
X0254606Y0209008D01*
X0247735Y0209008D01*
X0246191Y0208368D01*
X0245009Y0207187D01*
X0244370Y0205643D01*
X0244370Y0203972D01*
X0245009Y0202429D01*
X0246191Y0201247D01*
X0247735Y0200608D01*
X0252237Y0200608D01*
X0257274Y0195571D01*
X0258563Y0194282D01*
X0267820Y0194282D01*
X0267202Y0192790D01*
X0267202Y0191119D01*
X0267841Y0189575D01*
X0269022Y0188394D01*
X0270566Y0187754D01*
X0277437Y0187754D01*
X0278981Y0188394D01*
X0280162Y0189575D01*
X0280802Y0191119D01*
X0280802Y0192790D01*
X0280184Y0194282D01*
X0297820Y0194282D01*
X0297202Y0192790D01*
X0297202Y0191119D01*
X0297841Y0189575D01*
X0299022Y0188394D01*
X0300566Y0187754D01*
X0306690Y0187754D01*
X0305090Y0186154D01*
X0300566Y0186154D01*
X0299022Y0185515D01*
X0297841Y0184333D01*
X0297202Y0182790D01*
X0297202Y0181119D01*
X0297841Y0179575D01*
X0297927Y0179489D01*
X0280076Y0179489D01*
X0280162Y0179575D01*
X0280802Y0181119D01*
X0280802Y0182790D01*
X0280162Y0184333D01*
X0278981Y0185515D01*
X0277437Y0186154D01*
X0270566Y0186154D01*
X0269022Y0185515D01*
X0267841Y0184333D01*
X0267202Y0182790D01*
X0267202Y0181119D01*
X0267841Y0179575D01*
X0267927Y0179489D01*
X0246752Y0179489D01*
X0245463Y0178200D01*
X0225502Y0158239D01*
X0225124Y0159151D01*
X0224112Y0160164D01*
X0222789Y0160712D01*
X0221584Y0160712D01*
X0220523Y0161772D01*
X0188189Y0161772D01*
X0184391Y0157975D01*
X0184391Y0163984D01*
X0183691Y0165675D01*
X0182397Y0166969D01*
X0180706Y0167669D01*
X0178876Y0167669D01*
X0177186Y0166969D01*
X0176817Y0166600D01*
X0173279Y0170139D01*
X0080413Y0170139D01*
X0079124Y0168850D01*
X0076671Y0166396D01*
X0076098Y0166969D01*
X0074407Y0167669D01*
X0072577Y0167669D01*
X0070886Y0166969D01*
X0069592Y0165675D01*
X0068892Y0163984D01*
X0068892Y0156154D01*
X0069592Y0154464D01*
X0070886Y0153170D01*
X0072577Y0152469D01*
X0074407Y0152469D01*
X0076098Y0153170D01*
X0077392Y0154464D01*
X0078092Y0156154D01*
X0078092Y0161595D01*
X0082236Y0165739D01*
X0087289Y0165739D01*
X0087226Y0165675D01*
X0086525Y0163984D01*
X0086525Y0156154D01*
X0087226Y0154464D01*
X0088520Y0153170D01*
X0090210Y0152469D01*
X0092040Y0152469D01*
X0093731Y0153170D01*
X0095025Y0154464D01*
X0095725Y0156154D01*
X0095725Y0163984D01*
X0095025Y0165675D01*
X0094961Y0165739D01*
X0100590Y0165739D01*
X0104325Y0162004D01*
X0104325Y0156154D01*
X0105026Y0154464D01*
X0106320Y0153170D01*
X0108010Y0152469D01*
X0109840Y0152469D01*
X0111531Y0153170D01*
X0112825Y0154464D01*
X0113525Y0156154D01*
X0113525Y0163984D01*
X0112825Y0165675D01*
X0112761Y0165739D01*
X0122722Y0165739D01*
X0122659Y0165675D01*
X0121958Y0163984D01*
X0121958Y0156154D01*
X0122659Y0154464D01*
X0123953Y0153170D01*
X0125643Y0152469D01*
X0127473Y0152469D01*
X0129164Y0153170D01*
X0130458Y0154464D01*
X0131158Y0156154D01*
X0131158Y0163984D01*
X0130458Y0165675D01*
X0130394Y0165739D01*
X0136023Y0165739D01*
X0139758Y0162004D01*
X0139758Y0156154D01*
X0140459Y0154464D01*
X0141753Y0153170D01*
X0143443Y0152469D01*
X0145273Y0152469D01*
X0146964Y0153170D01*
X0148258Y0154464D01*
X0148958Y0156154D01*
X0148958Y0163984D01*
X0148258Y0165675D01*
X0148194Y0165739D01*
X0158155Y0165739D01*
X0158092Y0165675D01*
X0157391Y0163984D01*
X0157391Y0156154D01*
X0158092Y0154464D01*
X0159386Y0153170D01*
X0161076Y0152469D01*
X0162906Y0152469D01*
X0164597Y0153170D01*
X0165207Y0153779D01*
X0167056Y0151930D01*
X0042027Y0151930D01*
X0040739Y0150641D01*
X0040739Y0123588D01*
X0040665Y0123662D01*
X0038974Y0124362D01*
X0037144Y0124362D01*
X0035453Y0123662D01*
X0034159Y0122368D01*
X0033459Y0120677D01*
X0033459Y0112847D01*
X0034159Y0111157D01*
X0035453Y0109863D01*
X0037144Y0109162D01*
X0038974Y0109162D01*
X0040665Y0109863D01*
X0040739Y0109936D01*
X0040739Y0097988D01*
X0040665Y0098062D01*
X0038974Y0098762D01*
X0037144Y0098762D01*
X0035453Y0098062D01*
X0034159Y0096768D01*
X0033459Y0095077D01*
X0033459Y0087247D01*
X0034159Y0085557D01*
X0035453Y0084263D01*
X0037144Y0083562D01*
X0038974Y0083562D01*
X0040665Y0084263D01*
X0040739Y0084336D01*
X0040739Y0068810D01*
X0038988Y0068810D01*
X0038965Y0068787D01*
X0038878Y0068810D01*
X0037880Y0068810D01*
X0037880Y0064258D01*
X0037879Y0064264D02*
X0037880Y0064264D01*
X0037879Y0063066D02*
X0037880Y0063066D01*
X0037879Y0061867D02*
X0037880Y0061867D01*
X0037879Y0060669D02*
X0037880Y0060669D01*
X0043199Y0059470D02*
X0024365Y0059470D01*
X0022709Y0059470D02*
X0021921Y0059470D01*
X0019809Y0058471D02*
X0018332Y0059671D01*
X0017348Y0060655D01*
X0017348Y0083293D01*
X0022269Y0083293D01*
X0027683Y0088706D01*
X0027683Y0180242D01*
X0027937Y0180676D01*
X0024865Y0178123D02*
X0024710Y0178123D01*
X0025483Y0176924D02*
X0022974Y0176924D01*
X0021727Y0176924D02*
X0021549Y0176924D01*
X0021549Y0178123D02*
X0021727Y0178123D01*
X0021727Y0179321D02*
X0021549Y0179321D01*
X0021549Y0180520D02*
X0021727Y0180520D01*
X0020302Y0176924D02*
X0019737Y0176924D01*
X0019737Y0175726D02*
X0025483Y0175726D01*
X0025483Y0174527D02*
X0019737Y0174527D01*
X0019737Y0173329D02*
X0025483Y0173329D01*
X0025483Y0172130D02*
X0019737Y0172130D01*
X0019737Y0170932D02*
X0025483Y0170932D01*
X0025483Y0169733D02*
X0019737Y0169733D01*
X0019737Y0168535D02*
X0025483Y0168535D01*
X0025483Y0167336D02*
X0019737Y0167336D01*
X0019737Y0166138D02*
X0025483Y0166138D01*
X0025483Y0164939D02*
X0019737Y0164939D01*
X0019737Y0163741D02*
X0025483Y0163741D01*
X0025483Y0162542D02*
X0019737Y0162542D01*
X0019737Y0161343D02*
X0025483Y0161343D01*
X0025483Y0160145D02*
X0019737Y0160145D01*
X0019737Y0158946D02*
X0025483Y0158946D01*
X0025483Y0157748D02*
X0019737Y0157748D01*
X0019737Y0156549D02*
X0025483Y0156549D01*
X0025483Y0155351D02*
X0019737Y0155351D01*
X0019737Y0154152D02*
X0025483Y0154152D01*
X0025483Y0152954D02*
X0019737Y0152954D01*
X0019737Y0151755D02*
X0025483Y0151755D01*
X0025483Y0150557D02*
X0019737Y0150557D01*
X0019737Y0149358D02*
X0025483Y0149358D01*
X0025483Y0148160D02*
X0019737Y0148160D01*
X0019737Y0146961D02*
X0025483Y0146961D01*
X0025483Y0145763D02*
X0019737Y0145763D01*
X0019737Y0144564D02*
X0025483Y0144564D01*
X0025483Y0143366D02*
X0019737Y0143366D01*
X0019737Y0142167D02*
X0025483Y0142167D01*
X0025483Y0140969D02*
X0019737Y0140969D01*
X0019737Y0139770D02*
X0025483Y0139770D01*
X0025483Y0138572D02*
X0019737Y0138572D01*
X0019737Y0137373D02*
X0025483Y0137373D01*
X0025483Y0136175D02*
X0019737Y0136175D01*
X0019737Y0134976D02*
X0025483Y0134976D01*
X0025483Y0133778D02*
X0019737Y0133778D01*
X0019737Y0132579D02*
X0025483Y0132579D01*
X0025483Y0131381D02*
X0019737Y0131381D01*
X0019737Y0130182D02*
X0025483Y0130182D01*
X0025483Y0128984D02*
X0019737Y0128984D01*
X0019737Y0127785D02*
X0025483Y0127785D01*
X0025483Y0126587D02*
X0019737Y0126587D01*
X0019737Y0125388D02*
X0025483Y0125388D01*
X0025483Y0124190D02*
X0021519Y0124190D01*
X0020659Y0124190D02*
X0019859Y0124190D01*
X0019859Y0122991D02*
X0020659Y0122991D01*
X0020659Y0121793D02*
X0019859Y0121793D01*
X0019859Y0120594D02*
X0020659Y0120594D01*
X0020659Y0119396D02*
X0019859Y0119396D01*
X0019859Y0118197D02*
X0020659Y0118197D01*
X0020659Y0116999D02*
X0025483Y0116999D01*
X0025483Y0118197D02*
X0024859Y0118197D01*
X0024859Y0119396D02*
X0025483Y0119396D01*
X0025483Y0120594D02*
X0024785Y0120594D01*
X0024387Y0121793D02*
X0025483Y0121793D01*
X0025483Y0122991D02*
X0023536Y0122991D01*
X0017537Y0124337D02*
X0011537Y0118337D01*
X0011537Y0055937D01*
X0015118Y0055874D02*
X0017609Y0055874D01*
X0017609Y0054676D02*
X0014891Y0054676D01*
X0014142Y0053477D02*
X0017609Y0053477D01*
X0017609Y0052279D02*
X0010137Y0052279D01*
X0010137Y0051080D02*
X0017609Y0051080D01*
X0017609Y0049882D02*
X0010137Y0049882D01*
X0010137Y0048683D02*
X0017609Y0048683D01*
X0017609Y0047485D02*
X0010137Y0047485D01*
X0010137Y0046286D02*
X0017609Y0046286D01*
X0017609Y0045088D02*
X0010137Y0045088D01*
X0010137Y0043889D02*
X0017609Y0043889D01*
X0017609Y0042691D02*
X0010137Y0042691D01*
X0010137Y0041492D02*
X0017609Y0041492D01*
X0017609Y0040294D02*
X0010137Y0040294D01*
X0010137Y0039095D02*
X0017579Y0039095D01*
X0017579Y0037897D02*
X0010137Y0037897D01*
X0010137Y0036698D02*
X0017579Y0036698D01*
X0017579Y0035500D02*
X0010137Y0035500D01*
X0010137Y0034301D02*
X0017579Y0034301D01*
X0017579Y0033103D02*
X0010137Y0033103D01*
X0010137Y0031904D02*
X0017773Y0031904D01*
X0019966Y0035714D02*
X0019809Y0036049D01*
X0019809Y0058471D01*
X0017609Y0057073D02*
X0014943Y0057073D01*
X0014267Y0058272D02*
X0016566Y0058272D01*
X0015422Y0059470D02*
X0013737Y0059470D01*
X0013737Y0060669D02*
X0015148Y0060669D01*
X0015148Y0061867D02*
X0013737Y0061867D01*
X0013737Y0063066D02*
X0015148Y0063066D01*
X0015148Y0064264D02*
X0013737Y0064264D01*
X0013737Y0065463D02*
X0015148Y0065463D01*
X0015148Y0066661D02*
X0013737Y0066661D01*
X0013737Y0067860D02*
X0015148Y0067860D01*
X0015148Y0069058D02*
X0013737Y0069058D01*
X0013737Y0070257D02*
X0015148Y0070257D01*
X0015148Y0071455D02*
X0013737Y0071455D01*
X0013737Y0072654D02*
X0015148Y0072654D01*
X0015148Y0073852D02*
X0013737Y0073852D01*
X0013737Y0075051D02*
X0015148Y0075051D01*
X0015148Y0076249D02*
X0013737Y0076249D01*
X0013737Y0077448D02*
X0015148Y0077448D01*
X0015148Y0078646D02*
X0013737Y0078646D01*
X0013737Y0079845D02*
X0015148Y0079845D01*
X0015148Y0081043D02*
X0013737Y0081043D01*
X0013737Y0082242D02*
X0015148Y0082242D01*
X0015148Y0083440D02*
X0013737Y0083440D01*
X0013737Y0084639D02*
X0015583Y0084639D01*
X0016243Y0085837D02*
X0013737Y0085837D01*
X0013737Y0087036D02*
X0015747Y0087036D01*
X0015659Y0088234D02*
X0013737Y0088234D01*
X0013737Y0089433D02*
X0015659Y0089433D01*
X0015659Y0090631D02*
X0013737Y0090631D01*
X0013737Y0091830D02*
X0015659Y0091830D01*
X0015659Y0093028D02*
X0013737Y0093028D01*
X0013737Y0094227D02*
X0015659Y0094227D01*
X0015803Y0095425D02*
X0013737Y0095425D01*
X0013737Y0096624D02*
X0016300Y0096624D01*
X0017414Y0097822D02*
X0013737Y0097822D01*
X0013737Y0099021D02*
X0025483Y0099021D01*
X0025483Y0100219D02*
X0013737Y0100219D01*
X0013737Y0101418D02*
X0025483Y0101418D01*
X0025483Y0102616D02*
X0013737Y0102616D01*
X0013737Y0103815D02*
X0025483Y0103815D01*
X0025483Y0105013D02*
X0013737Y0105013D01*
X0013737Y0106212D02*
X0025483Y0106212D01*
X0025483Y0107410D02*
X0013737Y0107410D01*
X0013737Y0108609D02*
X0025483Y0108609D01*
X0025483Y0109807D02*
X0022630Y0109807D01*
X0023942Y0111006D02*
X0025483Y0111006D01*
X0025483Y0112205D02*
X0024590Y0112205D01*
X0024859Y0113403D02*
X0025483Y0113403D01*
X0025483Y0114602D02*
X0024859Y0114602D01*
X0024859Y0115800D02*
X0025483Y0115800D01*
X0029883Y0115800D02*
X0033459Y0115800D01*
X0033459Y0114602D02*
X0029883Y0114602D01*
X0029883Y0113403D02*
X0033459Y0113403D01*
X0033725Y0112205D02*
X0029883Y0112205D01*
X0029883Y0111006D02*
X0034310Y0111006D01*
X0035586Y0109807D02*
X0029883Y0109807D01*
X0029883Y0108609D02*
X0040739Y0108609D01*
X0040739Y0109807D02*
X0040532Y0109807D01*
X0040739Y0107410D02*
X0029883Y0107410D01*
X0029883Y0106212D02*
X0040739Y0106212D01*
X0040739Y0105013D02*
X0029883Y0105013D01*
X0029883Y0103815D02*
X0040739Y0103815D01*
X0040739Y0102616D02*
X0029883Y0102616D01*
X0029883Y0101418D02*
X0040739Y0101418D01*
X0040739Y0100219D02*
X0029883Y0100219D01*
X0029883Y0099021D02*
X0040739Y0099021D01*
X0035214Y0097822D02*
X0029883Y0097822D01*
X0029883Y0096624D02*
X0034100Y0096624D01*
X0033603Y0095425D02*
X0029883Y0095425D01*
X0029883Y0094227D02*
X0033459Y0094227D01*
X0033459Y0093028D02*
X0029883Y0093028D01*
X0029883Y0091830D02*
X0033459Y0091830D01*
X0033459Y0090631D02*
X0029883Y0090631D01*
X0029883Y0089433D02*
X0033459Y0089433D01*
X0033459Y0088234D02*
X0029883Y0088234D01*
X0029123Y0087036D02*
X0033547Y0087036D01*
X0034043Y0085837D02*
X0027925Y0085837D01*
X0026726Y0084639D02*
X0035077Y0084639D01*
X0040739Y0083440D02*
X0025528Y0083440D01*
X0024329Y0082242D02*
X0040739Y0082242D01*
X0040739Y0081043D02*
X0019548Y0081043D01*
X0019548Y0079845D02*
X0040739Y0079845D01*
X0040739Y0078646D02*
X0019548Y0078646D01*
X0019548Y0077448D02*
X0040739Y0077448D01*
X0040739Y0076249D02*
X0019548Y0076249D01*
X0019548Y0075051D02*
X0040739Y0075051D01*
X0040739Y0073852D02*
X0019548Y0073852D01*
X0019548Y0072654D02*
X0040739Y0072654D01*
X0040739Y0071455D02*
X0019548Y0071455D01*
X0019548Y0070257D02*
X0040739Y0070257D01*
X0040739Y0069058D02*
X0019548Y0069058D01*
X0026267Y0058272D02*
X0043199Y0058272D01*
X0043199Y0057073D02*
X0026943Y0057073D01*
X0027118Y0055874D02*
X0043199Y0055874D01*
X0043199Y0054676D02*
X0026891Y0054676D01*
X0026142Y0053477D02*
X0043199Y0053477D01*
X0043774Y0052279D02*
X0024725Y0052279D01*
X0024725Y0051080D02*
X0093396Y0051080D01*
X0093396Y0049882D02*
X0024725Y0049882D01*
X0024725Y0048683D02*
X0093396Y0048683D01*
X0093396Y0047485D02*
X0090224Y0047485D01*
X0091423Y0046286D02*
X0094550Y0046286D01*
X0095036Y0045088D02*
X0105014Y0045088D01*
X0103816Y0043889D02*
X0096235Y0043889D01*
X0096351Y0042691D02*
X0103699Y0042691D01*
X0103699Y0041492D02*
X0096351Y0041492D01*
X0096351Y0040294D02*
X0103699Y0040294D01*
X0104897Y0039095D02*
X0095153Y0039095D01*
X0093955Y0037897D02*
X0106096Y0037897D01*
X0106160Y0036233D02*
X0103699Y0033773D01*
X0103699Y0032233D01*
X0107699Y0032233D01*
X0107699Y0036233D01*
X0106160Y0036233D01*
X0105426Y0035500D02*
X0094624Y0035500D01*
X0093891Y0036233D02*
X0092351Y0036233D01*
X0092351Y0032233D01*
X0096351Y0032233D01*
X0096351Y0033773D01*
X0093891Y0036233D01*
X0092351Y0035500D02*
X0091951Y0035500D01*
X0091951Y0036233D02*
X0090411Y0036233D01*
X0087951Y0033773D01*
X0087951Y0032233D01*
X0091951Y0032233D01*
X0091951Y0036233D01*
X0091951Y0034301D02*
X0092351Y0034301D01*
X0092351Y0033103D02*
X0091951Y0033103D01*
X0092151Y0032112D02*
X0092151Y0032033D01*
X0092151Y0032112D02*
X0096580Y0032112D01*
X0107899Y0032112D01*
X0107899Y0032033D01*
X0108391Y0032112D01*
X0123647Y0032112D01*
X0123647Y0032033D01*
X0123447Y0031904D02*
X0108099Y0031904D01*
X0108099Y0032233D02*
X0112099Y0032233D01*
X0112099Y0033773D01*
X0109639Y0036233D01*
X0108099Y0036233D01*
X0108099Y0032233D01*
X0107699Y0031904D02*
X0092351Y0031904D01*
X0091951Y0031904D02*
X0080603Y0031904D01*
X0080603Y0030706D02*
X0087951Y0030706D01*
X0087951Y0033103D02*
X0080603Y0033103D01*
X0080075Y0034301D02*
X0088480Y0034301D01*
X0089678Y0035500D02*
X0078876Y0035500D01*
X0078207Y0037897D02*
X0090348Y0037897D01*
X0089149Y0039095D02*
X0079405Y0039095D01*
X0080603Y0040294D02*
X0087951Y0040294D01*
X0087951Y0041492D02*
X0080603Y0041492D01*
X0080603Y0042691D02*
X0087951Y0042691D01*
X0087597Y0043889D02*
X0080487Y0043889D01*
X0088214Y0046383D02*
X0092151Y0042446D01*
X0092151Y0042033D01*
X0088214Y0046383D02*
X0025222Y0046383D01*
X0025222Y0036049D01*
X0025084Y0035714D01*
X0022525Y0035714D02*
X0022525Y0054925D01*
X0023537Y0055937D01*
X0037879Y0065463D02*
X0037880Y0065463D01*
X0037879Y0066661D02*
X0037880Y0066661D01*
X0037879Y0067860D02*
X0037880Y0067860D01*
X0042939Y0064592D02*
X0042998Y0064257D01*
X0042939Y0064592D02*
X0042939Y0149730D01*
X0220104Y0149730D01*
X0247663Y0177289D01*
X0325911Y0177289D01*
X0328864Y0180242D01*
X0329120Y0180458D01*
X0332309Y0174828D02*
X0336246Y0178765D01*
X0336246Y0190084D01*
X0329356Y0190084D01*
X0329120Y0190458D01*
X0334769Y0195006D02*
X0338706Y0191069D01*
X0338706Y0160557D01*
X0329356Y0160557D01*
X0329120Y0160458D01*
X0334949Y0157748D02*
X0353290Y0157748D01*
X0352600Y0158946D02*
X0340207Y0158946D01*
X0340906Y0160145D02*
X0352320Y0160145D01*
X0352340Y0161343D02*
X0340906Y0161343D01*
X0340906Y0162542D02*
X0352837Y0162542D01*
X0353862Y0163741D02*
X0340906Y0163741D01*
X0340906Y0164939D02*
X0364065Y0164939D01*
X0364065Y0166138D02*
X0340906Y0166138D01*
X0340906Y0167336D02*
X0353702Y0167336D01*
X0352770Y0168535D02*
X0340906Y0168535D01*
X0340906Y0169733D02*
X0352320Y0169733D01*
X0352320Y0170932D02*
X0340906Y0170932D01*
X0340906Y0172130D02*
X0352666Y0172130D01*
X0353450Y0173329D02*
X0340906Y0173329D01*
X0340906Y0174527D02*
X0355368Y0174527D01*
X0355684Y0176258D02*
X0362555Y0176258D01*
X0364099Y0176898D01*
X0365280Y0178079D01*
X0365920Y0179623D01*
X0365920Y0181294D01*
X0365280Y0182837D01*
X0364099Y0184019D01*
X0362555Y0184658D01*
X0355684Y0184658D01*
X0354141Y0184019D01*
X0352959Y0182837D01*
X0352320Y0181294D01*
X0352320Y0179623D01*
X0352959Y0178079D01*
X0354141Y0176898D01*
X0355684Y0176258D01*
X0354114Y0176924D02*
X0340906Y0176924D01*
X0340906Y0175726D02*
X0367496Y0175726D01*
X0368695Y0176924D02*
X0364125Y0176924D01*
X0365298Y0178123D02*
X0369893Y0178123D01*
X0371092Y0179321D02*
X0365795Y0179321D01*
X0365920Y0180520D02*
X0372290Y0180520D01*
X0373489Y0181718D02*
X0365744Y0181718D01*
X0365201Y0182917D02*
X0374687Y0182917D01*
X0375886Y0184115D02*
X0363866Y0184115D01*
X0363168Y0186512D02*
X0378283Y0186512D01*
X0377084Y0185314D02*
X0340906Y0185314D01*
X0340906Y0186512D02*
X0355071Y0186512D01*
X0355684Y0186258D02*
X0362555Y0186258D01*
X0364099Y0186898D01*
X0365280Y0188079D01*
X0365920Y0189623D01*
X0365920Y0191294D01*
X0365280Y0192837D01*
X0364099Y0194019D01*
X0362555Y0194658D01*
X0355684Y0194658D01*
X0354141Y0194019D01*
X0352959Y0192837D01*
X0352320Y0191294D01*
X0352320Y0189623D01*
X0352959Y0188079D01*
X0354141Y0186898D01*
X0355684Y0186258D01*
X0354373Y0184115D02*
X0340906Y0184115D01*
X0340906Y0182917D02*
X0353038Y0182917D01*
X0352496Y0181718D02*
X0340906Y0181718D01*
X0340906Y0180520D02*
X0352320Y0180520D01*
X0352445Y0179321D02*
X0340906Y0179321D01*
X0340906Y0178123D02*
X0352941Y0178123D01*
X0362872Y0174527D02*
X0366298Y0174527D01*
X0365099Y0173329D02*
X0364789Y0173329D01*
X0366265Y0171383D02*
X0366265Y0132506D01*
X0361344Y0132506D01*
X0359376Y0130537D01*
X0359120Y0130458D01*
X0352852Y0132579D02*
X0335353Y0132579D01*
X0335312Y0132660D02*
X0334923Y0133194D01*
X0334456Y0133662D01*
X0333921Y0134050D01*
X0333332Y0134351D01*
X0332703Y0134555D01*
X0332050Y0134658D01*
X0329320Y0134658D01*
X0329320Y0130658D01*
X0335920Y0130658D01*
X0335920Y0130789D01*
X0335816Y0131442D01*
X0335612Y0132071D01*
X0335312Y0132660D01*
X0335826Y0131381D02*
X0352356Y0131381D01*
X0352320Y0130182D02*
X0335920Y0130182D01*
X0335920Y0130128D02*
X0335816Y0129475D01*
X0335612Y0128846D01*
X0335312Y0128257D01*
X0334923Y0127722D01*
X0334456Y0127255D01*
X0333921Y0126866D01*
X0333332Y0126566D01*
X0332703Y0126362D01*
X0332050Y0126258D01*
X0329320Y0126258D01*
X0329320Y0130258D01*
X0329320Y0130658D01*
X0328920Y0130658D01*
X0328920Y0130258D01*
X0329320Y0130258D01*
X0335920Y0130258D01*
X0335920Y0130128D01*
X0335657Y0128984D02*
X0352584Y0128984D01*
X0350560Y0127785D02*
X0334969Y0127785D01*
X0333373Y0126587D02*
X0349794Y0126587D01*
X0349794Y0125388D02*
X0269056Y0125388D01*
X0269056Y0124190D02*
X0324553Y0124190D01*
X0324141Y0124019D02*
X0322959Y0122837D01*
X0322320Y0121294D01*
X0322320Y0119623D01*
X0322959Y0118079D01*
X0324141Y0116898D01*
X0325684Y0116258D01*
X0332555Y0116258D01*
X0334099Y0116898D01*
X0335280Y0118079D01*
X0335920Y0119623D01*
X0335920Y0121294D01*
X0335280Y0122837D01*
X0334099Y0124019D01*
X0332555Y0124658D01*
X0325684Y0124658D01*
X0324141Y0124019D01*
X0323113Y0122991D02*
X0269056Y0122991D01*
X0269056Y0121793D02*
X0322526Y0121793D01*
X0322320Y0120594D02*
X0269056Y0120594D01*
X0269056Y0119396D02*
X0322414Y0119396D01*
X0322910Y0118197D02*
X0269056Y0118197D01*
X0269056Y0116999D02*
X0324040Y0116999D01*
X0325547Y0114602D02*
X0269056Y0114602D01*
X0269056Y0115800D02*
X0349794Y0115800D01*
X0349794Y0114602D02*
X0332692Y0114602D01*
X0332555Y0114658D02*
X0334099Y0114019D01*
X0335280Y0112837D01*
X0335920Y0111294D01*
X0335920Y0109623D01*
X0335280Y0108079D01*
X0334099Y0106898D01*
X0332555Y0106258D01*
X0325684Y0106258D01*
X0324141Y0106898D01*
X0322959Y0108079D01*
X0322320Y0109623D01*
X0322320Y0111294D01*
X0322959Y0112837D01*
X0324141Y0114019D01*
X0325684Y0114658D01*
X0332555Y0114658D01*
X0334715Y0113403D02*
X0349794Y0113403D01*
X0349794Y0112205D02*
X0335542Y0112205D01*
X0335920Y0111006D02*
X0349794Y0111006D01*
X0349794Y0109807D02*
X0335920Y0109807D01*
X0335500Y0108609D02*
X0349794Y0108609D01*
X0349794Y0107410D02*
X0334612Y0107410D01*
X0334303Y0103815D02*
X0349794Y0103815D01*
X0349794Y0105013D02*
X0269056Y0105013D01*
X0269056Y0106212D02*
X0349794Y0106212D01*
X0349794Y0102616D02*
X0335372Y0102616D01*
X0336246Y0100025D02*
X0329356Y0100025D01*
X0329120Y0100458D01*
X0323937Y0103815D02*
X0268836Y0103815D01*
X0267637Y0102616D02*
X0322868Y0102616D01*
X0322371Y0101418D02*
X0266439Y0101418D01*
X0265240Y0100219D02*
X0322320Y0100219D01*
X0322569Y0099021D02*
X0264042Y0099021D01*
X0262843Y0097822D02*
X0323216Y0097822D01*
X0324802Y0096624D02*
X0261645Y0096624D01*
X0260446Y0095425D02*
X0269377Y0095425D01*
X0269022Y0095279D02*
X0267841Y0094097D01*
X0267202Y0092554D01*
X0267202Y0090883D01*
X0267841Y0089339D01*
X0269022Y0088158D01*
X0270566Y0087518D01*
X0277437Y0087518D01*
X0278981Y0088158D01*
X0280162Y0089339D01*
X0280802Y0090883D01*
X0280802Y0092554D01*
X0280162Y0094097D01*
X0278981Y0095279D01*
X0277437Y0095918D01*
X0270566Y0095918D01*
X0269022Y0095279D01*
X0267971Y0094227D02*
X0259248Y0094227D01*
X0258049Y0093028D02*
X0267398Y0093028D01*
X0267202Y0091830D02*
X0257215Y0091830D01*
X0257779Y0090631D02*
X0267306Y0090631D01*
X0267802Y0089433D02*
X0257970Y0089433D01*
X0257860Y0088234D02*
X0268946Y0088234D01*
X0270371Y0085837D02*
X0256212Y0085837D01*
X0257364Y0087036D02*
X0319774Y0087036D01*
X0319774Y0088234D02*
X0309057Y0088234D01*
X0308981Y0088158D02*
X0310162Y0089339D01*
X0310802Y0090883D01*
X0310802Y0092554D01*
X0310162Y0094097D01*
X0308981Y0095279D01*
X0307437Y0095918D01*
X0300566Y0095918D01*
X0299022Y0095279D01*
X0297841Y0094097D01*
X0297202Y0092554D01*
X0297202Y0090883D01*
X0297841Y0089339D01*
X0299022Y0088158D01*
X0300566Y0087518D01*
X0307437Y0087518D01*
X0308981Y0088158D01*
X0310201Y0089433D02*
X0319774Y0089433D01*
X0319774Y0090631D02*
X0310697Y0090631D01*
X0310802Y0091830D02*
X0320510Y0091830D01*
X0321974Y0090183D02*
X0328864Y0090183D01*
X0329120Y0090458D01*
X0333597Y0094227D02*
X0334046Y0094227D01*
X0334046Y0095425D02*
X0308627Y0095425D01*
X0310033Y0094227D02*
X0324643Y0094227D01*
X0323150Y0093028D02*
X0310605Y0093028D01*
X0299377Y0095425D02*
X0278627Y0095425D01*
X0280033Y0094227D02*
X0297971Y0094227D01*
X0297398Y0093028D02*
X0280605Y0093028D01*
X0280802Y0091830D02*
X0297202Y0091830D01*
X0297306Y0090631D02*
X0280697Y0090631D01*
X0280201Y0089433D02*
X0297802Y0089433D01*
X0298946Y0088234D02*
X0279057Y0088234D01*
X0277632Y0085837D02*
X0300371Y0085837D01*
X0298383Y0084639D02*
X0279621Y0084639D01*
X0280434Y0083440D02*
X0297569Y0083440D01*
X0297202Y0082242D02*
X0280802Y0082242D01*
X0280802Y0081043D02*
X0297202Y0081043D01*
X0297632Y0079845D02*
X0280372Y0079845D01*
X0267632Y0079845D02*
X0206978Y0079845D01*
X0208177Y0078646D02*
X0254177Y0078646D01*
X0252978Y0077448D02*
X0209375Y0077448D01*
X0205340Y0078372D02*
X0094120Y0078372D01*
X0078372Y0094120D01*
X0078372Y0100517D01*
X0072466Y0100517D01*
X0068529Y0108883D02*
X0110852Y0108883D01*
X0121679Y0119710D01*
X0121679Y0147269D01*
X0280635Y0147269D01*
X0300813Y0167446D01*
X0317545Y0167446D01*
X0324927Y0174828D01*
X0332309Y0174828D01*
X0329120Y0170458D02*
X0328864Y0170399D01*
X0320006Y0161541D01*
X0304750Y0161541D01*
X0304002Y0161954D01*
X0304257Y0161541D01*
X0304257Y0152191D01*
X0304002Y0151954D01*
X0303765Y0151698D01*
X0292939Y0151698D01*
X0292939Y0139395D01*
X0296183Y0140969D02*
X0297264Y0140969D01*
X0297202Y0141119D02*
X0297841Y0139575D01*
X0299022Y0138394D01*
X0300566Y0137754D01*
X0307437Y0137754D01*
X0308981Y0138394D01*
X0310162Y0139575D01*
X0310196Y0139656D01*
X0322320Y0139656D01*
X0322320Y0139623D01*
X0322959Y0138079D01*
X0324141Y0136898D01*
X0325684Y0136258D01*
X0332555Y0136258D01*
X0334099Y0136898D01*
X0335280Y0138079D01*
X0335920Y0139623D01*
X0335920Y0141294D01*
X0335280Y0142837D01*
X0334099Y0144019D01*
X0332555Y0144658D01*
X0325684Y0144658D01*
X0324230Y0144056D01*
X0310277Y0144056D01*
X0310162Y0144333D01*
X0308981Y0145515D01*
X0307437Y0146154D01*
X0300566Y0146154D01*
X0299022Y0145515D01*
X0297841Y0144333D01*
X0297202Y0142790D01*
X0297202Y0141119D01*
X0297202Y0142167D02*
X0295258Y0142167D01*
X0295139Y0143366D02*
X0297440Y0143366D01*
X0298072Y0144564D02*
X0295139Y0144564D01*
X0295139Y0145763D02*
X0299621Y0145763D01*
X0299587Y0148160D02*
X0295139Y0148160D01*
X0295139Y0149358D02*
X0298058Y0149358D01*
X0295139Y0146961D02*
X0324077Y0146961D01*
X0324141Y0146898D02*
X0325684Y0146258D01*
X0332555Y0146258D01*
X0334099Y0146898D01*
X0335280Y0148079D01*
X0335920Y0149623D01*
X0335920Y0151294D01*
X0335280Y0152837D01*
X0334099Y0154019D01*
X0332555Y0154658D01*
X0325684Y0154658D01*
X0324141Y0154019D01*
X0322959Y0152837D01*
X0322320Y0151294D01*
X0322320Y0149623D01*
X0322959Y0148079D01*
X0324141Y0146898D01*
X0322926Y0148160D02*
X0308416Y0148160D01*
X0309945Y0149358D02*
X0322429Y0149358D01*
X0322320Y0150557D02*
X0310569Y0150557D01*
X0310802Y0151755D02*
X0322511Y0151755D01*
X0323076Y0152954D02*
X0310734Y0152954D01*
X0310237Y0154152D02*
X0324463Y0154152D01*
X0324981Y0156549D02*
X0306457Y0156549D01*
X0306457Y0157748D02*
X0323290Y0157748D01*
X0322600Y0158946D02*
X0309533Y0158946D01*
X0309145Y0155351D02*
X0364065Y0155351D01*
X0364065Y0156549D02*
X0363258Y0156549D01*
X0363776Y0154152D02*
X0364065Y0154152D01*
X0368465Y0154152D02*
X0377353Y0154152D01*
X0377353Y0152954D02*
X0368465Y0152954D01*
X0368465Y0151755D02*
X0377353Y0151755D01*
X0377353Y0150557D02*
X0368465Y0150557D01*
X0368465Y0149358D02*
X0377353Y0149358D01*
X0377353Y0148160D02*
X0368465Y0148160D01*
X0368465Y0146961D02*
X0377353Y0146961D01*
X0377353Y0145763D02*
X0368465Y0145763D01*
X0368465Y0144564D02*
X0377353Y0144564D01*
X0377353Y0143366D02*
X0368465Y0143366D01*
X0368465Y0142167D02*
X0376261Y0142167D01*
X0377353Y0143259D02*
X0368465Y0134372D01*
X0368465Y0170472D01*
X0379880Y0181887D01*
X0379940Y0181507D01*
X0380164Y0180818D01*
X0380492Y0180173D01*
X0380918Y0179588D01*
X0381430Y0179076D01*
X0382016Y0178650D01*
X0382661Y0178321D01*
X0383350Y0178098D01*
X0384065Y0177984D01*
X0387027Y0177984D01*
X0387027Y0182184D01*
X0387827Y0182184D01*
X0387827Y0177984D01*
X0390789Y0177984D01*
X0391504Y0178098D01*
X0392193Y0178321D01*
X0392838Y0178650D01*
X0393423Y0179076D01*
X0393935Y0179588D01*
X0394361Y0180173D01*
X0394638Y0180717D01*
X0394638Y0174438D01*
X0394326Y0175190D01*
X0393032Y0176484D01*
X0391342Y0177184D01*
X0383512Y0177184D01*
X0381821Y0176484D01*
X0380527Y0175190D01*
X0380269Y0174568D01*
X0378641Y0174568D01*
X0377353Y0173279D01*
X0377353Y0143259D01*
X0379553Y0142348D02*
X0379553Y0172368D01*
X0387427Y0172368D01*
X0387427Y0172584D01*
X0383512Y0167984D02*
X0381821Y0168685D01*
X0381753Y0168753D01*
X0381753Y0166327D01*
X0382016Y0166519D01*
X0382661Y0166847D01*
X0383350Y0167071D01*
X0384065Y0167184D01*
X0387027Y0167184D01*
X0387027Y0162984D01*
X0387827Y0162984D01*
X0387827Y0167184D01*
X0390789Y0167184D01*
X0391504Y0167071D01*
X0392193Y0166847D01*
X0392838Y0166519D01*
X0393423Y0166093D01*
X0393935Y0165581D01*
X0394361Y0164995D01*
X0394638Y0164452D01*
X0394638Y0170730D01*
X0394326Y0169979D01*
X0393032Y0168685D01*
X0391342Y0167984D01*
X0383512Y0167984D01*
X0382183Y0168535D02*
X0381753Y0168535D01*
X0381753Y0167336D02*
X0394638Y0167336D01*
X0394638Y0166138D02*
X0393362Y0166138D01*
X0394390Y0164939D02*
X0394638Y0164939D01*
X0394638Y0168535D02*
X0392670Y0168535D01*
X0394081Y0169733D02*
X0394638Y0169733D01*
X0394601Y0174527D02*
X0394638Y0174527D01*
X0394638Y0175726D02*
X0393791Y0175726D01*
X0394638Y0176924D02*
X0391970Y0176924D01*
X0391581Y0178123D02*
X0394638Y0178123D01*
X0394638Y0179321D02*
X0393669Y0179321D01*
X0394537Y0180520D02*
X0394638Y0180520D01*
X0394638Y0184452D02*
X0394361Y0184995D01*
X0393935Y0185581D01*
X0393423Y0186093D01*
X0392838Y0186519D01*
X0392193Y0186847D01*
X0391504Y0187071D01*
X0390789Y0187184D01*
X0387827Y0187184D01*
X0387827Y0182984D01*
X0387027Y0182984D01*
X0387027Y0187184D01*
X0385177Y0187184D01*
X0385977Y0187984D01*
X0391342Y0187984D01*
X0393032Y0188685D01*
X0394326Y0189979D01*
X0394638Y0190730D01*
X0394638Y0184452D01*
X0394638Y0185314D02*
X0394130Y0185314D01*
X0394638Y0186512D02*
X0392846Y0186512D01*
X0394638Y0187711D02*
X0385704Y0187711D01*
X0387027Y0186512D02*
X0387827Y0186512D01*
X0387827Y0185314D02*
X0387027Y0185314D01*
X0387027Y0184115D02*
X0387827Y0184115D01*
X0387827Y0181718D02*
X0387027Y0181718D01*
X0387027Y0180520D02*
X0387827Y0180520D01*
X0387827Y0179321D02*
X0387027Y0179321D01*
X0387027Y0178123D02*
X0387827Y0178123D01*
X0383272Y0178123D02*
X0376116Y0178123D01*
X0377314Y0179321D02*
X0381184Y0179321D01*
X0380316Y0180520D02*
X0378513Y0180520D01*
X0379711Y0181718D02*
X0379907Y0181718D01*
X0379481Y0187711D02*
X0364912Y0187711D01*
X0365624Y0188909D02*
X0380680Y0188909D01*
X0380474Y0190108D02*
X0365920Y0190108D01*
X0365914Y0191306D02*
X0379977Y0191306D01*
X0379827Y0192505D02*
X0365418Y0192505D01*
X0364414Y0193703D02*
X0379911Y0193703D01*
X0380408Y0194902D02*
X0337984Y0194902D01*
X0336786Y0196100D02*
X0381437Y0196100D01*
X0382661Y0198321D02*
X0383350Y0198098D01*
X0384065Y0197984D01*
X0387027Y0197984D01*
X0387027Y0202184D01*
X0379833Y0202184D01*
X0379940Y0201507D01*
X0380164Y0200818D01*
X0380492Y0200173D01*
X0380918Y0199588D01*
X0381430Y0199076D01*
X0382016Y0198650D01*
X0382661Y0198321D01*
X0382315Y0198497D02*
X0365453Y0198497D01*
X0365280Y0198079D02*
X0365920Y0199623D01*
X0365920Y0201294D01*
X0365280Y0202837D01*
X0364099Y0204019D01*
X0362555Y0204658D01*
X0355684Y0204658D01*
X0354141Y0204019D01*
X0352959Y0202837D01*
X0352320Y0201294D01*
X0352320Y0199623D01*
X0352959Y0198079D01*
X0354141Y0196898D01*
X0355684Y0196258D01*
X0362555Y0196258D01*
X0364099Y0196898D01*
X0365280Y0198079D01*
X0364500Y0197299D02*
X0394638Y0197299D01*
X0394638Y0198497D02*
X0392538Y0198497D01*
X0394014Y0199696D02*
X0394638Y0199696D01*
X0394638Y0196100D02*
X0393416Y0196100D01*
X0394446Y0194902D02*
X0394638Y0194902D01*
X0387427Y0192584D02*
X0387427Y0192545D01*
X0366265Y0171383D01*
X0368925Y0170932D02*
X0377353Y0170932D01*
X0377353Y0172130D02*
X0370123Y0172130D01*
X0371322Y0173329D02*
X0377402Y0173329D01*
X0378601Y0174527D02*
X0372520Y0174527D01*
X0373719Y0175726D02*
X0381063Y0175726D01*
X0382884Y0176924D02*
X0374917Y0176924D01*
X0377353Y0169733D02*
X0368465Y0169733D01*
X0368465Y0168535D02*
X0377353Y0168535D01*
X0377353Y0167336D02*
X0368465Y0167336D01*
X0368465Y0166138D02*
X0377353Y0166138D01*
X0377353Y0164939D02*
X0368465Y0164939D01*
X0368465Y0163741D02*
X0377353Y0163741D01*
X0377353Y0162542D02*
X0368465Y0162542D01*
X0368465Y0161343D02*
X0377353Y0161343D01*
X0377353Y0160145D02*
X0368465Y0160145D01*
X0368465Y0158946D02*
X0377353Y0158946D01*
X0377353Y0157748D02*
X0368465Y0157748D01*
X0368465Y0156549D02*
X0377353Y0156549D01*
X0377353Y0155351D02*
X0368465Y0155351D01*
X0381753Y0156416D02*
X0381753Y0158841D01*
X0382016Y0158650D01*
X0382661Y0158321D01*
X0383350Y0158098D01*
X0384065Y0157984D01*
X0387027Y0157984D01*
X0387027Y0162184D01*
X0387827Y0162184D01*
X0387827Y0157984D01*
X0390789Y0157984D01*
X0391504Y0158098D01*
X0392193Y0158321D01*
X0392838Y0158650D01*
X0393423Y0159076D01*
X0393935Y0159588D01*
X0394361Y0160173D01*
X0394638Y0160717D01*
X0394638Y0154438D01*
X0394326Y0155190D01*
X0393032Y0156484D01*
X0391342Y0157184D01*
X0383512Y0157184D01*
X0381821Y0156484D01*
X0381753Y0156416D01*
X0381753Y0156549D02*
X0381979Y0156549D01*
X0381753Y0157748D02*
X0394638Y0157748D01*
X0394638Y0158946D02*
X0393246Y0158946D01*
X0394340Y0160145D02*
X0394638Y0160145D01*
X0394638Y0156549D02*
X0392874Y0156549D01*
X0394165Y0155351D02*
X0394638Y0155351D01*
X0387827Y0158946D02*
X0387027Y0158946D01*
X0387027Y0160145D02*
X0387827Y0160145D01*
X0387827Y0161343D02*
X0387027Y0161343D01*
X0387027Y0163741D02*
X0387827Y0163741D01*
X0387827Y0164939D02*
X0387027Y0164939D01*
X0387027Y0166138D02*
X0387827Y0166138D01*
X0354981Y0156549D02*
X0333258Y0156549D01*
X0333776Y0154152D02*
X0354463Y0154152D01*
X0353076Y0152954D02*
X0335164Y0152954D01*
X0335728Y0151755D02*
X0352511Y0151755D01*
X0352320Y0150557D02*
X0335920Y0150557D01*
X0335810Y0149358D02*
X0352429Y0149358D01*
X0352926Y0148160D02*
X0335314Y0148160D01*
X0334162Y0146961D02*
X0354077Y0146961D01*
X0354907Y0144351D02*
X0354318Y0144050D01*
X0353784Y0143662D01*
X0353316Y0143194D01*
X0352928Y0142660D01*
X0352627Y0142071D01*
X0352423Y0141442D01*
X0352320Y0140789D01*
X0352320Y0140658D01*
X0358920Y0140658D01*
X0358920Y0144658D01*
X0356189Y0144658D01*
X0355536Y0144555D01*
X0354907Y0144351D01*
X0355596Y0144564D02*
X0332782Y0144564D01*
X0334752Y0143366D02*
X0353488Y0143366D01*
X0352677Y0142167D02*
X0335558Y0142167D01*
X0335920Y0140969D02*
X0352348Y0140969D01*
X0352320Y0140258D02*
X0352320Y0140128D01*
X0352423Y0139475D01*
X0352627Y0138846D01*
X0352928Y0138257D01*
X0353316Y0137722D01*
X0353784Y0137255D01*
X0354318Y0136866D01*
X0354907Y0136566D01*
X0355536Y0136362D01*
X0356189Y0136258D01*
X0358920Y0136258D01*
X0358920Y0140258D01*
X0352320Y0140258D01*
X0352376Y0139770D02*
X0335920Y0139770D01*
X0335484Y0138572D02*
X0352767Y0138572D01*
X0353665Y0137373D02*
X0334574Y0137373D01*
X0339198Y0140380D02*
X0358883Y0140380D01*
X0359120Y0140458D01*
X0358920Y0140969D02*
X0359320Y0140969D01*
X0359320Y0142167D02*
X0358920Y0142167D01*
X0358920Y0143366D02*
X0359320Y0143366D01*
X0359320Y0144564D02*
X0358920Y0144564D01*
X0362643Y0144564D02*
X0364065Y0144564D01*
X0364065Y0145763D02*
X0308382Y0145763D01*
X0309931Y0144564D02*
X0325457Y0144564D01*
X0327880Y0141856D02*
X0304257Y0141856D01*
X0304002Y0141954D01*
X0309159Y0138572D02*
X0322755Y0138572D01*
X0323665Y0137373D02*
X0295998Y0137373D01*
X0296494Y0138572D02*
X0298844Y0138572D01*
X0297760Y0139770D02*
X0296539Y0139770D01*
X0294571Y0136175D02*
X0364065Y0136175D01*
X0364065Y0134976D02*
X0309519Y0134976D01*
X0308981Y0135515D02*
X0310162Y0134333D01*
X0310802Y0132790D01*
X0310802Y0131119D01*
X0310162Y0129575D01*
X0308981Y0128394D01*
X0307437Y0127754D01*
X0300566Y0127754D01*
X0299022Y0128394D01*
X0297841Y0129575D01*
X0297202Y0131119D01*
X0297202Y0132790D01*
X0297841Y0134333D01*
X0299022Y0135515D01*
X0300566Y0136154D01*
X0307437Y0136154D01*
X0308981Y0135515D01*
X0310392Y0133778D02*
X0323943Y0133778D01*
X0323784Y0133662D02*
X0324318Y0134050D01*
X0324907Y0134351D01*
X0325536Y0134555D01*
X0326189Y0134658D01*
X0328920Y0134658D01*
X0328920Y0130658D01*
X0322320Y0130658D01*
X0322320Y0130789D01*
X0322423Y0131442D01*
X0322627Y0132071D01*
X0322928Y0132660D01*
X0323316Y0133194D01*
X0323784Y0133662D01*
X0322887Y0132579D02*
X0310802Y0132579D01*
X0310802Y0131381D02*
X0322413Y0131381D01*
X0322320Y0130258D02*
X0322320Y0130128D01*
X0322423Y0129475D01*
X0322627Y0128846D01*
X0322928Y0128257D01*
X0323316Y0127722D01*
X0323784Y0127255D01*
X0324318Y0126866D01*
X0324907Y0126566D01*
X0325536Y0126362D01*
X0326189Y0126258D01*
X0328920Y0126258D01*
X0328920Y0130258D01*
X0322320Y0130258D01*
X0322320Y0130182D02*
X0310414Y0130182D01*
X0311147Y0130045D02*
X0328864Y0130045D01*
X0329120Y0130458D01*
X0329356Y0130537D01*
X0339198Y0140380D01*
X0329120Y0140458D02*
X0328864Y0140872D01*
X0327880Y0141856D01*
X0328920Y0133778D02*
X0329320Y0133778D01*
X0329320Y0132579D02*
X0328920Y0132579D01*
X0328920Y0131381D02*
X0329320Y0131381D01*
X0329320Y0130182D02*
X0328920Y0130182D01*
X0328920Y0128984D02*
X0329320Y0128984D01*
X0329320Y0127785D02*
X0328920Y0127785D01*
X0328920Y0126587D02*
X0329320Y0126587D01*
X0324867Y0126587D02*
X0269056Y0126587D01*
X0269056Y0127785D02*
X0270876Y0127785D01*
X0273802Y0127785D02*
X0274202Y0127785D01*
X0274202Y0127754D02*
X0276932Y0127754D01*
X0277585Y0127858D01*
X0278214Y0128062D01*
X0278803Y0128362D01*
X0279338Y0128751D01*
X0279805Y0129218D01*
X0280194Y0129753D01*
X0280494Y0130342D01*
X0280698Y0130971D01*
X0280802Y0131624D01*
X0280802Y0131754D01*
X0274202Y0131754D01*
X0274202Y0127754D01*
X0274202Y0128984D02*
X0273802Y0128984D01*
X0273802Y0130182D02*
X0274202Y0130182D01*
X0274202Y0131381D02*
X0273802Y0131381D01*
X0274238Y0131521D02*
X0274002Y0131954D01*
X0274238Y0131521D02*
X0278175Y0127584D01*
X0308687Y0127584D01*
X0311147Y0130045D01*
X0309571Y0128984D02*
X0322583Y0128984D01*
X0323270Y0127785D02*
X0307511Y0127785D01*
X0300492Y0127785D02*
X0277127Y0127785D01*
X0279571Y0128984D02*
X0298433Y0128984D01*
X0297590Y0130182D02*
X0280412Y0130182D01*
X0280763Y0131381D02*
X0297202Y0131381D01*
X0297202Y0132579D02*
X0280755Y0132579D01*
X0280386Y0133778D02*
X0297611Y0133778D01*
X0298484Y0134976D02*
X0279519Y0134976D01*
X0279159Y0138572D02*
X0289383Y0138572D01*
X0289339Y0139770D02*
X0280243Y0139770D01*
X0280739Y0140969D02*
X0289694Y0140969D01*
X0290619Y0142167D02*
X0280802Y0142167D01*
X0280563Y0143366D02*
X0290739Y0143366D01*
X0290739Y0144564D02*
X0279931Y0144564D01*
X0282240Y0145763D02*
X0290739Y0145763D01*
X0290739Y0146961D02*
X0283439Y0146961D01*
X0284637Y0148160D02*
X0290739Y0148160D01*
X0290739Y0149358D02*
X0285836Y0149358D01*
X0287034Y0150557D02*
X0290739Y0150557D01*
X0290739Y0151755D02*
X0288233Y0151755D01*
X0289431Y0152954D02*
X0291083Y0152954D01*
X0290630Y0154152D02*
X0297766Y0154152D01*
X0298858Y0155351D02*
X0291828Y0155351D01*
X0293027Y0156549D02*
X0302057Y0156549D01*
X0302057Y0157748D02*
X0294225Y0157748D01*
X0295424Y0158946D02*
X0298470Y0158946D01*
X0297605Y0160145D02*
X0296622Y0160145D01*
X0293995Y0163741D02*
X0280408Y0163741D01*
X0280162Y0164333D02*
X0280802Y0162790D01*
X0280802Y0161119D01*
X0280162Y0159575D01*
X0278981Y0158394D01*
X0277437Y0157754D01*
X0270566Y0157754D01*
X0269022Y0158394D01*
X0267841Y0159575D01*
X0267202Y0161119D01*
X0267202Y0162790D01*
X0267841Y0164333D01*
X0269022Y0165515D01*
X0270566Y0166154D01*
X0277437Y0166154D01*
X0278981Y0165515D01*
X0280162Y0164333D01*
X0279557Y0164939D02*
X0295194Y0164939D01*
X0296392Y0166138D02*
X0277478Y0166138D01*
X0277437Y0167754D02*
X0278981Y0168394D01*
X0280162Y0169575D01*
X0280802Y0171119D01*
X0280802Y0172790D01*
X0280162Y0174333D01*
X0279407Y0175089D01*
X0298597Y0175089D01*
X0298198Y0174690D01*
X0297809Y0174156D01*
X0297509Y0173567D01*
X0297305Y0172938D01*
X0297202Y0172285D01*
X0297202Y0172154D01*
X0303801Y0172154D01*
X0303801Y0171754D01*
X0297202Y0171754D01*
X0297202Y0171624D01*
X0297305Y0170971D01*
X0297509Y0170342D01*
X0297809Y0169753D01*
X0298198Y0169218D01*
X0298665Y0168751D01*
X0298862Y0168608D01*
X0298613Y0168358D01*
X0280397Y0150142D01*
X0280802Y0151119D01*
X0280802Y0152790D01*
X0280162Y0154333D01*
X0278981Y0155515D01*
X0277437Y0156154D01*
X0270566Y0156154D01*
X0269022Y0155515D01*
X0267841Y0154333D01*
X0267202Y0152790D01*
X0267202Y0151119D01*
X0267841Y0149575D01*
X0267947Y0149469D01*
X0222955Y0149469D01*
X0244398Y0170913D01*
X0245009Y0169437D01*
X0246191Y0168255D01*
X0247735Y0167616D01*
X0254606Y0167616D01*
X0256149Y0168255D01*
X0257331Y0169437D01*
X0257970Y0170980D01*
X0257970Y0172651D01*
X0257331Y0174195D01*
X0256437Y0175089D01*
X0268597Y0175089D01*
X0267841Y0174333D01*
X0267202Y0172790D01*
X0267202Y0171119D01*
X0267841Y0169575D01*
X0269022Y0168394D01*
X0270566Y0167754D01*
X0277437Y0167754D01*
X0279121Y0168535D02*
X0298789Y0168535D01*
X0297824Y0169733D02*
X0280228Y0169733D01*
X0280724Y0170932D02*
X0297318Y0170932D01*
X0297432Y0173329D02*
X0280578Y0173329D01*
X0280802Y0172130D02*
X0303801Y0172130D01*
X0304202Y0172130D02*
X0319117Y0172130D01*
X0317919Y0170932D02*
X0310685Y0170932D01*
X0310698Y0170971D02*
X0310802Y0171624D01*
X0310802Y0171754D01*
X0304202Y0171754D01*
X0304202Y0172154D01*
X0310802Y0172154D01*
X0310802Y0172285D01*
X0310698Y0172938D01*
X0310494Y0173567D01*
X0310194Y0174156D01*
X0309805Y0174690D01*
X0309407Y0175089D01*
X0322076Y0175089D01*
X0316634Y0169646D01*
X0310116Y0169646D01*
X0310194Y0169753D01*
X0310494Y0170342D01*
X0310698Y0170971D01*
X0310179Y0169733D02*
X0316720Y0169733D01*
X0320316Y0173329D02*
X0310571Y0173329D01*
X0309924Y0174527D02*
X0321514Y0174527D01*
X0304002Y0181954D02*
X0317053Y0195006D01*
X0334769Y0195006D01*
X0334500Y0197299D02*
X0353739Y0197299D01*
X0352786Y0198497D02*
X0335453Y0198497D01*
X0335920Y0199696D02*
X0352320Y0199696D01*
X0352320Y0200894D02*
X0335920Y0200894D01*
X0335589Y0202093D02*
X0352651Y0202093D01*
X0353413Y0203291D02*
X0334826Y0203291D01*
X0332962Y0204490D02*
X0355278Y0204490D01*
X0362962Y0204490D02*
X0380235Y0204490D01*
X0380164Y0204350D02*
X0379940Y0203661D01*
X0379833Y0202984D01*
X0387027Y0202984D01*
X0387027Y0207184D01*
X0384065Y0207184D01*
X0383350Y0207071D01*
X0382661Y0206847D01*
X0382016Y0206519D01*
X0381430Y0206093D01*
X0380918Y0205581D01*
X0380492Y0204995D01*
X0380164Y0204350D01*
X0379881Y0203291D02*
X0364826Y0203291D01*
X0365589Y0202093D02*
X0379847Y0202093D01*
X0380139Y0200894D02*
X0365920Y0200894D01*
X0365920Y0199696D02*
X0380839Y0199696D01*
X0387027Y0199696D02*
X0387827Y0199696D01*
X0387827Y0200894D02*
X0387027Y0200894D01*
X0387027Y0202093D02*
X0387827Y0202093D01*
X0387827Y0203291D02*
X0387027Y0203291D01*
X0387027Y0204490D02*
X0387827Y0204490D01*
X0387827Y0205688D02*
X0387027Y0205688D01*
X0387027Y0206887D02*
X0387827Y0206887D01*
X0392070Y0206887D02*
X0394638Y0206887D01*
X0394638Y0208085D02*
X0256432Y0208085D01*
X0257455Y0206887D02*
X0382783Y0206887D01*
X0381026Y0205688D02*
X0308562Y0205688D01*
X0310006Y0204490D02*
X0325278Y0204490D01*
X0323413Y0203291D02*
X0310594Y0203291D01*
X0310802Y0202093D02*
X0322651Y0202093D01*
X0322320Y0200894D02*
X0310709Y0200894D01*
X0310212Y0199696D02*
X0322320Y0199696D01*
X0322786Y0198497D02*
X0309084Y0198497D01*
X0307567Y0196100D02*
X0315036Y0196100D01*
X0313838Y0194902D02*
X0309594Y0194902D01*
X0310423Y0193703D02*
X0312639Y0193703D01*
X0311441Y0192505D02*
X0310802Y0192505D01*
X0304002Y0191954D02*
X0303765Y0192053D01*
X0299336Y0196482D01*
X0259474Y0196482D01*
X0251600Y0204356D01*
X0251170Y0204808D01*
X0256995Y0202093D02*
X0267202Y0202093D01*
X0267295Y0200894D02*
X0258173Y0200894D01*
X0259371Y0199696D02*
X0267791Y0199696D01*
X0267409Y0203291D02*
X0257688Y0203291D01*
X0257970Y0204490D02*
X0267997Y0204490D01*
X0269441Y0205688D02*
X0257951Y0205688D01*
X0253149Y0199696D02*
X0222796Y0199696D01*
X0222796Y0200894D02*
X0247043Y0200894D01*
X0245345Y0202093D02*
X0222796Y0202093D01*
X0222796Y0203291D02*
X0244652Y0203291D01*
X0244370Y0204490D02*
X0222796Y0204490D01*
X0222796Y0205688D02*
X0244389Y0205688D01*
X0244885Y0206887D02*
X0222796Y0206887D01*
X0222796Y0208085D02*
X0245908Y0208085D01*
X0254347Y0198497D02*
X0222796Y0198497D01*
X0222796Y0197299D02*
X0255546Y0197299D01*
X0256744Y0196100D02*
X0222796Y0196100D01*
X0222796Y0194902D02*
X0257943Y0194902D01*
X0256149Y0191872D02*
X0254606Y0192512D01*
X0247735Y0192512D01*
X0246191Y0191872D01*
X0245009Y0190691D01*
X0244370Y0189147D01*
X0244370Y0187476D01*
X0245009Y0185933D01*
X0246191Y0184751D01*
X0247735Y0184112D01*
X0254606Y0184112D01*
X0256149Y0184751D01*
X0257331Y0185933D01*
X0257970Y0187476D01*
X0257970Y0189147D01*
X0257331Y0190691D01*
X0256149Y0191872D01*
X0256715Y0191306D02*
X0267202Y0191306D01*
X0267202Y0192505D02*
X0254622Y0192505D01*
X0257572Y0190108D02*
X0267620Y0190108D01*
X0268507Y0188909D02*
X0257970Y0188909D01*
X0257970Y0187711D02*
X0306647Y0187711D01*
X0305448Y0186512D02*
X0257571Y0186512D01*
X0256712Y0185314D02*
X0268821Y0185314D01*
X0267751Y0184115D02*
X0254614Y0184115D01*
X0247726Y0184115D02*
X0222796Y0184115D01*
X0222796Y0182917D02*
X0267254Y0182917D01*
X0267202Y0181718D02*
X0222796Y0181718D01*
X0222796Y0180520D02*
X0267450Y0180520D01*
X0279182Y0185314D02*
X0298821Y0185314D01*
X0297751Y0184115D02*
X0280253Y0184115D01*
X0280749Y0182917D02*
X0297254Y0182917D01*
X0297202Y0181718D02*
X0280802Y0181718D01*
X0280553Y0180520D02*
X0297450Y0180520D01*
X0298079Y0174527D02*
X0279968Y0174527D01*
X0268035Y0174527D02*
X0256998Y0174527D01*
X0257689Y0173329D02*
X0267425Y0173329D01*
X0267202Y0172130D02*
X0257970Y0172130D01*
X0257950Y0170932D02*
X0267279Y0170932D01*
X0267776Y0169733D02*
X0257453Y0169733D01*
X0256429Y0168535D02*
X0268882Y0168535D01*
X0270526Y0166138D02*
X0239623Y0166138D01*
X0240821Y0167336D02*
X0297591Y0167336D01*
X0292797Y0162542D02*
X0280802Y0162542D01*
X0280802Y0161343D02*
X0291598Y0161343D01*
X0290400Y0160145D02*
X0280398Y0160145D01*
X0279533Y0158946D02*
X0289201Y0158946D01*
X0288003Y0157748D02*
X0257281Y0157748D01*
X0257331Y0157699D02*
X0256149Y0158880D01*
X0254606Y0159520D01*
X0247735Y0159520D01*
X0246191Y0158880D01*
X0245009Y0157699D01*
X0244370Y0156155D01*
X0244370Y0154484D01*
X0245009Y0152941D01*
X0246191Y0151759D01*
X0247735Y0151120D01*
X0254606Y0151120D01*
X0256149Y0151759D01*
X0257331Y0152941D01*
X0257970Y0154484D01*
X0257970Y0156155D01*
X0257331Y0157699D01*
X0257807Y0156549D02*
X0286804Y0156549D01*
X0285606Y0155351D02*
X0279145Y0155351D01*
X0280237Y0154152D02*
X0284407Y0154152D01*
X0283209Y0152954D02*
X0280734Y0152954D01*
X0280802Y0151755D02*
X0282010Y0151755D01*
X0280812Y0150557D02*
X0280569Y0150557D01*
X0274002Y0141954D02*
X0273746Y0141856D01*
X0266856Y0141856D01*
X0266856Y0104946D01*
X0251600Y0089691D01*
X0251170Y0089335D01*
X0253025Y0094227D02*
X0184391Y0094227D01*
X0184391Y0093028D02*
X0206510Y0093028D01*
X0206191Y0092896D02*
X0207735Y0093535D01*
X0214606Y0093535D01*
X0216149Y0092896D01*
X0217331Y0091715D01*
X0217970Y0090171D01*
X0217970Y0088500D01*
X0217331Y0086956D01*
X0216149Y0085775D01*
X0214606Y0085135D01*
X0207735Y0085135D01*
X0206191Y0085775D01*
X0205009Y0086956D01*
X0204370Y0088500D01*
X0204370Y0090171D01*
X0205009Y0091715D01*
X0206191Y0092896D01*
X0205125Y0091830D02*
X0184391Y0091830D01*
X0184391Y0090631D02*
X0204561Y0090631D01*
X0204370Y0089433D02*
X0184391Y0089433D01*
X0184391Y0088234D02*
X0204480Y0088234D01*
X0204977Y0087036D02*
X0184304Y0087036D01*
X0183807Y0085837D02*
X0192149Y0085837D01*
X0193925Y0085837D02*
X0206129Y0085837D01*
X0196465Y0083440D02*
X0267569Y0083440D01*
X0267202Y0082242D02*
X0196637Y0082242D01*
X0196409Y0081043D02*
X0267202Y0081043D01*
X0268383Y0084639D02*
X0195798Y0084639D01*
X0193037Y0082309D02*
X0192053Y0083293D01*
X0142348Y0083293D01*
X0131521Y0094120D01*
X0131521Y0116757D01*
X0126600Y0116757D01*
X0126558Y0116762D01*
X0144358Y0116762D02*
X0144809Y0117250D01*
X0152191Y0124631D01*
X0172368Y0124631D01*
X0179750Y0117250D01*
X0179791Y0116762D01*
X0175191Y0116999D02*
X0170631Y0116999D01*
X0170631Y0115800D02*
X0175191Y0115800D01*
X0175191Y0114602D02*
X0170631Y0114602D01*
X0170631Y0113403D02*
X0175191Y0113403D01*
X0175458Y0112205D02*
X0170631Y0112205D01*
X0170631Y0111006D02*
X0176042Y0111006D01*
X0177318Y0109807D02*
X0170631Y0109807D01*
X0170631Y0108609D02*
X0204964Y0108609D01*
X0204678Y0107410D02*
X0170631Y0107410D01*
X0170631Y0106212D02*
X0204370Y0106212D01*
X0204370Y0105013D02*
X0170631Y0105013D01*
X0170631Y0103815D02*
X0204859Y0103815D01*
X0205845Y0102616D02*
X0170631Y0102616D01*
X0170631Y0101418D02*
X0260216Y0101418D01*
X0259018Y0100219D02*
X0170631Y0100219D01*
X0170631Y0099021D02*
X0257819Y0099021D01*
X0256621Y0097822D02*
X0182637Y0097822D01*
X0183751Y0096624D02*
X0255422Y0096624D01*
X0254224Y0095425D02*
X0184247Y0095425D01*
X0176946Y0097822D02*
X0170631Y0097822D01*
X0170631Y0096624D02*
X0175832Y0096624D01*
X0175336Y0095425D02*
X0170740Y0095425D01*
X0171671Y0094227D02*
X0175191Y0094227D01*
X0175191Y0093028D02*
X0172031Y0093028D01*
X0171990Y0091830D02*
X0175191Y0091830D01*
X0175191Y0090631D02*
X0171494Y0090631D01*
X0170087Y0089433D02*
X0175191Y0089433D01*
X0175191Y0088234D02*
X0166591Y0088234D01*
X0166591Y0089433D02*
X0166774Y0089433D01*
X0166504Y0087036D02*
X0175279Y0087036D01*
X0175775Y0085837D02*
X0166007Y0085837D01*
X0168431Y0092643D02*
X0168431Y0116757D01*
X0162033Y0116757D01*
X0161991Y0116762D01*
X0166591Y0119396D02*
X0174492Y0119396D01*
X0175191Y0118197D02*
X0170102Y0118197D01*
X0173294Y0120594D02*
X0166591Y0120594D01*
X0166129Y0121793D02*
X0172095Y0121793D01*
X0175813Y0126600D02*
X0190084Y0126600D01*
X0210754Y0105931D01*
X0211170Y0105831D01*
X0216495Y0102616D02*
X0245845Y0102616D01*
X0246191Y0102271D02*
X0247735Y0101631D01*
X0254606Y0101631D01*
X0256149Y0102271D01*
X0257331Y0103452D01*
X0257970Y0104996D01*
X0257970Y0106667D01*
X0257331Y0108211D01*
X0256149Y0109392D01*
X0254606Y0110031D01*
X0247735Y0110031D01*
X0246191Y0109392D01*
X0245009Y0108211D01*
X0244370Y0106667D01*
X0244370Y0104996D01*
X0245009Y0103452D01*
X0246191Y0102271D01*
X0244859Y0103815D02*
X0217481Y0103815D01*
X0217970Y0105013D02*
X0244370Y0105013D01*
X0244370Y0106212D02*
X0217970Y0106212D01*
X0217662Y0107410D02*
X0244678Y0107410D01*
X0245408Y0108609D02*
X0216932Y0108609D01*
X0215146Y0109807D02*
X0247194Y0109807D01*
X0255146Y0109807D02*
X0264656Y0109807D01*
X0264656Y0108609D02*
X0256932Y0108609D01*
X0257662Y0107410D02*
X0264656Y0107410D01*
X0264656Y0106212D02*
X0257970Y0106212D01*
X0257970Y0105013D02*
X0263812Y0105013D01*
X0262613Y0103815D02*
X0257481Y0103815D01*
X0256495Y0102616D02*
X0261415Y0102616D01*
X0269056Y0107410D02*
X0323628Y0107410D01*
X0322740Y0108609D02*
X0269056Y0108609D01*
X0269056Y0109807D02*
X0322320Y0109807D01*
X0322320Y0111006D02*
X0269056Y0111006D01*
X0269056Y0112205D02*
X0322697Y0112205D01*
X0323525Y0113403D02*
X0269056Y0113403D01*
X0264656Y0113403D02*
X0206392Y0113403D01*
X0205194Y0114602D02*
X0264656Y0114602D01*
X0264656Y0115800D02*
X0203995Y0115800D01*
X0202797Y0116999D02*
X0264656Y0116999D01*
X0264656Y0118197D02*
X0254773Y0118197D01*
X0254606Y0118128D02*
X0256149Y0118767D01*
X0257331Y0119948D01*
X0257970Y0121492D01*
X0257970Y0123163D01*
X0257331Y0124707D01*
X0256149Y0125888D01*
X0254606Y0126528D01*
X0247735Y0126528D01*
X0246191Y0125888D01*
X0245009Y0124707D01*
X0244370Y0123163D01*
X0244370Y0121492D01*
X0245009Y0119948D01*
X0246191Y0118767D01*
X0247735Y0118128D01*
X0254606Y0118128D01*
X0256778Y0119396D02*
X0264656Y0119396D01*
X0264656Y0120594D02*
X0257598Y0120594D01*
X0257970Y0121793D02*
X0264656Y0121793D01*
X0264656Y0122991D02*
X0257970Y0122991D01*
X0257545Y0124190D02*
X0264656Y0124190D01*
X0264656Y0125388D02*
X0256649Y0125388D01*
X0264656Y0126587D02*
X0209941Y0126587D01*
X0208743Y0127785D02*
X0264656Y0127785D01*
X0264656Y0128984D02*
X0207544Y0128984D01*
X0206346Y0130182D02*
X0264656Y0130182D01*
X0264656Y0131381D02*
X0205147Y0131381D01*
X0203949Y0132579D02*
X0264656Y0132579D01*
X0264656Y0133778D02*
X0202750Y0133778D01*
X0201552Y0134976D02*
X0206883Y0134976D01*
X0206191Y0135263D02*
X0207735Y0134624D01*
X0214606Y0134624D01*
X0216149Y0135263D01*
X0217331Y0136445D01*
X0217970Y0137988D01*
X0217970Y0139659D01*
X0217331Y0141203D01*
X0216149Y0142384D01*
X0214606Y0143024D01*
X0207735Y0143024D01*
X0206191Y0142384D01*
X0205009Y0141203D01*
X0204370Y0139659D01*
X0204370Y0137988D01*
X0205009Y0136445D01*
X0206191Y0135263D01*
X0205279Y0136175D02*
X0200353Y0136175D01*
X0199155Y0137373D02*
X0204625Y0137373D01*
X0204370Y0138572D02*
X0197956Y0138572D01*
X0196758Y0139770D02*
X0204416Y0139770D01*
X0204913Y0140969D02*
X0195559Y0140969D01*
X0194360Y0142167D02*
X0205974Y0142167D01*
X0216366Y0142167D02*
X0245974Y0142167D01*
X0246191Y0142384D02*
X0245009Y0141203D01*
X0244370Y0139659D01*
X0244370Y0137988D01*
X0245009Y0136445D01*
X0246191Y0135263D01*
X0247735Y0134624D01*
X0254606Y0134624D01*
X0256149Y0135263D01*
X0257331Y0136445D01*
X0257970Y0137988D01*
X0257970Y0139659D01*
X0257331Y0141203D01*
X0256149Y0142384D01*
X0254606Y0143024D01*
X0247735Y0143024D01*
X0246191Y0142384D01*
X0244913Y0140969D02*
X0217428Y0140969D01*
X0217924Y0139770D02*
X0244416Y0139770D01*
X0244370Y0138572D02*
X0217970Y0138572D01*
X0217715Y0137373D02*
X0244625Y0137373D01*
X0245279Y0136175D02*
X0217061Y0136175D01*
X0215457Y0134976D02*
X0246883Y0134976D01*
X0255457Y0134976D02*
X0264656Y0134976D01*
X0264656Y0136175D02*
X0257061Y0136175D01*
X0257715Y0137373D02*
X0264656Y0137373D01*
X0264656Y0138572D02*
X0257970Y0138572D01*
X0257924Y0139770D02*
X0264656Y0139770D01*
X0264656Y0140969D02*
X0257428Y0140969D01*
X0256366Y0142167D02*
X0264656Y0142167D01*
X0265255Y0143366D02*
X0193162Y0143366D01*
X0191963Y0144564D02*
X0268072Y0144564D01*
X0267434Y0150557D02*
X0224042Y0150557D01*
X0225241Y0151755D02*
X0246200Y0151755D01*
X0245004Y0152954D02*
X0226439Y0152954D01*
X0227638Y0154152D02*
X0244508Y0154152D01*
X0244370Y0155351D02*
X0228836Y0155351D01*
X0230035Y0156549D02*
X0244533Y0156549D01*
X0245059Y0157748D02*
X0231233Y0157748D01*
X0232432Y0158946D02*
X0246351Y0158946D01*
X0237226Y0163741D02*
X0267595Y0163741D01*
X0267202Y0162542D02*
X0236027Y0162542D01*
X0234829Y0161343D02*
X0267202Y0161343D01*
X0267605Y0160145D02*
X0233630Y0160145D01*
X0231003Y0163741D02*
X0184391Y0163741D01*
X0184391Y0162542D02*
X0229805Y0162542D01*
X0228606Y0161343D02*
X0220952Y0161343D01*
X0219612Y0159572D02*
X0189100Y0159572D01*
X0181718Y0152191D01*
X0169907Y0152191D01*
X0162033Y0160065D01*
X0161991Y0160069D01*
X0157391Y0160145D02*
X0148958Y0160145D01*
X0148958Y0161343D02*
X0157391Y0161343D01*
X0157391Y0162542D02*
X0148958Y0162542D01*
X0148958Y0163741D02*
X0157391Y0163741D01*
X0157787Y0164939D02*
X0148563Y0164939D01*
X0144317Y0160557D02*
X0144358Y0160069D01*
X0144317Y0160557D02*
X0137181Y0167693D01*
X0137427Y0167939D01*
X0172368Y0167939D01*
X0179750Y0160557D01*
X0179791Y0160069D01*
X0184391Y0160145D02*
X0186561Y0160145D01*
X0185363Y0158946D02*
X0184391Y0158946D01*
X0184391Y0161343D02*
X0187760Y0161343D01*
X0183996Y0164939D02*
X0232202Y0164939D01*
X0233400Y0166138D02*
X0183228Y0166138D01*
X0181511Y0167336D02*
X0234599Y0167336D01*
X0235797Y0168535D02*
X0216429Y0168535D01*
X0217453Y0169733D02*
X0236996Y0169733D01*
X0238194Y0170932D02*
X0217950Y0170932D01*
X0217970Y0172130D02*
X0239393Y0172130D01*
X0240591Y0173329D02*
X0217689Y0173329D01*
X0217008Y0174527D02*
X0241790Y0174527D01*
X0242988Y0175726D02*
X0218207Y0175726D01*
X0219405Y0176924D02*
X0244187Y0176924D01*
X0245385Y0178123D02*
X0220604Y0178123D01*
X0221802Y0179321D02*
X0246584Y0179321D01*
X0245628Y0185314D02*
X0222796Y0185314D01*
X0222796Y0186512D02*
X0244769Y0186512D01*
X0244370Y0187711D02*
X0222796Y0187711D01*
X0222796Y0188909D02*
X0244370Y0188909D01*
X0244768Y0190108D02*
X0222796Y0190108D01*
X0222796Y0191306D02*
X0245625Y0191306D01*
X0247718Y0192505D02*
X0222796Y0192505D01*
X0222796Y0193703D02*
X0267580Y0193703D01*
X0280423Y0193703D02*
X0297580Y0193703D01*
X0297202Y0192505D02*
X0280802Y0192505D01*
X0280802Y0191306D02*
X0297202Y0191306D01*
X0297620Y0190108D02*
X0280383Y0190108D01*
X0279496Y0188909D02*
X0298507Y0188909D01*
X0301631Y0197299D02*
X0323739Y0197299D01*
X0339183Y0193703D02*
X0353825Y0193703D01*
X0352821Y0192505D02*
X0340381Y0192505D01*
X0340906Y0191306D02*
X0352325Y0191306D01*
X0352320Y0190108D02*
X0340906Y0190108D01*
X0340906Y0188909D02*
X0352615Y0188909D01*
X0353328Y0187711D02*
X0340906Y0187711D01*
X0297791Y0199696D02*
X0280212Y0199696D01*
X0280709Y0200894D02*
X0297295Y0200894D01*
X0297202Y0202093D02*
X0280802Y0202093D01*
X0280594Y0203291D02*
X0297409Y0203291D01*
X0297997Y0204490D02*
X0280006Y0204490D01*
X0278562Y0205688D02*
X0299441Y0205688D01*
X0245912Y0168535D02*
X0242020Y0168535D01*
X0243218Y0169733D02*
X0244887Y0169733D01*
X0238424Y0164939D02*
X0268447Y0164939D01*
X0268470Y0158946D02*
X0255989Y0158946D01*
X0257970Y0155351D02*
X0268858Y0155351D01*
X0267766Y0154152D02*
X0257833Y0154152D01*
X0257336Y0152954D02*
X0267270Y0152954D01*
X0267202Y0151755D02*
X0256140Y0151755D01*
X0269056Y0137373D02*
X0289880Y0137373D01*
X0291306Y0136175D02*
X0269056Y0136175D01*
X0273802Y0134976D02*
X0274202Y0134976D01*
X0274202Y0133778D02*
X0273802Y0133778D01*
X0273802Y0132579D02*
X0274202Y0132579D01*
X0247567Y0118197D02*
X0214773Y0118197D01*
X0216778Y0119396D02*
X0245562Y0119396D01*
X0244742Y0120594D02*
X0217598Y0120594D01*
X0217970Y0121793D02*
X0244370Y0121793D01*
X0244370Y0122991D02*
X0217970Y0122991D01*
X0217545Y0124190D02*
X0244795Y0124190D01*
X0245691Y0125388D02*
X0216649Y0125388D01*
X0211170Y0122328D02*
X0210754Y0122663D01*
X0190084Y0143332D01*
X0129061Y0143332D01*
X0128643Y0152954D02*
X0142273Y0152954D01*
X0140770Y0154152D02*
X0130147Y0154152D01*
X0130825Y0155351D02*
X0140091Y0155351D01*
X0139758Y0156549D02*
X0131158Y0156549D01*
X0131158Y0157748D02*
X0139758Y0157748D01*
X0139758Y0158946D02*
X0131158Y0158946D01*
X0131158Y0160145D02*
X0139758Y0160145D01*
X0139758Y0161343D02*
X0131158Y0161343D01*
X0131158Y0162542D02*
X0139220Y0162542D01*
X0138021Y0163741D02*
X0131158Y0163741D01*
X0130763Y0164939D02*
X0136823Y0164939D01*
X0137181Y0167693D02*
X0136935Y0167939D01*
X0101502Y0167939D01*
X0108883Y0160557D01*
X0108925Y0160069D01*
X0104325Y0160145D02*
X0095725Y0160145D01*
X0095725Y0161343D02*
X0104325Y0161343D01*
X0103787Y0162542D02*
X0095725Y0162542D01*
X0095725Y0163741D02*
X0102588Y0163741D01*
X0101390Y0164939D02*
X0095330Y0164939D01*
X0101502Y0167939D02*
X0081324Y0167939D01*
X0073943Y0160557D01*
X0073492Y0160069D01*
X0068892Y0160145D02*
X0060292Y0160145D01*
X0060292Y0161343D02*
X0068892Y0161343D01*
X0068892Y0162542D02*
X0060292Y0162542D01*
X0060292Y0163741D02*
X0068892Y0163741D01*
X0069288Y0164939D02*
X0059897Y0164939D01*
X0059592Y0165675D02*
X0058298Y0166969D01*
X0056607Y0167669D01*
X0054777Y0167669D01*
X0053086Y0166969D01*
X0051792Y0165675D01*
X0051092Y0163984D01*
X0051092Y0156154D01*
X0051792Y0154464D01*
X0053086Y0153170D01*
X0054777Y0152469D01*
X0056607Y0152469D01*
X0058298Y0153170D01*
X0059592Y0154464D01*
X0060292Y0156154D01*
X0060292Y0163984D01*
X0059592Y0165675D01*
X0059129Y0166138D02*
X0070055Y0166138D01*
X0071773Y0167336D02*
X0057412Y0167336D01*
X0056607Y0170176D02*
X0058298Y0170877D01*
X0059592Y0172171D01*
X0060292Y0173861D01*
X0060292Y0181691D01*
X0059592Y0183382D01*
X0058298Y0184676D01*
X0056607Y0185376D01*
X0054777Y0185376D01*
X0053086Y0184676D01*
X0051792Y0183382D01*
X0051092Y0181691D01*
X0051092Y0173861D01*
X0051792Y0172171D01*
X0053086Y0170877D01*
X0054777Y0170176D01*
X0056607Y0170176D01*
X0058353Y0170932D02*
X0070832Y0170932D01*
X0069633Y0172130D02*
X0059551Y0172130D01*
X0060071Y0173329D02*
X0069113Y0173329D01*
X0068892Y0174527D02*
X0060292Y0174527D01*
X0060292Y0175726D02*
X0068892Y0175726D01*
X0068892Y0176924D02*
X0060292Y0176924D01*
X0060292Y0178123D02*
X0068892Y0178123D01*
X0068892Y0179321D02*
X0060292Y0179321D01*
X0060292Y0180520D02*
X0068892Y0180520D01*
X0068903Y0181718D02*
X0060281Y0181718D01*
X0059785Y0182917D02*
X0069400Y0182917D01*
X0070326Y0184115D02*
X0058859Y0184115D01*
X0056758Y0185314D02*
X0070681Y0185314D01*
X0069482Y0186512D02*
X0034932Y0186512D01*
X0035065Y0185314D02*
X0054626Y0185314D01*
X0052526Y0184115D02*
X0036329Y0184115D01*
X0037614Y0182917D02*
X0051600Y0182917D01*
X0051103Y0181718D02*
X0038110Y0181718D01*
X0038214Y0180520D02*
X0051092Y0180520D01*
X0051092Y0179321D02*
X0037981Y0179321D01*
X0037308Y0178123D02*
X0051092Y0178123D01*
X0051092Y0176924D02*
X0035572Y0176924D01*
X0032900Y0176924D02*
X0029883Y0176924D01*
X0029883Y0175726D02*
X0051092Y0175726D01*
X0051092Y0174527D02*
X0029883Y0174527D01*
X0029883Y0173329D02*
X0051313Y0173329D01*
X0051833Y0172130D02*
X0029883Y0172130D01*
X0029883Y0170932D02*
X0053032Y0170932D01*
X0053973Y0167336D02*
X0029883Y0167336D01*
X0029883Y0166138D02*
X0052255Y0166138D01*
X0051488Y0164939D02*
X0029883Y0164939D01*
X0029883Y0163741D02*
X0051092Y0163741D01*
X0051092Y0162542D02*
X0029883Y0162542D01*
X0029883Y0161343D02*
X0051092Y0161343D01*
X0051092Y0160145D02*
X0029883Y0160145D01*
X0029883Y0158946D02*
X0051092Y0158946D01*
X0051092Y0157748D02*
X0029883Y0157748D01*
X0029883Y0156549D02*
X0051092Y0156549D01*
X0051425Y0155351D02*
X0029883Y0155351D01*
X0029883Y0154152D02*
X0052104Y0154152D01*
X0053607Y0152954D02*
X0029883Y0152954D01*
X0029883Y0151755D02*
X0041853Y0151755D01*
X0040739Y0150557D02*
X0029883Y0150557D01*
X0029883Y0149358D02*
X0040739Y0149358D01*
X0040739Y0148160D02*
X0029883Y0148160D01*
X0029883Y0146961D02*
X0040739Y0146961D01*
X0040739Y0145763D02*
X0029883Y0145763D01*
X0029883Y0144564D02*
X0040739Y0144564D01*
X0040739Y0143366D02*
X0029883Y0143366D01*
X0029883Y0142167D02*
X0040739Y0142167D01*
X0040739Y0140969D02*
X0029883Y0140969D01*
X0029883Y0139770D02*
X0040739Y0139770D01*
X0040739Y0138572D02*
X0029883Y0138572D01*
X0029883Y0137373D02*
X0040739Y0137373D01*
X0040739Y0136175D02*
X0029883Y0136175D01*
X0029883Y0134976D02*
X0040739Y0134976D01*
X0040739Y0133778D02*
X0029883Y0133778D01*
X0029883Y0132579D02*
X0040739Y0132579D01*
X0040739Y0131381D02*
X0029883Y0131381D01*
X0029883Y0130182D02*
X0040739Y0130182D01*
X0040739Y0128984D02*
X0029883Y0128984D01*
X0029883Y0127785D02*
X0040739Y0127785D01*
X0040739Y0126587D02*
X0029883Y0126587D01*
X0029883Y0125388D02*
X0040739Y0125388D01*
X0040739Y0124190D02*
X0039391Y0124190D01*
X0036727Y0124190D02*
X0029883Y0124190D01*
X0029883Y0122991D02*
X0034783Y0122991D01*
X0033921Y0121793D02*
X0029883Y0121793D01*
X0029883Y0120594D02*
X0033459Y0120594D01*
X0033459Y0119396D02*
X0029883Y0119396D01*
X0029883Y0118197D02*
X0033459Y0118197D01*
X0033459Y0116999D02*
X0029883Y0116999D01*
X0020659Y0115800D02*
X0019859Y0115800D01*
X0019859Y0116362D02*
X0019859Y0109168D01*
X0019182Y0109275D01*
X0018493Y0109499D01*
X0017848Y0109828D01*
X0017262Y0110254D01*
X0016750Y0110766D01*
X0016325Y0111351D01*
X0015996Y0111996D01*
X0015772Y0112685D01*
X0015659Y0113400D01*
X0015659Y0116362D01*
X0019859Y0116362D01*
X0019859Y0116999D02*
X0013737Y0116999D01*
X0013737Y0115800D02*
X0015659Y0115800D01*
X0015659Y0114602D02*
X0013737Y0114602D01*
X0013737Y0113403D02*
X0015659Y0113403D01*
X0015928Y0112205D02*
X0013737Y0112205D01*
X0013737Y0111006D02*
X0016576Y0111006D01*
X0017888Y0109807D02*
X0013737Y0109807D01*
X0019859Y0109807D02*
X0020659Y0109807D01*
X0020659Y0111006D02*
X0019859Y0111006D01*
X0019859Y0112205D02*
X0020659Y0112205D01*
X0020659Y0113403D02*
X0019859Y0113403D01*
X0019859Y0114602D02*
X0020659Y0114602D01*
X0015659Y0118197D02*
X0014508Y0118197D01*
X0010683Y0120594D02*
X0010137Y0120594D01*
X0010137Y0121793D02*
X0011881Y0121793D01*
X0013080Y0122991D02*
X0010137Y0122991D01*
X0010137Y0124190D02*
X0014278Y0124190D01*
X0015337Y0125388D02*
X0010137Y0125388D01*
X0010137Y0126587D02*
X0015337Y0126587D01*
X0015337Y0127785D02*
X0010137Y0127785D01*
X0010137Y0128984D02*
X0015337Y0128984D01*
X0015337Y0130182D02*
X0010137Y0130182D01*
X0010137Y0131381D02*
X0015337Y0131381D01*
X0015337Y0132579D02*
X0010137Y0132579D01*
X0010137Y0133778D02*
X0015337Y0133778D01*
X0015337Y0134976D02*
X0010137Y0134976D01*
X0010137Y0136175D02*
X0015337Y0136175D01*
X0015337Y0137373D02*
X0010137Y0137373D01*
X0010137Y0138572D02*
X0015337Y0138572D01*
X0015337Y0139770D02*
X0010137Y0139770D01*
X0010137Y0140969D02*
X0015337Y0140969D01*
X0015337Y0142167D02*
X0010137Y0142167D01*
X0010137Y0143366D02*
X0015337Y0143366D01*
X0015337Y0144564D02*
X0010137Y0144564D01*
X0010137Y0145763D02*
X0015337Y0145763D01*
X0015337Y0146961D02*
X0010137Y0146961D01*
X0010137Y0148160D02*
X0015337Y0148160D01*
X0015337Y0149358D02*
X0010137Y0149358D01*
X0010137Y0150557D02*
X0015337Y0150557D01*
X0015337Y0151755D02*
X0010137Y0151755D01*
X0010137Y0152954D02*
X0015337Y0152954D01*
X0015337Y0154152D02*
X0010137Y0154152D01*
X0010137Y0155351D02*
X0015337Y0155351D01*
X0015337Y0156549D02*
X0010137Y0156549D01*
X0010137Y0157748D02*
X0015337Y0157748D01*
X0015337Y0158946D02*
X0010137Y0158946D01*
X0010137Y0160145D02*
X0015337Y0160145D01*
X0015337Y0161343D02*
X0010137Y0161343D01*
X0010137Y0162542D02*
X0015337Y0162542D01*
X0015337Y0163741D02*
X0010137Y0163741D01*
X0010137Y0164939D02*
X0015337Y0164939D01*
X0015337Y0166138D02*
X0010137Y0166138D01*
X0010137Y0167336D02*
X0015337Y0167336D01*
X0015337Y0168535D02*
X0010137Y0168535D01*
X0010137Y0169733D02*
X0015337Y0169733D01*
X0015337Y0170932D02*
X0010137Y0170932D01*
X0010137Y0172130D02*
X0015337Y0172130D01*
X0015337Y0173329D02*
X0010137Y0173329D01*
X0010137Y0174527D02*
X0015337Y0174527D01*
X0015337Y0175726D02*
X0010137Y0175726D01*
X0010137Y0176924D02*
X0015337Y0176924D01*
X0015337Y0178123D02*
X0010137Y0178123D01*
X0010137Y0179321D02*
X0015337Y0179321D01*
X0015337Y0180520D02*
X0010137Y0180520D01*
X0010137Y0181718D02*
X0015337Y0181718D01*
X0015337Y0182917D02*
X0010137Y0182917D01*
X0010137Y0184115D02*
X0015337Y0184115D01*
X0015402Y0185314D02*
X0010137Y0185314D01*
X0010137Y0186512D02*
X0016601Y0186512D01*
X0017799Y0187711D02*
X0010137Y0187711D01*
X0010137Y0188909D02*
X0018998Y0188909D01*
X0020196Y0190108D02*
X0010137Y0190108D01*
X0010137Y0191306D02*
X0021395Y0191306D01*
X0022337Y0189137D02*
X0017537Y0184337D01*
X0017537Y0124337D01*
X0046876Y0128569D02*
X0046876Y0069021D01*
X0045399Y0067545D01*
X0045399Y0064592D01*
X0045557Y0064257D01*
X0045399Y0064100D01*
X0045399Y0053765D01*
X0070990Y0053765D01*
X0076403Y0059179D01*
X0076403Y0059592D01*
X0076895Y0059671D01*
X0088214Y0059671D01*
X0088214Y0059592D01*
X0092414Y0059470D02*
X0093396Y0059470D01*
X0093396Y0058272D02*
X0092414Y0058272D01*
X0091635Y0057073D02*
X0093396Y0057073D01*
X0093396Y0055874D02*
X0090436Y0055874D01*
X0093396Y0054676D02*
X0075012Y0054676D01*
X0073813Y0053477D02*
X0093396Y0053477D01*
X0093396Y0052279D02*
X0072615Y0052279D01*
X0071186Y0057073D02*
X0054413Y0057073D01*
X0054413Y0058272D02*
X0072203Y0058272D01*
X0072203Y0059470D02*
X0053977Y0059470D01*
X0055621Y0060669D02*
X0072203Y0060669D01*
X0072738Y0061867D02*
X0055621Y0061867D01*
X0055621Y0063066D02*
X0073937Y0063066D01*
X0074663Y0065392D02*
X0078143Y0065392D01*
X0080603Y0067852D01*
X0080603Y0071332D01*
X0078143Y0073792D01*
X0074663Y0073792D01*
X0072203Y0071332D01*
X0072203Y0067852D01*
X0074663Y0065392D01*
X0074593Y0065463D02*
X0057255Y0065463D01*
X0058453Y0066661D02*
X0073394Y0066661D01*
X0072203Y0067860D02*
X0059652Y0067860D01*
X0060850Y0069058D02*
X0072203Y0069058D01*
X0072203Y0070257D02*
X0062049Y0070257D01*
X0063248Y0071455D02*
X0072326Y0071455D01*
X0073525Y0072654D02*
X0064446Y0072654D01*
X0065645Y0073852D02*
X0112572Y0073852D01*
X0113770Y0075051D02*
X0066843Y0075051D01*
X0068042Y0076249D02*
X0093131Y0076249D01*
X0091932Y0077448D02*
X0069240Y0077448D01*
X0070439Y0078646D02*
X0090734Y0078646D01*
X0089535Y0079845D02*
X0070729Y0079845D01*
X0070729Y0081043D02*
X0088337Y0081043D01*
X0087138Y0082242D02*
X0070729Y0082242D01*
X0070729Y0083440D02*
X0085940Y0083440D01*
X0084741Y0084639D02*
X0076474Y0084639D01*
X0077508Y0085837D02*
X0083543Y0085837D01*
X0082344Y0087036D02*
X0078005Y0087036D01*
X0078092Y0088234D02*
X0081146Y0088234D01*
X0079947Y0089433D02*
X0078092Y0089433D01*
X0078092Y0090631D02*
X0078749Y0090631D01*
X0068529Y0079848D02*
X0068529Y0108883D01*
X0073492Y0116762D02*
X0073943Y0117250D01*
X0081324Y0124631D01*
X0101502Y0124631D01*
X0108883Y0117250D01*
X0108925Y0116762D01*
X0068529Y0079848D02*
X0053273Y0064592D01*
X0053234Y0064257D01*
X0050813Y0064100D02*
X0050675Y0064257D01*
X0050813Y0064100D02*
X0050813Y0057702D01*
X0056056Y0064264D02*
X0090352Y0064264D01*
X0090680Y0063066D02*
X0091551Y0063066D01*
X0091879Y0061867D02*
X0092749Y0061867D01*
X0092414Y0060669D02*
X0093396Y0060669D01*
X0095596Y0062131D02*
X0095596Y0048352D01*
X0137919Y0048352D01*
X0141856Y0044415D01*
X0262427Y0044415D01*
X0269809Y0037033D01*
X0362328Y0037033D01*
X0387427Y0062131D01*
X0387427Y0062584D01*
X0386391Y0057984D02*
X0391342Y0057984D01*
X0393032Y0058685D01*
X0394326Y0059979D01*
X0394638Y0060730D01*
X0394638Y0054452D01*
X0394361Y0054995D01*
X0393935Y0055581D01*
X0393423Y0056093D01*
X0392838Y0056519D01*
X0392193Y0056847D01*
X0391504Y0057071D01*
X0390789Y0057184D01*
X0387827Y0057184D01*
X0387827Y0052984D01*
X0387027Y0052984D01*
X0387027Y0057184D01*
X0385591Y0057184D01*
X0386391Y0057984D01*
X0387027Y0057073D02*
X0387827Y0057073D01*
X0387827Y0055874D02*
X0387027Y0055874D01*
X0387027Y0054676D02*
X0387827Y0054676D01*
X0387827Y0053477D02*
X0387027Y0053477D01*
X0387427Y0052584D02*
X0387427Y0052289D01*
X0364297Y0029159D01*
X0360931Y0029159D01*
X0360852Y0029159D01*
X0356423Y0033588D01*
X0342151Y0033588D01*
X0341905Y0033342D01*
X0341659Y0033588D01*
X0325419Y0033588D01*
X0319021Y0027191D01*
X0279651Y0027191D01*
X0274238Y0021777D01*
X0274002Y0021718D01*
X0274202Y0021518D02*
X0274202Y0017518D01*
X0276932Y0017518D01*
X0277585Y0017622D01*
X0278214Y0017826D01*
X0278803Y0018126D01*
X0279338Y0018515D01*
X0279805Y0018982D01*
X0280194Y0019517D01*
X0280494Y0020106D01*
X0280698Y0020735D01*
X0280802Y0021388D01*
X0280802Y0021518D01*
X0274202Y0021518D01*
X0274202Y0021918D01*
X0280802Y0021918D01*
X0280802Y0022049D01*
X0280698Y0022702D01*
X0280494Y0023330D01*
X0280194Y0023919D01*
X0279805Y0024454D01*
X0279338Y0024922D01*
X0278803Y0025310D01*
X0278214Y0025610D01*
X0277585Y0025815D01*
X0276932Y0025918D01*
X0274202Y0025918D01*
X0274202Y0021918D01*
X0273802Y0021918D01*
X0273802Y0025918D01*
X0271071Y0025918D01*
X0270418Y0025815D01*
X0269789Y0025610D01*
X0269200Y0025310D01*
X0268665Y0024922D01*
X0268198Y0024454D01*
X0267809Y0023919D01*
X0267509Y0023330D01*
X0267305Y0022702D01*
X0267202Y0022049D01*
X0267202Y0021918D01*
X0273801Y0021918D01*
X0273801Y0021518D01*
X0267202Y0021518D01*
X0267202Y0021388D01*
X0267305Y0020735D01*
X0267509Y0020106D01*
X0267809Y0019517D01*
X0268198Y0018982D01*
X0268665Y0018515D01*
X0269200Y0018126D01*
X0269789Y0017826D01*
X0270418Y0017622D01*
X0271071Y0017518D01*
X0273802Y0017518D01*
X0273802Y0021518D01*
X0274202Y0021518D01*
X0274202Y0021118D02*
X0273802Y0021118D01*
X0273802Y0022316D02*
X0274202Y0022316D01*
X0274202Y0023515D02*
X0273802Y0023515D01*
X0273802Y0024713D02*
X0274202Y0024713D01*
X0274202Y0025912D02*
X0273802Y0025912D01*
X0271031Y0025912D02*
X0257149Y0025912D01*
X0257331Y0025730D02*
X0256149Y0026912D01*
X0254606Y0027551D01*
X0247735Y0027551D01*
X0246191Y0026912D01*
X0245009Y0025730D01*
X0244370Y0024187D01*
X0244370Y0022516D01*
X0245009Y0020972D01*
X0246191Y0019791D01*
X0247735Y0019151D01*
X0254606Y0019151D01*
X0256149Y0019791D01*
X0257331Y0020972D01*
X0257970Y0022516D01*
X0257970Y0024187D01*
X0257331Y0025730D01*
X0257752Y0024713D02*
X0268457Y0024713D01*
X0267603Y0023515D02*
X0257970Y0023515D01*
X0257887Y0022316D02*
X0267244Y0022316D01*
X0267244Y0021118D02*
X0257391Y0021118D01*
X0256278Y0019919D02*
X0267604Y0019919D01*
X0268459Y0018721D02*
X0010137Y0018721D01*
X0010137Y0019919D02*
X0206062Y0019919D01*
X0206191Y0019791D02*
X0207735Y0019151D01*
X0214606Y0019151D01*
X0216149Y0019791D01*
X0217331Y0020972D01*
X0217970Y0022516D01*
X0217970Y0024187D01*
X0217331Y0025730D01*
X0216149Y0026912D01*
X0214606Y0027551D01*
X0207735Y0027551D01*
X0206191Y0026912D01*
X0205009Y0025730D01*
X0204370Y0024187D01*
X0204370Y0022516D01*
X0205009Y0020972D01*
X0206191Y0019791D01*
X0204949Y0021118D02*
X0010137Y0021118D01*
X0010137Y0022316D02*
X0204453Y0022316D01*
X0204370Y0023515D02*
X0010137Y0023515D01*
X0010137Y0024713D02*
X0204588Y0024713D01*
X0205191Y0025912D02*
X0126956Y0025912D01*
X0128155Y0027110D02*
X0206670Y0027110D01*
X0215670Y0027110D02*
X0246670Y0027110D01*
X0245191Y0025912D02*
X0217149Y0025912D01*
X0217752Y0024713D02*
X0244588Y0024713D01*
X0244370Y0023515D02*
X0217970Y0023515D01*
X0217887Y0022316D02*
X0244453Y0022316D01*
X0244949Y0021118D02*
X0217391Y0021118D01*
X0216278Y0019919D02*
X0246062Y0019919D01*
X0255670Y0027110D02*
X0323418Y0027110D01*
X0323109Y0027419D02*
X0325569Y0024959D01*
X0329048Y0024959D01*
X0331509Y0027419D01*
X0331509Y0030899D01*
X0329048Y0033359D01*
X0325569Y0033359D01*
X0323109Y0030899D01*
X0323109Y0027419D01*
X0323109Y0028309D02*
X0309132Y0028309D01*
X0310232Y0029507D02*
X0323109Y0029507D01*
X0323109Y0030706D02*
X0310728Y0030706D01*
X0310802Y0031904D02*
X0324114Y0031904D01*
X0325313Y0033103D02*
X0310574Y0033103D01*
X0309958Y0034301D02*
X0394638Y0034301D01*
X0394638Y0033103D02*
X0362927Y0033103D01*
X0362670Y0033359D02*
X0361131Y0033359D01*
X0361131Y0029359D01*
X0365131Y0029359D01*
X0365131Y0030899D01*
X0362670Y0033359D01*
X0361131Y0033103D02*
X0360731Y0033103D01*
X0360731Y0033359D02*
X0359191Y0033359D01*
X0356731Y0030899D01*
X0356731Y0029359D01*
X0360731Y0029359D01*
X0360731Y0033359D01*
X0360731Y0031904D02*
X0361131Y0031904D01*
X0361131Y0030706D02*
X0360731Y0030706D01*
X0360731Y0029507D02*
X0361131Y0029507D01*
X0361131Y0029359D02*
X0360731Y0029359D01*
X0360731Y0028959D01*
X0361131Y0028959D01*
X0361131Y0029359D01*
X0361131Y0028959D02*
X0365131Y0028959D01*
X0365131Y0027419D01*
X0362670Y0024959D01*
X0361131Y0024959D01*
X0361131Y0028959D01*
X0360731Y0028959D02*
X0360731Y0024959D01*
X0359191Y0024959D01*
X0356731Y0027419D01*
X0356731Y0028959D01*
X0360731Y0028959D01*
X0360731Y0028309D02*
X0361131Y0028309D01*
X0361131Y0027110D02*
X0360731Y0027110D01*
X0360731Y0025912D02*
X0361131Y0025912D01*
X0363623Y0025912D02*
X0394638Y0025912D01*
X0394638Y0027110D02*
X0364822Y0027110D01*
X0365131Y0028309D02*
X0394638Y0028309D01*
X0394638Y0029507D02*
X0365131Y0029507D01*
X0365131Y0030706D02*
X0394638Y0030706D01*
X0394638Y0031904D02*
X0364125Y0031904D01*
X0358935Y0033103D02*
X0352927Y0033103D01*
X0352670Y0033359D02*
X0349191Y0033359D01*
X0346731Y0030899D01*
X0346731Y0027419D01*
X0349191Y0024959D01*
X0352670Y0024959D01*
X0355131Y0027419D01*
X0355131Y0030899D01*
X0352670Y0033359D01*
X0354125Y0031904D02*
X0357736Y0031904D01*
X0356731Y0030706D02*
X0355131Y0030706D01*
X0355131Y0029507D02*
X0356731Y0029507D01*
X0356731Y0028309D02*
X0355131Y0028309D01*
X0354822Y0027110D02*
X0357040Y0027110D01*
X0358238Y0025912D02*
X0353623Y0025912D01*
X0348238Y0025912D02*
X0340001Y0025912D01*
X0339048Y0024959D02*
X0341509Y0027419D01*
X0341509Y0028959D01*
X0337509Y0028959D01*
X0337509Y0029359D01*
X0341509Y0029359D01*
X0341509Y0030899D01*
X0339048Y0033359D01*
X0337509Y0033359D01*
X0337509Y0029359D01*
X0337109Y0029359D01*
X0337109Y0033359D01*
X0335569Y0033359D01*
X0333109Y0030899D01*
X0333109Y0029359D01*
X0337109Y0029359D01*
X0337109Y0028959D01*
X0337509Y0028959D01*
X0337509Y0024959D01*
X0339048Y0024959D01*
X0337509Y0025912D02*
X0337109Y0025912D01*
X0337109Y0024959D02*
X0337109Y0028959D01*
X0333109Y0028959D01*
X0333109Y0027419D01*
X0335569Y0024959D01*
X0337109Y0024959D01*
X0337109Y0027110D02*
X0337509Y0027110D01*
X0337509Y0028309D02*
X0337109Y0028309D01*
X0337309Y0029159D02*
X0337722Y0029159D01*
X0341905Y0033342D01*
X0340503Y0031904D02*
X0347736Y0031904D01*
X0346731Y0030706D02*
X0341509Y0030706D01*
X0341509Y0029507D02*
X0346731Y0029507D01*
X0346731Y0028309D02*
X0341509Y0028309D01*
X0341200Y0027110D02*
X0347040Y0027110D01*
X0348935Y0033103D02*
X0339305Y0033103D01*
X0337509Y0033103D02*
X0337109Y0033103D01*
X0337109Y0031904D02*
X0337509Y0031904D01*
X0337509Y0030706D02*
X0337109Y0030706D01*
X0337109Y0029507D02*
X0337509Y0029507D01*
X0334114Y0031904D02*
X0330503Y0031904D01*
X0331509Y0030706D02*
X0333109Y0030706D01*
X0333109Y0029507D02*
X0331509Y0029507D01*
X0331509Y0028309D02*
X0333109Y0028309D01*
X0333418Y0027110D02*
X0331200Y0027110D01*
X0330001Y0025912D02*
X0334616Y0025912D01*
X0324616Y0025912D02*
X0307452Y0025912D01*
X0307437Y0025918D02*
X0308981Y0025279D01*
X0310162Y0024097D01*
X0310802Y0022554D01*
X0310802Y0020883D01*
X0310162Y0019339D01*
X0308981Y0018158D01*
X0307437Y0017518D01*
X0300566Y0017518D01*
X0299022Y0018158D01*
X0297841Y0019339D01*
X0297202Y0020883D01*
X0297202Y0022554D01*
X0297841Y0024097D01*
X0299022Y0025279D01*
X0300566Y0025918D01*
X0307437Y0025918D01*
X0309546Y0024713D02*
X0394638Y0024713D01*
X0394638Y0023515D02*
X0310403Y0023515D01*
X0310802Y0022316D02*
X0394638Y0022316D01*
X0394638Y0021118D02*
X0310802Y0021118D01*
X0310402Y0019919D02*
X0394638Y0019919D01*
X0394638Y0018721D02*
X0309544Y0018721D01*
X0307447Y0017522D02*
X0394638Y0017522D01*
X0394638Y0016324D02*
X0010137Y0016324D01*
X0010137Y0017522D02*
X0271046Y0017522D01*
X0273802Y0017522D02*
X0274202Y0017522D01*
X0274202Y0018721D02*
X0273802Y0018721D01*
X0273802Y0019919D02*
X0274202Y0019919D01*
X0276957Y0017522D02*
X0300556Y0017522D01*
X0298459Y0018721D02*
X0279544Y0018721D01*
X0280399Y0019919D02*
X0297601Y0019919D01*
X0297202Y0021118D02*
X0280759Y0021118D01*
X0280759Y0022316D02*
X0297202Y0022316D01*
X0297600Y0023515D02*
X0280400Y0023515D01*
X0279546Y0024713D02*
X0298457Y0024713D01*
X0300551Y0025912D02*
X0276973Y0025912D01*
X0279132Y0028309D02*
X0298871Y0028309D01*
X0297771Y0029507D02*
X0280232Y0029507D01*
X0280728Y0030706D02*
X0297275Y0030706D01*
X0297202Y0031904D02*
X0280802Y0031904D01*
X0280574Y0033103D02*
X0297429Y0033103D01*
X0298045Y0034301D02*
X0279958Y0034301D01*
X0268231Y0035500D02*
X0130276Y0035500D01*
X0130276Y0036698D02*
X0205779Y0036698D01*
X0204832Y0037897D02*
X0130276Y0037897D01*
X0130276Y0039095D02*
X0204370Y0039095D01*
X0204370Y0040294D02*
X0130276Y0040294D01*
X0130276Y0041492D02*
X0204705Y0041492D01*
X0216561Y0036698D02*
X0245779Y0036698D01*
X0244832Y0037897D02*
X0217508Y0037897D01*
X0217970Y0039095D02*
X0244370Y0039095D01*
X0244370Y0040294D02*
X0217970Y0040294D01*
X0217635Y0041492D02*
X0244705Y0041492D01*
X0256561Y0036698D02*
X0267032Y0036698D01*
X0265834Y0037897D02*
X0257508Y0037897D01*
X0257970Y0039095D02*
X0264635Y0039095D01*
X0263437Y0040294D02*
X0257970Y0040294D01*
X0257635Y0041492D02*
X0262238Y0041492D01*
X0268045Y0034301D02*
X0130276Y0034301D01*
X0130276Y0033103D02*
X0267429Y0033103D01*
X0267202Y0031904D02*
X0130276Y0031904D01*
X0130276Y0030706D02*
X0267275Y0030706D01*
X0267771Y0029507D02*
X0130276Y0029507D01*
X0129353Y0028309D02*
X0268871Y0028309D01*
X0262919Y0049336D02*
X0270793Y0057210D01*
X0308194Y0057210D01*
X0318037Y0067053D01*
X0308194Y0067053D02*
X0321974Y0080832D01*
X0321974Y0090183D01*
X0319774Y0085837D02*
X0307632Y0085837D01*
X0309621Y0084639D02*
X0319774Y0084639D01*
X0319774Y0083440D02*
X0310434Y0083440D01*
X0310802Y0082242D02*
X0319774Y0082242D01*
X0319074Y0081043D02*
X0310802Y0081043D01*
X0310372Y0079845D02*
X0317875Y0079845D01*
X0316677Y0078646D02*
X0309469Y0078646D01*
X0314280Y0076249D02*
X0301801Y0076249D01*
X0303000Y0077448D02*
X0315478Y0077448D01*
X0313081Y0075051D02*
X0309209Y0075051D01*
X0310264Y0073852D02*
X0311883Y0073852D01*
X0321974Y0075911D02*
X0333293Y0075911D01*
X0336246Y0078864D01*
X0336246Y0100025D01*
X0338446Y0100219D02*
X0349794Y0100219D01*
X0349794Y0099021D02*
X0338446Y0099021D01*
X0338446Y0097822D02*
X0349794Y0097822D01*
X0349794Y0096624D02*
X0338446Y0096624D01*
X0338446Y0095425D02*
X0349794Y0095425D01*
X0349794Y0094227D02*
X0338446Y0094227D01*
X0338446Y0093028D02*
X0349794Y0093028D01*
X0349545Y0091830D02*
X0338446Y0091830D01*
X0338446Y0090631D02*
X0348347Y0090631D01*
X0347148Y0089433D02*
X0338446Y0089433D01*
X0338446Y0088234D02*
X0345950Y0088234D01*
X0344751Y0087036D02*
X0338446Y0087036D01*
X0338446Y0085837D02*
X0343553Y0085837D01*
X0342354Y0084639D02*
X0338446Y0084639D01*
X0338446Y0083440D02*
X0341156Y0083440D01*
X0339957Y0082242D02*
X0338446Y0082242D01*
X0338446Y0081043D02*
X0338759Y0081043D01*
X0334277Y0073450D02*
X0351994Y0091167D01*
X0351994Y0126108D01*
X0363313Y0126108D01*
X0379553Y0142348D01*
X0375062Y0140969D02*
X0368465Y0140969D01*
X0368465Y0139770D02*
X0373864Y0139770D01*
X0372665Y0138572D02*
X0368465Y0138572D01*
X0368465Y0137373D02*
X0371467Y0137373D01*
X0370268Y0136175D02*
X0368465Y0136175D01*
X0368465Y0134976D02*
X0369070Y0134976D01*
X0359320Y0137373D02*
X0358920Y0137373D01*
X0358920Y0138572D02*
X0359320Y0138572D01*
X0359320Y0139770D02*
X0358920Y0139770D01*
X0353899Y0133778D02*
X0334296Y0133778D01*
X0333686Y0124190D02*
X0349794Y0124190D01*
X0349794Y0122991D02*
X0335127Y0122991D01*
X0335713Y0121793D02*
X0349794Y0121793D01*
X0349794Y0120594D02*
X0335920Y0120594D01*
X0335826Y0119396D02*
X0349794Y0119396D01*
X0349794Y0118197D02*
X0335329Y0118197D01*
X0334200Y0116999D02*
X0349794Y0116999D01*
X0349794Y0101418D02*
X0337964Y0101418D01*
X0334046Y0096624D02*
X0333438Y0096624D01*
X0359120Y0090458D02*
X0359376Y0090675D01*
X0360852Y0092151D01*
X0387427Y0092151D01*
X0387427Y0092584D01*
X0334277Y0073450D02*
X0332309Y0073450D01*
X0329356Y0070498D01*
X0329120Y0070458D01*
X0321974Y0075911D02*
X0321974Y0061147D01*
X0307702Y0046876D01*
X0142840Y0046876D01*
X0125616Y0064100D01*
X0105439Y0064100D01*
X0100025Y0069513D01*
X0100025Y0069592D01*
X0097017Y0066661D02*
X0094178Y0066661D01*
X0095376Y0065463D02*
X0098215Y0065463D01*
X0096575Y0064264D02*
X0102163Y0064264D01*
X0102491Y0063066D02*
X0103362Y0063066D01*
X0103690Y0061867D02*
X0108171Y0061867D01*
X0107636Y0060669D02*
X0104225Y0060669D01*
X0104225Y0059470D02*
X0107636Y0059470D01*
X0107636Y0058272D02*
X0104225Y0058272D01*
X0103446Y0057073D02*
X0108416Y0057073D01*
X0109614Y0055874D02*
X0102247Y0055874D01*
X0097803Y0055874D02*
X0097796Y0055874D01*
X0097796Y0054676D02*
X0131929Y0054676D01*
X0133127Y0053477D02*
X0097796Y0053477D01*
X0097796Y0052279D02*
X0134326Y0052279D01*
X0135524Y0051080D02*
X0097796Y0051080D01*
X0085992Y0055874D02*
X0078625Y0055874D01*
X0079824Y0057073D02*
X0084794Y0057073D01*
X0085748Y0063066D02*
X0078869Y0063066D01*
X0078213Y0065463D02*
X0086404Y0065463D01*
X0085206Y0066661D02*
X0079412Y0066661D01*
X0080603Y0067860D02*
X0084014Y0067860D01*
X0084014Y0069058D02*
X0080603Y0069058D01*
X0080603Y0070257D02*
X0084014Y0070257D01*
X0084137Y0071455D02*
X0080480Y0071455D01*
X0079281Y0072654D02*
X0085336Y0072654D01*
X0088214Y0069592D02*
X0088214Y0069513D01*
X0095596Y0062131D01*
X0095825Y0067860D02*
X0092979Y0067860D01*
X0092414Y0069058D02*
X0095825Y0069058D01*
X0095825Y0070257D02*
X0092414Y0070257D01*
X0092291Y0071455D02*
X0095949Y0071455D01*
X0097147Y0072654D02*
X0091092Y0072654D01*
X0102903Y0072654D02*
X0108958Y0072654D01*
X0107760Y0071455D02*
X0104102Y0071455D01*
X0104225Y0070257D02*
X0107636Y0070257D01*
X0107636Y0069058D02*
X0104225Y0069058D01*
X0104790Y0067860D02*
X0107636Y0067860D01*
X0108828Y0066661D02*
X0105989Y0066661D01*
X0111836Y0069592D02*
X0111836Y0070006D01*
X0115773Y0073943D01*
X0201403Y0073943D01*
X0208293Y0067053D01*
X0308194Y0067053D01*
X0303801Y0061918D02*
X0297202Y0061918D01*
X0297202Y0062049D01*
X0297305Y0062702D01*
X0297509Y0063330D01*
X0297809Y0063919D01*
X0298198Y0064454D01*
X0298597Y0064853D01*
X0279407Y0064853D01*
X0280162Y0064097D01*
X0280802Y0062554D01*
X0280802Y0060883D01*
X0280192Y0059410D01*
X0297887Y0059410D01*
X0297809Y0059517D01*
X0297509Y0060106D01*
X0297305Y0060735D01*
X0297202Y0061388D01*
X0297202Y0061518D01*
X0303801Y0061518D01*
X0303801Y0061918D01*
X0303801Y0061867D02*
X0280802Y0061867D01*
X0280713Y0060669D02*
X0297326Y0060669D01*
X0297843Y0059470D02*
X0280216Y0059470D01*
X0280589Y0063066D02*
X0297423Y0063066D01*
X0298060Y0064264D02*
X0279995Y0064264D01*
X0268597Y0064853D02*
X0267841Y0064097D01*
X0267202Y0062554D01*
X0267202Y0060883D01*
X0267841Y0059339D01*
X0268826Y0058354D01*
X0268593Y0058122D01*
X0262008Y0051536D01*
X0190232Y0051536D01*
X0190564Y0051868D01*
X0190564Y0053408D01*
X0186564Y0053408D01*
X0186564Y0053808D01*
X0190564Y0053808D01*
X0190564Y0055348D01*
X0188103Y0057808D01*
X0186564Y0057808D01*
X0186564Y0053808D01*
X0186164Y0053808D01*
X0186164Y0057808D01*
X0184624Y0057808D01*
X0182164Y0055348D01*
X0182164Y0053808D01*
X0186164Y0053808D01*
X0186164Y0053408D01*
X0182164Y0053408D01*
X0182164Y0051868D01*
X0182496Y0051536D01*
X0170232Y0051536D01*
X0170564Y0051868D01*
X0170564Y0053408D01*
X0166564Y0053408D01*
X0166564Y0053808D01*
X0170564Y0053808D01*
X0170564Y0055348D01*
X0168103Y0057808D01*
X0166564Y0057808D01*
X0166564Y0053808D01*
X0166164Y0053808D01*
X0166164Y0057808D01*
X0164624Y0057808D01*
X0162164Y0055348D01*
X0162164Y0053808D01*
X0166164Y0053808D01*
X0166164Y0053408D01*
X0162164Y0053408D01*
X0162164Y0051868D01*
X0162496Y0051536D01*
X0150232Y0051536D01*
X0150564Y0051868D01*
X0150564Y0053408D01*
X0146564Y0053408D01*
X0146564Y0053808D01*
X0150564Y0053808D01*
X0150564Y0055348D01*
X0148103Y0057808D01*
X0146564Y0057808D01*
X0146564Y0053808D01*
X0146164Y0053808D01*
X0146164Y0057808D01*
X0144624Y0057808D01*
X0142164Y0055348D01*
X0142164Y0054108D01*
X0127847Y0068425D01*
X0127847Y0071332D01*
X0127437Y0071743D01*
X0134742Y0071743D01*
X0134319Y0070722D01*
X0134319Y0069289D01*
X0134867Y0067966D01*
X0135880Y0066954D01*
X0137203Y0066406D01*
X0138635Y0066406D01*
X0139958Y0066954D01*
X0140810Y0067806D01*
X0144622Y0067806D01*
X0142164Y0065348D01*
X0142164Y0061868D01*
X0144624Y0059408D01*
X0148103Y0059408D01*
X0150564Y0061868D01*
X0150564Y0065348D01*
X0148106Y0067806D01*
X0164622Y0067806D01*
X0162164Y0065348D01*
X0162164Y0061868D01*
X0164624Y0059408D01*
X0168103Y0059408D01*
X0170564Y0061868D01*
X0170564Y0065348D01*
X0168106Y0067806D01*
X0184622Y0067806D01*
X0182164Y0065348D01*
X0182164Y0061868D01*
X0184624Y0059408D01*
X0188103Y0059408D01*
X0190564Y0061868D01*
X0190564Y0065348D01*
X0188106Y0067806D01*
X0196555Y0067806D01*
X0205324Y0059037D01*
X0205009Y0058722D01*
X0204370Y0057179D01*
X0204370Y0055508D01*
X0205009Y0053964D01*
X0206191Y0052783D01*
X0207735Y0052143D01*
X0214606Y0052143D01*
X0216149Y0052783D01*
X0217331Y0053964D01*
X0217970Y0055508D01*
X0217970Y0057179D01*
X0217331Y0058722D01*
X0216149Y0059904D01*
X0214606Y0060543D01*
X0210040Y0060543D01*
X0199666Y0070917D01*
X0198840Y0071743D01*
X0200492Y0071743D01*
X0206093Y0066141D01*
X0207382Y0064853D01*
X0268597Y0064853D01*
X0268008Y0064264D02*
X0206319Y0064264D01*
X0206772Y0065463D02*
X0205120Y0065463D01*
X0205573Y0066661D02*
X0203922Y0066661D01*
X0204375Y0067860D02*
X0202723Y0067860D01*
X0203176Y0069058D02*
X0201525Y0069058D01*
X0201978Y0070257D02*
X0200326Y0070257D01*
X0200779Y0071455D02*
X0199128Y0071455D01*
X0197466Y0070006D02*
X0137919Y0070006D01*
X0134623Y0071455D02*
X0127724Y0071455D01*
X0127847Y0070257D02*
X0134319Y0070257D01*
X0134415Y0069058D02*
X0127847Y0069058D01*
X0128412Y0067860D02*
X0134974Y0067860D01*
X0136586Y0066661D02*
X0129611Y0066661D01*
X0130809Y0065463D02*
X0142279Y0065463D01*
X0142164Y0064264D02*
X0132008Y0064264D01*
X0133206Y0063066D02*
X0142164Y0063066D01*
X0142165Y0061867D02*
X0134405Y0061867D01*
X0135603Y0060669D02*
X0143363Y0060669D01*
X0144562Y0059470D02*
X0136802Y0059470D01*
X0138000Y0058272D02*
X0204823Y0058272D01*
X0204890Y0059470D02*
X0188166Y0059470D01*
X0189364Y0060669D02*
X0203692Y0060669D01*
X0202493Y0061867D02*
X0190563Y0061867D01*
X0190564Y0063066D02*
X0201295Y0063066D01*
X0200096Y0064264D02*
X0190564Y0064264D01*
X0190449Y0065463D02*
X0198898Y0065463D01*
X0197699Y0066661D02*
X0189250Y0066661D01*
X0183477Y0066661D02*
X0169250Y0066661D01*
X0170449Y0065463D02*
X0182279Y0065463D01*
X0182164Y0064264D02*
X0170564Y0064264D01*
X0170564Y0063066D02*
X0182164Y0063066D01*
X0182165Y0061867D02*
X0170563Y0061867D01*
X0169364Y0060669D02*
X0183363Y0060669D01*
X0184562Y0059470D02*
X0168166Y0059470D01*
X0168838Y0057073D02*
X0183889Y0057073D01*
X0182691Y0055874D02*
X0170037Y0055874D01*
X0170564Y0054676D02*
X0182164Y0054676D01*
X0182164Y0052279D02*
X0170564Y0052279D01*
X0166564Y0053477D02*
X0186164Y0053477D01*
X0186364Y0053608D02*
X0186147Y0053765D01*
X0166462Y0053765D01*
X0166364Y0053608D01*
X0165970Y0053765D01*
X0146777Y0053765D01*
X0146364Y0053608D01*
X0146564Y0053477D02*
X0166164Y0053477D01*
X0166164Y0054676D02*
X0166564Y0054676D01*
X0166564Y0055874D02*
X0166164Y0055874D01*
X0166164Y0057073D02*
X0166564Y0057073D01*
X0163889Y0057073D02*
X0148838Y0057073D01*
X0150037Y0055874D02*
X0162691Y0055874D01*
X0162164Y0054676D02*
X0150564Y0054676D01*
X0150564Y0052279D02*
X0162164Y0052279D01*
X0164562Y0059470D02*
X0148166Y0059470D01*
X0149364Y0060669D02*
X0163363Y0060669D01*
X0162165Y0061867D02*
X0150563Y0061867D01*
X0150564Y0063066D02*
X0162164Y0063066D01*
X0162164Y0064264D02*
X0150564Y0064264D01*
X0150449Y0065463D02*
X0162279Y0065463D01*
X0163477Y0066661D02*
X0149250Y0066661D01*
X0143477Y0066661D02*
X0139252Y0066661D01*
X0128333Y0058272D02*
X0127847Y0058272D01*
X0127068Y0057073D02*
X0129531Y0057073D01*
X0130730Y0055874D02*
X0125869Y0055874D01*
X0121425Y0055874D02*
X0114058Y0055874D01*
X0115257Y0057073D02*
X0120227Y0057073D01*
X0119447Y0058272D02*
X0116036Y0058272D01*
X0116036Y0059470D02*
X0119447Y0059470D01*
X0119447Y0060669D02*
X0116036Y0060669D01*
X0115501Y0061867D02*
X0119982Y0061867D01*
X0123647Y0069513D02*
X0123647Y0069592D01*
X0123647Y0069513D02*
X0143824Y0049336D01*
X0262919Y0049336D01*
X0262750Y0052279D02*
X0254933Y0052279D01*
X0254606Y0052143D02*
X0256149Y0052783D01*
X0257331Y0053964D01*
X0257970Y0055508D01*
X0257970Y0057179D01*
X0257331Y0058722D01*
X0256149Y0059904D01*
X0254606Y0060543D01*
X0247735Y0060543D01*
X0246191Y0059904D01*
X0245009Y0058722D01*
X0244370Y0057179D01*
X0244370Y0055508D01*
X0245009Y0053964D01*
X0246191Y0052783D01*
X0247735Y0052143D01*
X0254606Y0052143D01*
X0256844Y0053477D02*
X0263949Y0053477D01*
X0265147Y0054676D02*
X0257625Y0054676D01*
X0257970Y0055874D02*
X0266346Y0055874D01*
X0267544Y0057073D02*
X0257970Y0057073D01*
X0257517Y0058272D02*
X0268743Y0058272D01*
X0267787Y0059470D02*
X0256583Y0059470D01*
X0267290Y0060669D02*
X0209914Y0060669D01*
X0208716Y0061867D02*
X0267202Y0061867D01*
X0267414Y0063066D02*
X0207517Y0063066D01*
X0216583Y0059470D02*
X0245757Y0059470D01*
X0244823Y0058272D02*
X0217517Y0058272D01*
X0217970Y0057073D02*
X0244370Y0057073D01*
X0244370Y0055874D02*
X0217970Y0055874D01*
X0217625Y0054676D02*
X0244715Y0054676D01*
X0245496Y0053477D02*
X0216844Y0053477D01*
X0214933Y0052279D02*
X0247407Y0052279D01*
X0245213Y0070257D02*
X0217127Y0070257D01*
X0217743Y0071455D02*
X0244597Y0071455D01*
X0244370Y0072654D02*
X0217970Y0072654D01*
X0217897Y0073852D02*
X0244444Y0073852D01*
X0244940Y0075051D02*
X0217400Y0075051D01*
X0216300Y0076249D02*
X0246040Y0076249D01*
X0251170Y0072839D02*
X0251600Y0072958D01*
X0256029Y0077387D01*
X0299828Y0077387D01*
X0303765Y0081324D01*
X0304002Y0081718D01*
X0302289Y0053273D02*
X0292939Y0053273D01*
X0302289Y0053273D02*
X0303765Y0051797D01*
X0304002Y0051718D01*
X0329305Y0033103D02*
X0335313Y0033103D01*
X0363906Y0035500D02*
X0394638Y0035500D01*
X0394638Y0036698D02*
X0365105Y0036698D01*
X0366303Y0037897D02*
X0394638Y0037897D01*
X0394638Y0039095D02*
X0367502Y0039095D01*
X0368700Y0040294D02*
X0394638Y0040294D01*
X0394638Y0041492D02*
X0369899Y0041492D01*
X0371097Y0042691D02*
X0394638Y0042691D01*
X0394638Y0043889D02*
X0372296Y0043889D01*
X0373494Y0045088D02*
X0394638Y0045088D01*
X0394638Y0046286D02*
X0374693Y0046286D01*
X0375891Y0047485D02*
X0394638Y0047485D01*
X0394638Y0048683D02*
X0392884Y0048683D01*
X0394149Y0049882D02*
X0394638Y0049882D01*
X0394638Y0054676D02*
X0394524Y0054676D01*
X0394638Y0055874D02*
X0393642Y0055874D01*
X0394638Y0057073D02*
X0391491Y0057073D01*
X0392035Y0058272D02*
X0394638Y0058272D01*
X0394638Y0059470D02*
X0393818Y0059470D01*
X0394612Y0060669D02*
X0394638Y0060669D01*
X0387827Y0051080D02*
X0387027Y0051080D01*
X0387027Y0049882D02*
X0387827Y0049882D01*
X0387827Y0048683D02*
X0387027Y0048683D01*
X0381970Y0048683D02*
X0377090Y0048683D01*
X0378288Y0049882D02*
X0380704Y0049882D01*
X0380079Y0051080D02*
X0379487Y0051080D01*
X0394638Y0015125D02*
X0010137Y0015125D01*
X0010137Y0013927D02*
X0394638Y0013927D01*
X0394638Y0012728D02*
X0010137Y0012728D01*
X0010137Y0011530D02*
X0394638Y0011530D01*
X0394638Y0010331D02*
X0010137Y0010331D01*
X0010137Y0025912D02*
X0031264Y0025912D01*
X0030404Y0027110D02*
X0010137Y0027110D01*
X0010137Y0028309D02*
X0030404Y0028309D01*
X0030404Y0029507D02*
X0010137Y0029507D01*
X0010137Y0030706D02*
X0030404Y0030706D01*
X0027643Y0031904D02*
X0027643Y0031904D01*
X0027643Y0033103D02*
X0027643Y0033103D01*
X0027643Y0034301D02*
X0027643Y0034301D01*
X0027643Y0035500D02*
X0027643Y0035500D01*
X0027643Y0035714D02*
X0027643Y0040267D01*
X0027643Y0035714D01*
X0027643Y0035714D01*
X0027643Y0036698D02*
X0027643Y0036698D01*
X0027643Y0037897D02*
X0027643Y0037897D01*
X0027643Y0039095D02*
X0027643Y0039095D01*
X0027422Y0040294D02*
X0072203Y0040294D01*
X0072203Y0041492D02*
X0027422Y0041492D01*
X0027422Y0042691D02*
X0072203Y0042691D01*
X0072320Y0043889D02*
X0027422Y0043889D01*
X0035320Y0039095D02*
X0035321Y0039095D01*
X0035320Y0037897D02*
X0035321Y0037897D01*
X0035320Y0036698D02*
X0035321Y0036698D01*
X0035320Y0035500D02*
X0035321Y0035500D01*
X0035320Y0034301D02*
X0035321Y0034301D01*
X0035320Y0033103D02*
X0035321Y0033103D01*
X0035320Y0031904D02*
X0035321Y0031904D01*
X0034804Y0030706D02*
X0072203Y0030706D01*
X0072203Y0031904D02*
X0055427Y0031904D01*
X0055621Y0033103D02*
X0072203Y0033103D01*
X0072732Y0034301D02*
X0055621Y0034301D01*
X0055621Y0035500D02*
X0073930Y0035500D01*
X0074600Y0037897D02*
X0055621Y0037897D01*
X0055621Y0039095D02*
X0073401Y0039095D01*
X0055621Y0036698D02*
X0125876Y0036698D01*
X0125876Y0037897D02*
X0125451Y0037897D01*
X0123447Y0036233D02*
X0121908Y0036233D01*
X0119447Y0033773D01*
X0119447Y0032233D01*
X0123447Y0032233D01*
X0123447Y0036233D01*
X0123447Y0035500D02*
X0123847Y0035500D01*
X0123847Y0034301D02*
X0123447Y0034301D01*
X0123447Y0033103D02*
X0123847Y0033103D01*
X0119976Y0034301D02*
X0111571Y0034301D01*
X0112099Y0033103D02*
X0119447Y0033103D01*
X0119447Y0030706D02*
X0112099Y0030706D01*
X0108099Y0033103D02*
X0107699Y0033103D01*
X0107699Y0034301D02*
X0108099Y0034301D01*
X0108099Y0035500D02*
X0107699Y0035500D01*
X0110372Y0035500D02*
X0121174Y0035500D01*
X0121844Y0037897D02*
X0109703Y0037897D01*
X0110901Y0039095D02*
X0120645Y0039095D01*
X0123155Y0041954D02*
X0123647Y0042033D01*
X0123647Y0041954D01*
X0128076Y0041954D01*
X0128076Y0030143D01*
X0125616Y0027683D01*
X0032604Y0027683D01*
X0032604Y0035557D01*
X0032761Y0035714D01*
X0045557Y0035500D02*
X0045557Y0035500D01*
X0045557Y0036698D02*
X0045557Y0036698D01*
X0045557Y0037897D02*
X0045557Y0037897D01*
X0045557Y0034301D02*
X0045557Y0034301D01*
X0045557Y0033103D02*
X0045557Y0033103D01*
X0045557Y0031904D02*
X0045557Y0031904D01*
X0048116Y0031904D02*
X0048116Y0031904D01*
X0048116Y0033103D02*
X0048116Y0033103D01*
X0048116Y0034301D02*
X0048116Y0034301D01*
X0095823Y0034301D02*
X0104228Y0034301D01*
X0103699Y0033103D02*
X0096351Y0033103D01*
X0096580Y0032112D02*
X0096580Y0037525D01*
X0096351Y0030706D02*
X0103699Y0030706D01*
X0107899Y0041954D02*
X0107899Y0042033D01*
X0107899Y0041954D02*
X0123155Y0041954D01*
X0129253Y0043889D02*
X0139270Y0043889D01*
X0140469Y0042691D02*
X0130276Y0042691D01*
X0126532Y0045088D02*
X0138072Y0045088D01*
X0141596Y0054676D02*
X0142164Y0054676D01*
X0142691Y0055874D02*
X0140397Y0055874D01*
X0139199Y0057073D02*
X0143889Y0057073D01*
X0146164Y0057073D02*
X0146564Y0057073D01*
X0146564Y0055874D02*
X0146164Y0055874D01*
X0146164Y0054676D02*
X0146564Y0054676D01*
X0186164Y0054676D02*
X0186564Y0054676D01*
X0186564Y0055874D02*
X0186164Y0055874D01*
X0186164Y0057073D02*
X0186564Y0057073D01*
X0188838Y0057073D02*
X0204370Y0057073D01*
X0204370Y0055874D02*
X0190037Y0055874D01*
X0190564Y0054676D02*
X0204715Y0054676D01*
X0205496Y0053477D02*
X0186564Y0053477D01*
X0190564Y0052279D02*
X0207407Y0052279D01*
X0211170Y0056343D02*
X0210754Y0056718D01*
X0197466Y0070006D01*
X0203406Y0075051D02*
X0204940Y0075051D01*
X0205340Y0078372D02*
X0210754Y0072958D01*
X0211170Y0072839D01*
X0216212Y0085837D02*
X0246129Y0085837D01*
X0244977Y0087036D02*
X0217364Y0087036D01*
X0217860Y0088234D02*
X0244480Y0088234D01*
X0244370Y0089433D02*
X0217970Y0089433D01*
X0217779Y0090631D02*
X0244561Y0090631D01*
X0245125Y0091830D02*
X0217215Y0091830D01*
X0215830Y0093028D02*
X0246510Y0093028D01*
X0264656Y0111006D02*
X0208790Y0111006D01*
X0207591Y0112205D02*
X0264656Y0112205D01*
X0207567Y0118197D02*
X0201598Y0118197D01*
X0200400Y0119396D02*
X0205562Y0119396D01*
X0204742Y0120594D02*
X0199201Y0120594D01*
X0198003Y0121793D02*
X0204370Y0121793D01*
X0204370Y0122991D02*
X0196804Y0122991D01*
X0195606Y0124190D02*
X0204795Y0124190D01*
X0204917Y0125388D02*
X0194407Y0125388D01*
X0193209Y0126587D02*
X0203719Y0126587D01*
X0202520Y0127785D02*
X0192010Y0127785D01*
X0189383Y0124190D02*
X0181123Y0124190D01*
X0183068Y0122991D02*
X0190582Y0122991D01*
X0191780Y0121793D02*
X0183929Y0121793D01*
X0184391Y0120594D02*
X0192979Y0120594D01*
X0194177Y0119396D02*
X0184391Y0119396D01*
X0184391Y0118197D02*
X0195376Y0118197D01*
X0196574Y0116999D02*
X0184391Y0116999D01*
X0184391Y0115800D02*
X0197773Y0115800D01*
X0198971Y0114602D02*
X0184391Y0114602D01*
X0184391Y0113403D02*
X0200170Y0113403D01*
X0201368Y0112205D02*
X0184125Y0112205D01*
X0183541Y0111006D02*
X0202567Y0111006D01*
X0203765Y0109807D02*
X0182264Y0109807D01*
X0183741Y0128984D02*
X0201322Y0128984D01*
X0200123Y0130182D02*
X0184237Y0130182D01*
X0184391Y0131381D02*
X0198925Y0131381D01*
X0197726Y0132579D02*
X0184391Y0132579D01*
X0184391Y0133778D02*
X0196528Y0133778D01*
X0195329Y0134976D02*
X0184391Y0134976D01*
X0184391Y0136175D02*
X0194131Y0136175D01*
X0192932Y0137373D02*
X0184391Y0137373D01*
X0184314Y0138572D02*
X0191733Y0138572D01*
X0190535Y0139770D02*
X0183817Y0139770D01*
X0182797Y0140969D02*
X0189336Y0140969D01*
X0166032Y0152954D02*
X0164076Y0152954D01*
X0159906Y0152954D02*
X0146443Y0152954D01*
X0147947Y0154152D02*
X0158403Y0154152D01*
X0157724Y0155351D02*
X0148625Y0155351D01*
X0148958Y0156549D02*
X0157391Y0156549D01*
X0157391Y0157748D02*
X0148958Y0157748D01*
X0148958Y0158946D02*
X0157391Y0158946D01*
X0173684Y0169733D02*
X0204887Y0169733D01*
X0204390Y0170932D02*
X0182452Y0170932D01*
X0183650Y0172130D02*
X0204370Y0172130D01*
X0204651Y0173329D02*
X0184171Y0173329D01*
X0184391Y0174527D02*
X0205342Y0174527D01*
X0207034Y0175726D02*
X0184391Y0175726D01*
X0184391Y0176924D02*
X0213183Y0176924D01*
X0214381Y0178123D02*
X0184391Y0178123D01*
X0184391Y0179321D02*
X0215580Y0179321D01*
X0216778Y0180520D02*
X0184391Y0180520D01*
X0183687Y0183687D02*
X0180734Y0186639D01*
X0072466Y0186639D01*
X0055734Y0203372D01*
X0055692Y0203376D01*
X0051092Y0203291D02*
X0046876Y0203291D01*
X0046876Y0204436D02*
X0046180Y0206115D01*
X0044895Y0207400D01*
X0043216Y0208095D01*
X0041398Y0208095D01*
X0039719Y0207400D01*
X0038434Y0206115D01*
X0037739Y0204436D01*
X0037739Y0196681D01*
X0038434Y0195002D01*
X0039719Y0193717D01*
X0041398Y0193021D01*
X0043216Y0193021D01*
X0044895Y0193717D01*
X0046180Y0195002D01*
X0046876Y0196681D01*
X0046876Y0204436D01*
X0046853Y0204490D02*
X0051092Y0204490D01*
X0051092Y0205688D02*
X0046357Y0205688D01*
X0045408Y0206887D02*
X0051092Y0206887D01*
X0051421Y0208085D02*
X0043240Y0208085D01*
X0041375Y0208085D02*
X0014499Y0208085D01*
X0012634Y0208085D02*
X0010137Y0208085D01*
X0010137Y0206887D02*
X0010466Y0206887D01*
X0010137Y0209284D02*
X0052094Y0209284D01*
X0051092Y0202093D02*
X0046876Y0202093D01*
X0046876Y0200894D02*
X0051092Y0200894D01*
X0051092Y0199696D02*
X0046876Y0199696D01*
X0046876Y0198497D02*
X0051491Y0198497D01*
X0052264Y0197299D02*
X0046876Y0197299D01*
X0046635Y0196100D02*
X0053995Y0196100D01*
X0057389Y0196100D02*
X0059894Y0196100D01*
X0061092Y0194902D02*
X0046080Y0194902D01*
X0044862Y0193703D02*
X0062291Y0193703D01*
X0063489Y0192505D02*
X0010137Y0192505D01*
X0010137Y0193703D02*
X0011012Y0193703D01*
X0016122Y0193703D02*
X0039752Y0193703D01*
X0038534Y0194902D02*
X0017340Y0194902D01*
X0017895Y0196100D02*
X0037979Y0196100D01*
X0037739Y0197299D02*
X0018135Y0197299D01*
X0018135Y0198497D02*
X0037739Y0198497D01*
X0037739Y0199696D02*
X0018135Y0199696D01*
X0018135Y0200894D02*
X0037739Y0200894D01*
X0037739Y0202093D02*
X0018135Y0202093D01*
X0018135Y0203291D02*
X0037739Y0203291D01*
X0037761Y0204490D02*
X0018113Y0204490D01*
X0017616Y0205688D02*
X0038258Y0205688D01*
X0039206Y0206887D02*
X0016668Y0206887D01*
X0028292Y0191306D02*
X0064688Y0191306D01*
X0065886Y0190108D02*
X0029491Y0190108D01*
X0027350Y0189137D02*
X0022337Y0189137D01*
X0027350Y0189137D02*
X0031087Y0185401D01*
X0034402Y0187711D02*
X0068284Y0187711D01*
X0067085Y0188909D02*
X0033011Y0188909D01*
X0031164Y0178123D02*
X0031009Y0178123D01*
X0029883Y0169733D02*
X0080008Y0169733D01*
X0078809Y0168535D02*
X0029883Y0168535D01*
X0060292Y0158946D02*
X0068892Y0158946D01*
X0068892Y0157748D02*
X0060292Y0157748D01*
X0060292Y0156549D02*
X0068892Y0156549D01*
X0069225Y0155351D02*
X0059959Y0155351D01*
X0059281Y0154152D02*
X0069904Y0154152D01*
X0071407Y0152954D02*
X0057777Y0152954D01*
X0075577Y0152954D02*
X0089040Y0152954D01*
X0087537Y0154152D02*
X0077081Y0154152D01*
X0077759Y0155351D02*
X0086858Y0155351D01*
X0086525Y0156549D02*
X0078092Y0156549D01*
X0078092Y0157748D02*
X0086525Y0157748D01*
X0086525Y0158946D02*
X0078092Y0158946D01*
X0078092Y0160145D02*
X0086525Y0160145D01*
X0086525Y0161343D02*
X0078092Y0161343D01*
X0079039Y0162542D02*
X0086525Y0162542D01*
X0086525Y0163741D02*
X0080238Y0163741D01*
X0081436Y0164939D02*
X0086921Y0164939D01*
X0077611Y0167336D02*
X0075212Y0167336D01*
X0076153Y0170932D02*
X0088465Y0170932D01*
X0087266Y0172130D02*
X0077351Y0172130D01*
X0077871Y0173329D02*
X0086746Y0173329D01*
X0086525Y0174527D02*
X0078092Y0174527D01*
X0078092Y0175726D02*
X0086525Y0175726D01*
X0086525Y0176924D02*
X0078092Y0176924D01*
X0078092Y0178123D02*
X0086525Y0178123D01*
X0086525Y0179321D02*
X0078092Y0179321D01*
X0078092Y0180520D02*
X0086525Y0180520D01*
X0086536Y0181718D02*
X0078081Y0181718D01*
X0077585Y0182917D02*
X0087033Y0182917D01*
X0087959Y0184115D02*
X0076659Y0184115D01*
X0081817Y0195498D02*
X0101009Y0195498D01*
X0108883Y0203372D01*
X0108925Y0203376D01*
X0103962Y0190576D02*
X0208785Y0190576D01*
X0210754Y0188608D01*
X0211170Y0188312D01*
X0211246Y0192545D02*
X0215675Y0192545D01*
X0218135Y0190084D01*
X0218135Y0183687D01*
X0183687Y0183687D01*
X0176625Y0184115D02*
X0165158Y0184115D01*
X0166084Y0182917D02*
X0175699Y0182917D01*
X0175202Y0181718D02*
X0166580Y0181718D01*
X0166591Y0180520D02*
X0175191Y0180520D01*
X0175191Y0179321D02*
X0166591Y0179321D01*
X0166591Y0178123D02*
X0175191Y0178123D01*
X0175191Y0176924D02*
X0166591Y0176924D01*
X0166591Y0175726D02*
X0175191Y0175726D01*
X0175191Y0174527D02*
X0166591Y0174527D01*
X0166371Y0173329D02*
X0175412Y0173329D01*
X0175932Y0172130D02*
X0165850Y0172130D01*
X0164652Y0170932D02*
X0177131Y0170932D01*
X0174883Y0168535D02*
X0205912Y0168535D01*
X0211170Y0171816D02*
X0211246Y0171876D01*
X0220596Y0181226D01*
X0220596Y0209277D01*
X0195498Y0209277D01*
X0179257Y0193037D01*
X0136935Y0193037D01*
X0126600Y0203372D01*
X0126558Y0203376D01*
X0144358Y0203376D02*
X0144809Y0203372D01*
X0152683Y0195498D01*
X0171876Y0195498D01*
X0179750Y0203372D01*
X0179791Y0203376D01*
X0158825Y0184115D02*
X0147525Y0184115D01*
X0148451Y0182917D02*
X0157899Y0182917D01*
X0157402Y0181718D02*
X0148947Y0181718D01*
X0148958Y0180520D02*
X0157391Y0180520D01*
X0157391Y0179321D02*
X0148958Y0179321D01*
X0148958Y0178123D02*
X0157391Y0178123D01*
X0157391Y0176924D02*
X0148958Y0176924D01*
X0148958Y0175726D02*
X0157391Y0175726D01*
X0157391Y0174527D02*
X0148958Y0174527D01*
X0148738Y0173329D02*
X0157612Y0173329D01*
X0158132Y0172130D02*
X0148217Y0172130D01*
X0147019Y0170932D02*
X0159331Y0170932D01*
X0176082Y0167336D02*
X0178072Y0167336D01*
X0141698Y0170932D02*
X0129219Y0170932D01*
X0130417Y0172130D02*
X0140499Y0172130D01*
X0139979Y0173329D02*
X0130938Y0173329D01*
X0131158Y0174527D02*
X0139758Y0174527D01*
X0139758Y0175726D02*
X0131158Y0175726D01*
X0131158Y0176924D02*
X0139758Y0176924D01*
X0139758Y0178123D02*
X0131158Y0178123D01*
X0131158Y0179321D02*
X0139758Y0179321D01*
X0139758Y0180520D02*
X0131158Y0180520D01*
X0131147Y0181718D02*
X0139769Y0181718D01*
X0140266Y0182917D02*
X0130651Y0182917D01*
X0129725Y0184115D02*
X0141192Y0184115D01*
X0123392Y0184115D02*
X0112092Y0184115D01*
X0113018Y0182917D02*
X0122466Y0182917D01*
X0121969Y0181718D02*
X0113514Y0181718D01*
X0113525Y0180520D02*
X0121958Y0180520D01*
X0121958Y0179321D02*
X0113525Y0179321D01*
X0113525Y0178123D02*
X0121958Y0178123D01*
X0121958Y0176924D02*
X0113525Y0176924D01*
X0113525Y0175726D02*
X0121958Y0175726D01*
X0121958Y0174527D02*
X0113525Y0174527D01*
X0113304Y0173329D02*
X0122179Y0173329D01*
X0122699Y0172130D02*
X0112784Y0172130D01*
X0111586Y0170932D02*
X0123898Y0170932D01*
X0122354Y0164939D02*
X0113130Y0164939D01*
X0113525Y0163741D02*
X0121958Y0163741D01*
X0121958Y0162542D02*
X0113525Y0162542D01*
X0113525Y0161343D02*
X0121958Y0161343D01*
X0121958Y0160145D02*
X0113525Y0160145D01*
X0113525Y0158946D02*
X0121958Y0158946D01*
X0121958Y0157748D02*
X0113525Y0157748D01*
X0113525Y0156549D02*
X0121958Y0156549D01*
X0122291Y0155351D02*
X0113192Y0155351D01*
X0112514Y0154152D02*
X0122970Y0154152D01*
X0124473Y0152954D02*
X0111010Y0152954D01*
X0106840Y0152954D02*
X0093210Y0152954D01*
X0094714Y0154152D02*
X0105337Y0154152D01*
X0104658Y0155351D02*
X0095392Y0155351D01*
X0095725Y0156549D02*
X0104325Y0156549D01*
X0104325Y0157748D02*
X0095725Y0157748D01*
X0095725Y0158946D02*
X0104325Y0158946D01*
X0106265Y0170932D02*
X0093786Y0170932D01*
X0094984Y0172130D02*
X0105066Y0172130D01*
X0104546Y0173329D02*
X0095504Y0173329D01*
X0095725Y0174527D02*
X0104325Y0174527D01*
X0104325Y0175726D02*
X0095725Y0175726D01*
X0095725Y0176924D02*
X0104325Y0176924D01*
X0104325Y0178123D02*
X0095725Y0178123D01*
X0095725Y0179321D02*
X0104325Y0179321D01*
X0104325Y0180520D02*
X0095725Y0180520D01*
X0095714Y0181718D02*
X0104336Y0181718D01*
X0104833Y0182917D02*
X0095218Y0182917D01*
X0094292Y0184115D02*
X0105759Y0184115D01*
X0081817Y0195498D02*
X0073943Y0203372D01*
X0073492Y0203376D01*
X0211170Y0204808D02*
X0211246Y0204356D01*
X0211246Y0192545D01*
X0222796Y0209284D02*
X0394638Y0209284D01*
X0394638Y0205688D02*
X0393828Y0205688D01*
X0394618Y0204490D02*
X0394638Y0204490D01*
X0387827Y0198497D02*
X0387027Y0198497D01*
X0394380Y0190108D02*
X0394638Y0190108D01*
X0394638Y0188909D02*
X0393257Y0188909D01*
X0322320Y0160145D02*
X0321721Y0160145D01*
X0227408Y0160145D02*
X0224130Y0160145D01*
X0225209Y0158946D02*
X0226209Y0158946D01*
X0222072Y0157112D02*
X0219612Y0159572D01*
X0025483Y0097822D02*
X0023104Y0097822D01*
X0024218Y0096624D02*
X0025483Y0096624D01*
X0025483Y0095425D02*
X0024715Y0095425D01*
X0024859Y0094227D02*
X0025483Y0094227D01*
X0025483Y0093028D02*
X0024859Y0093028D01*
X0024859Y0091830D02*
X0025483Y0091830D01*
X0025483Y0090631D02*
X0024859Y0090631D01*
X0024859Y0089433D02*
X0025298Y0089433D01*
D19*
X0072466Y0100517D03*
X0046876Y0128569D03*
X0129061Y0143332D03*
X0175813Y0126600D03*
X0222072Y0157112D03*
X0292939Y0139395D03*
X0193037Y0082309D03*
X0168431Y0092643D03*
X0137919Y0070006D03*
X0050813Y0057702D03*
X0103962Y0190576D03*
X0318037Y0067053D03*
X0292939Y0053273D03*
D20*
X0023537Y0055937D03*
X0011537Y0055937D03*
M02*
